<svg xmlns="http://www.w3.org/2000/svg" xmlns:xlink="http://www.w3.org/1999/xlink" width="854.305" height="550.083" viewBox="0 0 854.305 550.083"><defs><linearGradient id="a" x1="0.5" x2="0.5" y2="1" gradientUnits="objectBoundingBox"><stop offset="0" stop-color="#e95841"/><stop offset="1" stop-color="#e94b63"/></linearGradient><linearGradient id="c" x1="0.5" y1="1" x2="0.5" gradientUnits="objectBoundingBox"><stop offset="0" stop-color="gray" stop-opacity="0.251"/><stop offset="0.54" stop-color="gray" stop-opacity="0.122"/><stop offset="1" stop-color="gray" stop-opacity="0.102"/></linearGradient><linearGradient id="d" x1="0.5" y1="1" x2="0.5" y2="-0.001" xlink:href="#c"/></defs><g transform="translate(0 0)"><g transform="translate(212.634 38.26)" opacity="0.1"><ellipse cx="10.885" cy="14.252" rx="10.885" ry="14.252" transform="translate(41.025 294.2)" fill="#3f3d56"/><path d="M539.541,459.956a17.217,17.217,0,0,0,2.276-8.714c0-7.872-4.878-14.252-10.895-14.252S520,443.389,520,451.261a17.218,17.218,0,0,0,2.276,8.714,17.8,17.8,0,0,0,0,17.418,17.8,17.8,0,0,0,0,17.418A17.159,17.159,0,0,0,520,503.524c0,7.863,4.878,14.252,10.885,14.252s10.894-6.389,10.894-14.252a17.16,17.16,0,0,0-2.276-8.714,17.8,17.8,0,0,0,0-17.418,17.8,17.8,0,0,0,0-17.418Z" transform="translate(-479.013 -212.481)" fill="#3f3d56"/><ellipse cx="10.885" cy="14.252" rx="10.885" ry="14.252" transform="translate(41.025 207.11)" fill="#3f3d56"/><ellipse cx="10.885" cy="14.252" rx="10.885" ry="14.252" transform="translate(41.025 189.693)" fill="#3f3d56"/><path d="M488.312,287.007a50.788,50.788,0,0,1-4.056-5.969l28.6-4.7-30.933.23a52.244,52.244,0,0,1-.957-41.321l41.5,21.531-38.26-28.14a52.158,52.158,0,1,1,86.085,58.347,52.174,52.174,0,0,1,5.95,9.508L539.1,315.836l39.59-13.286a52.158,52.158,0,0,1-8.408,48.973,52.149,52.149,0,1,1-81.972,0,52.149,52.149,0,0,1,0-64.487Z" transform="translate(-477.149 -202.271)" fill="#e95841"/><path d="M581.447,324.535a51.91,51.91,0,0,1-11.162,32.244,52.149,52.149,0,1,1-81.972,0C481.32,347.9,581.447,318.681,581.447,324.535Z" transform="translate(-477.149 -207.556)" opacity="0.1"/></g><g transform="translate(352.83 85.924)" opacity="0.1"><ellipse cx="8.14" cy="10.646" rx="8.14" ry="10.646" transform="translate(30.656 219.667)" fill="#3f3d56"/><path d="M670.337,444.48a12.845,12.845,0,0,0,1.693-6.5c0-5.883-3.645-10.656-8.13-10.656s-8.14,4.783-8.14,10.656a12.751,12.751,0,0,0,1.7,6.5,13.3,13.3,0,0,0,0,13.018,13.3,13.3,0,0,0,0,13.018,12.749,12.749,0,0,0-1.7,6.5c0,5.883,3.644,10.656,8.14,10.656s8.13-4.783,8.13-10.656a12.844,12.844,0,0,0-1.693-6.5,13.391,13.391,0,0,0,0-13.018A13.391,13.391,0,0,0,670.337,444.48Z" transform="translate(-625.114 -259.725)" fill="#3f3d56"/><ellipse cx="8.14" cy="10.646" rx="8.14" ry="10.646" transform="translate(30.656 154.587)" fill="#3f3d56"/><ellipse cx="8.14" cy="10.646" rx="8.14" ry="10.646" transform="translate(30.656 141.569)" fill="#3f3d56"/><path d="M632.06,315.239a37.319,37.319,0,0,1-3.032-4.457l21.378-3.51-23.119.172a39.063,39.063,0,0,1-.746-30.885l31.019,16.1-28.609-21.043a38.978,38.978,0,1,1,64.363,43.617,39.418,39.418,0,0,1,4.448,7.107l-27.739,14.415,29.585-9.929a38.987,38.987,0,0,1-6.284,36.6,38.968,38.968,0,1,1-61.216,0,38.968,38.968,0,0,1,0-48.189Z" transform="translate(-623.72 -252.103)" fill="#e95841"/><path d="M701.656,343.274a38.806,38.806,0,0,1-8.341,24.094,38.968,38.968,0,1,1-61.216,0C626.858,360.74,701.656,338.9,701.656,343.274Z" transform="translate(-623.721 -256.044)" opacity="0.1"/></g><g transform="translate(746.738 0)" opacity="0.1"><ellipse cx="10.885" cy="14.252" rx="10.885" ry="14.252" transform="translate(41.76 294.2)" fill="#3f3d56"/><path d="M1081.466,419.956a17.218,17.218,0,0,1-2.276-8.714c0-7.872,4.878-14.252,10.895-14.252s10.885,6.38,10.885,14.252a17.219,17.219,0,0,1-2.276,8.714,17.8,17.8,0,0,1,0,17.418,17.8,17.8,0,0,1,0,17.418,17.162,17.162,0,0,1,2.276,8.714c0,7.863-4.878,14.252-10.885,14.252s-10.895-6.389-10.895-14.252a17.16,17.16,0,0,1,2.276-8.714,17.8,17.8,0,0,1,0-17.418A17.8,17.8,0,0,1,1081.466,419.956Z" transform="translate(-1037.44 -172.481)" fill="#3f3d56"/><ellipse cx="10.885" cy="14.252" rx="10.885" ry="14.252" transform="translate(41.76 207.11)" fill="#3f3d56"/><ellipse cx="10.885" cy="14.252" rx="10.885" ry="14.252" transform="translate(41.76 189.692)" fill="#3f3d56"/><path d="M1128.933,247.007a50.786,50.786,0,0,0,4.055-5.969l-28.6-4.7,30.933.23a52.243,52.243,0,0,0,.956-41.321l-41.5,21.531,38.26-28.14a52.158,52.158,0,1,0-86.085,58.347A52.165,52.165,0,0,0,1041,256.5l37.141,19.34-39.59-13.286a52.159,52.159,0,0,0,8.408,48.973,52.149,52.149,0,1,0,81.973,0,52.149,52.149,0,0,0,0-64.487Z" transform="translate(-1035.541 -162.271)" fill="#e95841"/><path d="M1035.81,284.535a51.909,51.909,0,0,0,11.162,32.244,52.149,52.149,0,1,0,81.972,0C1135.937,307.9,1035.81,278.681,1035.81,284.535Z" transform="translate(-1035.553 -167.556)" opacity="0.1"/></g><g transform="translate(655.12 80.185)" opacity="0.1"><ellipse cx="8.14" cy="10.646" rx="8.14" ry="10.646" transform="translate(31.042 219.667)" fill="#3f3d56"/><path d="M973.923,438.48a12.846,12.846,0,0,1-1.693-6.5c0-5.883,3.644-10.656,8.13-10.656s8.14,4.783,8.14,10.656a12.748,12.748,0,0,1-1.7,6.5,13.3,13.3,0,0,1,0,13.018,13.3,13.3,0,0,1,0,13.018,12.747,12.747,0,0,1,1.7,6.5c0,5.883-3.644,10.655-8.14,10.655s-8.13-4.782-8.13-10.655a12.845,12.845,0,0,1,1.693-6.5,13.391,13.391,0,0,1,0-13.018,13.391,13.391,0,0,1,0-13.018Z" transform="translate(-941.169 -253.724)" fill="#3f3d56"/><ellipse cx="8.14" cy="10.646" rx="8.14" ry="10.646" transform="translate(31.042 154.587)" fill="#3f3d56"/><ellipse cx="8.14" cy="10.646" rx="8.14" ry="10.646" transform="translate(31.042 141.569)" fill="#3f3d56"/><path d="M1009.393,309.239a37.269,37.269,0,0,0,3.032-4.457l-21.378-3.51,23.119.172a39.063,39.063,0,0,0,.746-30.885l-31.019,16.1,28.609-21.043a38.977,38.977,0,1,0-64.363,43.617,39.4,39.4,0,0,0-4.448,7.107l27.739,14.415L941.9,320.832a38.987,38.987,0,0,0,6.284,36.6,38.968,38.968,0,1,0,61.216,0,38.968,38.968,0,0,0,0-48.189Z" transform="translate(-939.756 -246.103)" fill="#e95841"/><path d="M939.8,337.274a38.807,38.807,0,0,0,8.341,24.094,38.968,38.968,0,1,0,61.216,0C1014.6,354.74,939.8,332.9,939.8,337.274Z" transform="translate(-939.757 -250.044)" opacity="0.1"/></g><ellipse cx="379.797" cy="8.475" rx="379.797" ry="8.475" transform="translate(94.711 463.549)" fill="#707070" opacity="0.1"/><path d="M427.153,0C191.243,0,0,3.794,0,8.475c0,2.209,42.605,4.221,112.857,5.739,77.626,1.678,189.735,2.735,314.3,2.735,235.91,0,427.153-3.794,427.153-8.475S663.062,0,427.153,0Z" transform="translate(0 533.134)" fill="#707070" opacity="0.1"/><ellipse cx="337.153" cy="8.475" rx="337.153" ry="8.475" transform="translate(180 318.323)" fill="#707070" opacity="0.1"/><ellipse cx="313.629" cy="8.475" rx="313.629" ry="8.475" transform="translate(227.047 390.931)" fill="#707070" opacity="0.1"/><path d="M858.405,271.94a17.5,17.5,0,0,0-10.139,1.11,14.969,14.969,0,0,1-12.186,0,17.1,17.1,0,0,0-14.348.277,8.838,8.838,0,0,1-4.122,1.033c-5.815,0-10.646-5.854-11.65-13.573a11.359,11.359,0,0,0,2.87-3.128c3.405-5.49,8.675-9.02,14.606-9.02s11.134,3.482,14.539,8.915a11.172,11.172,0,0,0,9.651,5.3h.153C852.456,262.806,856.464,266.517,858.405,271.94Z" transform="translate(-278.817 -166.028)" fill="#e95841" opacity="0.1"/><path d="M876.109,246.711l-9.393,5.949,5.739-10.369a9.278,9.278,0,0,0-5.682-2.018h-.153a10.855,10.855,0,0,1-1.913-.143l-3.233,2.018,1.368-2.487a11.277,11.277,0,0,1-5.577-4.228l-5.739,3.616,3.6-6.542c-3.329-4-7.824-6.447-12.76-6.447-5.931,0-11.2,3.52-14.615,9.01a10.914,10.914,0,0,1-9.651,5.2h-.316c-6.543,0-11.841,7.413-11.841,16.557s5.3,16.567,11.841,16.567a8.982,8.982,0,0,0,4.122-1.033,17.083,17.083,0,0,1,14.348-.287,14.873,14.873,0,0,0,12.186,0,17.141,17.141,0,0,1,14.214.277,8.894,8.894,0,0,0,4.075,1.014c6.543,0,11.842-7.422,11.842-16.567a20.98,20.98,0,0,0-2.458-10.091Z" transform="translate(-278.816 -165.046)" fill="#e95841" opacity="0.1"/><path d="M441.591,266.848a12.282,12.282,0,0,0-7.107.775,10.445,10.445,0,0,1-8.522,0,11.937,11.937,0,0,0-10.034.2,6.332,6.332,0,0,1-2.87.717c-4.065,0-7.451-4.094-8.159-9.5a7.957,7.957,0,0,0,2.037-2.19c2.382-3.826,6.074-6.313,10.225-6.313s7.8,2.439,10.177,6.236a7.834,7.834,0,0,0,6.763,3.711h.105C437.421,260.469,440.224,263.07,441.591,266.848Z" transform="translate(-261.372 -166.111)" fill="#e95841" opacity="0.1"/><path d="M453.977,249.2l-6.571,4.17,3.989-7.26a6.457,6.457,0,0,0-3.969-1.416h-.115a7.165,7.165,0,0,1-1.358-.105l-2.229,1.416.956-1.741a7.939,7.939,0,0,1-3.9-2.956l-3.989,2.525,2.525-4.572a11.679,11.679,0,0,0-8.934-4.524c-4.151,0-7.843,2.468-10.225,6.313a7.652,7.652,0,0,1-6.763,3.644h-.22c-4.582,0-8.293,5.184-8.293,11.593s3.711,11.593,8.293,11.593a6.218,6.218,0,0,0,2.87-.727,11.957,11.957,0,0,1,10.024-.191,10.273,10.273,0,0,0,8.532.057,12,12,0,0,1,9.948.191,6.2,6.2,0,0,0,2.869.708c4.572,0,8.283-5.194,8.283-11.593a14.663,14.663,0,0,0-1.722-7.126Z" transform="translate(-261.371 -165.423)" fill="#e95841" opacity="0.1"/><path d="M321.59,345.258a12.262,12.262,0,0,1,7.1.775,10.465,10.465,0,0,0,8.532,0,11.975,11.975,0,0,1,10.034.191,6.188,6.188,0,0,0,2.87.727c4.065,0,7.451-4.1,8.149-9.508a7.8,7.8,0,0,1-2.028-2.19c-2.391-3.826-6.083-6.3-10.225-6.3s-7.8,2.43-10.187,6.236a7.834,7.834,0,0,1-6.753,3.711h-.105C325.751,338.917,322.939,341.509,321.59,345.258Z" transform="translate(-212.342 -146.208)" fill="#e95841" opacity="0.1"/><path d="M308.553,327.643l6.581,4.17-4-7.25a6.494,6.494,0,0,1,3.979-1.425h.105a8.149,8.149,0,0,0,1.368-.1l2.229,1.406-.956-1.731a7.93,7.93,0,0,0,3.893-2.956l3.989,2.525-2.487-4.582a11.669,11.669,0,0,1,8.934-4.515c4.142,0,7.843,2.468,10.225,6.313a7.652,7.652,0,0,0,6.753,3.644h.23c4.572,0,8.283,5.194,8.283,11.593s-3.711,11.593-8.283,11.593a6.209,6.209,0,0,1-2.87-.717,11.937,11.937,0,0,0-10.034-.2,10.389,10.389,0,0,1-4.285.956,10.521,10.521,0,0,1-4.247-.9,11.976,11.976,0,0,0-9.938.191,6.2,6.2,0,0,1-2.87.708c-4.582,0-8.293-5.184-8.293-11.593A14.77,14.77,0,0,1,308.553,327.643Z" transform="translate(-211.701 -145.522)" fill="#e95841" opacity="0.1"/><path d="M715.822,648.258c2.5-4.629-.335-10.292-3.587-14.414s-7.231-8.417-7.145-13.669c.124-7.547,8.14-12.014,14.539-16.012a71.078,71.078,0,0,0,13.056-10.522,19.254,19.254,0,0,0,4.008-5.376c1.33-2.946,1.291-6.313,1.205-9.565q-.411-16.156-1.6-32.292" transform="translate(-274.43 -178.98)" fill="none" stroke="#3f3d56" stroke-miterlimit="10" stroke-width="4"/><path d="M749.38,545.339a11.774,11.774,0,0,0-5.883-9.651l-2.64,5.213.086-6.313a11.775,11.775,0,1,0,8.436,10.751Z" transform="translate(-275.332 -178.445)" fill="#e95841"/><path d="M727.479,628.394a11.775,11.775,0,0,1-22.229-4.783,11.481,11.481,0,0,1,.765-4.783,11.784,11.784,0,0,1,22,.124l-7.356,5.988,8.092-1.913A11.71,11.71,0,0,1,727.479,628.394Z" transform="translate(-274.436 -181.804)" fill="#e95841"/><path d="M721.849,604.2a11.775,11.775,0,0,1-3.73-23.1l-.067,4.849,2.669-5.28h0a11.778,11.778,0,1,1,1.1,23.53Z" transform="translate(-274.622 -180.47)" fill="#e95841"/><path d="M751.737,584.31a11.774,11.774,0,1,1,5.2-22l-2.075,5.739,4.237-4.189a11.775,11.775,0,0,1-7.4,20.44Z" transform="translate(-275.92 -179.605)" fill="#e95841"/><path d="M747.791,548.77c-2.716.3-5.356,1.138-8.092,1.31s-5.739-.488-7.442-2.6a37.682,37.682,0,0,1-2.181-3.826,8.382,8.382,0,0,0-2.965-2.793,11.775,11.775,0,1,0,22,7.824C748.68,548.694,748.231,548.722,747.791,548.77Z" transform="translate(-275.331 -178.739)" opacity="0.1"/><path d="M751.739,584.616a11.774,11.774,0,0,1-11.2-16.8,8.715,8.715,0,0,1,2.362,2.372,39.941,39.941,0,0,0,2.334,3.893c1.837,2.152,4.974,2.87,7.815,2.726s5.586-.956,8.417-1.2c.392,0,.784-.057,1.186-.067A11.775,11.775,0,0,1,751.739,584.616Z" transform="translate(-275.922 -179.911)" opacity="0.1"/><path d="M721.849,604.516a11.775,11.775,0,0,1-11.3-16.576,9.57,9.57,0,0,1,2.5,2.391,39.4,39.4,0,0,0,2.554,3.97c1.98,2.209,5.328,2.994,8.331,2.87s5.739-.775,8.608-.957a11.793,11.793,0,0,1-10.693,8.3Z" transform="translate(-274.622 -180.787)" opacity="0.1"/><path d="M727.478,628.735a11.775,11.775,0,0,1-22.229-4.782,11.479,11.479,0,0,1,.765-4.783,11.764,11.764,0,0,1,2.583,2.305c1.119,1.358,1.855,2.87,3.156,4.18,2.4,2.363,6.294,3.338,9.747,3.425A49.465,49.465,0,0,0,727.478,628.735Z" transform="translate(-274.436 -182.145)" opacity="0.1"/><path d="M511.515,493.889c-2.5-4.62.335-10.282,3.6-14.4s7.222-8.417,7.136-13.668c-.115-7.556-8.13-12.014-14.539-16.012a70.782,70.782,0,0,1-13.047-10.521,18.917,18.917,0,0,1-4.017-5.366c-1.32-2.956-1.282-6.313-1.205-9.565q.43-16.155,1.6-32.292" transform="translate(-265.048 -172.266)" fill="none" stroke="#3f3d56" stroke-miterlimit="10" stroke-width="4"/><path d="M478.389,390.979a11.765,11.765,0,0,1,5.873-9.651l2.64,5.213-.076-6.313a12.073,12.073,0,0,1,3.874-.469,11.775,11.775,0,1,1-12.31,11.22Z" transform="translate(-264.568 -171.731)" fill="#e95841"/><path d="M500.281,474.03a11.775,11.775,0,1,0-.564-9.479l7.355,5.988-8.092-1.913a11.706,11.706,0,0,0,1.3,5.4Z" transform="translate(-265.464 -175.086)" fill="#e95841"/><path d="M505.91,449.839a11.774,11.774,0,0,0,3.74-23.1l.057,4.849-2.669-5.28h0A11.774,11.774,0,0,0,494.7,437.491a11.633,11.633,0,0,0,.507,4.017A11.765,11.765,0,0,0,505.91,449.839Z" transform="translate(-265.278 -173.756)" fill="#e95841"/><path d="M476.028,429.93a11.775,11.775,0,1,0-5.213-22l2.085,5.739-4.285-4.1a11.679,11.679,0,0,0-3.826,8.13,11.382,11.382,0,0,0,.3,3.243A11.765,11.765,0,0,0,476.028,429.93Z" transform="translate(-263.977 -172.89)" fill="#e95841"/><path d="M479.99,394.41c2.716.3,5.357,1.138,8.082,1.31s5.739-.488,7.451-2.6a37.656,37.656,0,0,0,2.171-3.826,8.408,8.408,0,0,1,2.975-2.793,11.775,11.775,0,1,1-22,7.815C479.1,394.324,479.54,394.362,479.99,394.41Z" transform="translate(-264.581 -172.025)" opacity="0.1"/><path d="M476.044,430.236a11.784,11.784,0,0,0,11.2-16.8,8.751,8.751,0,0,0-2.372,2.372,39.909,39.909,0,0,1-2.334,3.893c-1.827,2.152-4.964,2.87-7.805,2.726s-5.586-.957-8.417-1.2c-.392,0-.794-.057-1.186-.067A11.765,11.765,0,0,0,476.044,430.236Z" transform="translate(-263.992 -173.196)" opacity="0.1"/><path d="M505.934,450.156a11.765,11.765,0,0,0,11.3-16.576,9.4,9.4,0,0,0-2.487,2.391,39.432,39.432,0,0,1-2.554,3.97c-1.99,2.209-5.328,2.994-8.341,2.87s-5.739-.775-8.609-.957a11.765,11.765,0,0,0,10.694,8.3Z" transform="translate(-265.302 -174.073)" opacity="0.1"/><path d="M500.34,474.375a11.775,11.775,0,0,0,21.473-9.565,11.307,11.307,0,0,0-2.583,2.305c-1.119,1.358-1.913,2.87-3.156,4.18-2.41,2.363-6.294,3.338-9.756,3.424A51.6,51.6,0,0,1,500.34,474.375Z" transform="translate(-265.524 -175.431)" opacity="0.1"/><ellipse cx="95.612" cy="95.612" rx="95.612" ry="95.612" transform="translate(456.18 132.551)" fill="url(#a)"/><path d="M870.792,423.486c-3.329-3.329-11.335-8.35-15.3-10.225-4.582-2.2-6.265-2.162-9.508.182-2.7,1.913-4.448,3.759-7.547,3.08s-9.24-5.309-15.18-11.229-10.55-12.023-11.21-15.17,1.157-4.859,3.09-7.556c2.334-3.242,2.4-4.926.182-9.508-1.913-3.969-6.877-11.956-10.235-15.3s-4.084-2.611-5.921-1.913a34.228,34.228,0,0,0-5.423,2.869c-3.329,2.229-5.194,4.084-6.5,6.877s-2.793,7.977,4.83,21.55A120.22,120.22,0,0,0,813.2,415.328h0A120.394,120.394,0,0,0,841.485,436.5c13.563,7.652,18.757,6.131,21.55,4.83s4.648-3.147,6.867-6.5a33.781,33.781,0,0,0,2.87-5.423C873.4,427.571,874.149,426.824,870.792,423.486Z" transform="translate(-277.956 -170.665)" fill="#fff"/><path d="M827.378,300.86a95.65,95.65,0,1,0,95.6,95.618A95.651,95.651,0,0,0,827.378,300.86Zm0,178.5a82.9,82.9,0,1,1,82.9-82.9,82.9,82.9,0,0,1-82.9,82.9Z" transform="translate(-275.586 -168.3)" fill="#e95841" opacity="0.1"/><ellipse cx="95.612" cy="95.612" rx="95.612" ry="95.612" transform="translate(236.519 277.777)" fill="url(#a)"/><path d="M653.941,522.431l-28.628,29.125a.516.516,0,0,0,0,.746L645.4,573.661a3.456,3.456,0,1,1-4.888,4.888l-19.981-21.282a.545.545,0,0,0-.765,0l-4.869,4.916a21.4,21.4,0,0,1-15.3,6.437A21.865,21.865,0,0,1,584.021,562l-4.677-4.782a.545.545,0,0,0-.765,0l-19.933,21.234a3.456,3.456,0,1,1-4.888-4.888l20.01-21.311a.574.574,0,0,0,0-.746l-28.628-29.126a.526.526,0,0,0-.9.373v58.28a8.532,8.532,0,0,0,8.5,8.5h93.613a8.532,8.532,0,0,0,8.5-8.5V522.8a.526.526,0,0,0-.918-.373Z" transform="translate(-267.433 -177.928)" fill="#fff"/><path d="M599.712,561.287a14.483,14.483,0,0,0,10.445-4.3l41.694-42.44a8.321,8.321,0,0,0-5.261-1.913h-93.68a8.265,8.265,0,0,0-5.261,1.913l41.7,42.44A14.425,14.425,0,0,0,599.712,561.287Z" transform="translate(-267.582 -177.511)" fill="#fff"/><path d="M596.468,452.69a95.65,95.65,0,1,0,95.6,95.618A95.65,95.65,0,0,0,596.468,452.69Zm0,178.5a82.9,82.9,0,1,1,82.9-82.9A82.9,82.9,0,0,1,596.468,631.193Z" transform="translate(-265.542 -174.904)" fill="#e95841" opacity="0.1"/><path d="M838.854,601.991q-1.3-3.176-2.669-6.332a18.8,18.8,0,0,0-3.262-5.634,5.972,5.972,0,0,0-1.913-1.435,8.162,8.162,0,0,0-2.5-.5,19.945,19.945,0,0,0-3.922-.105c-.507-.153-1.081-.354-1.645-.583a13.659,13.659,0,0,0,10.177-12.674c0-.191,0-.392,0-.583a13.63,13.63,0,0,0-13.573-13.687,13.391,13.391,0,0,0-7.126,2.037,12.789,12.789,0,0,0-14.348,6.916,15.812,15.812,0,0,0-4.878,11.765v.6c.249,7.432,5.05,13.391,11.115,13.994a6.376,6.376,0,0,0-1.76,1.176c-1.855,1.789-2.162,4.63-2.362,7.212l-.144,1.913-3.214,1.148a.593.593,0,0,0-.143,1.042l3.07,2.19V611a2.388,2.388,0,0,0,.057.622,4.39,4.39,0,0,0-1.186,1.693,7.82,7.82,0,0,0-.278,3.1l.115,2.669a20.956,20.956,0,0,0,.813,5.94c.4,1.186,2.143,4.046,3.4,4.065-1.157,5.261-1.464,16.356-1.464,16.356-.144.144.258.277.957.392.688,5.28,2.936,20.087,6.925,26.6a56.155,56.155,0,0,1,1.5,6.466s1.138,14.07,2.64,18.25c1.282,3.558,2.3,12.339,2.573,14.883a1.463,1.463,0,0,0-1.062,1.09c-.756,2.277-5.653,5.739-5.653,5.739a23.674,23.674,0,0,0-4.228,2.707c-1.54,1.387-1.483,2.64,5.356,1.855,13.2-1.521,15.457-5.739,15.457-5.739s-.21-.708-.526-1.626a17.65,17.65,0,0,0-1.731-4.084c-.191-.182-.382.124-.612.6a81.9,81.9,0,0,1-.9-18.47s.373-6.466-1.511-11.029a20.873,20.873,0,0,1,0-7.221c.756-3.042-3.013-17.877-3.013-17.877l-2.162-10.923a3.137,3.137,0,0,1,.6,1.272l.057.22.057.316a.594.594,0,0,0,.153.3c1.473,6.122,5.51,23.08,5.51,25.567,0,3.042,3.768,10.646,3.768,10.646s1.5,12.549,4.142,17.485c2.009,3.759,2.057,9.269,1.961,11.7h0s-.449,3.128-1.205,3.884a9.238,9.238,0,0,0-1.425,2.477l-.086.182s-1.129,2.286-.373,2.669a18.524,18.524,0,0,0,9.049,1.138s1.511-1.913,1.511-2.659a11.987,11.987,0,0,0-.172-1.358c-.277-1.8-.794-4.629-.8-4.658.316-1.224-.956-4.629-.956-4.629l-.383-10.646a49.145,49.145,0,0,0-2.64-21.3s-1.913-6.839-1.5-8.742-.755-22.057-.755-22.057l-.115-.287a21.8,21.8,0,0,1,.115-4.275c.373-4.563-1.129-14.07-1.511-14.443a12.529,12.529,0,0,1-.536-3.147c.086-.794.344-3.118.7-6.007a108,108,0,0,0,11.114-.957,1.387,1.387,0,0,0,.957-.383,1.338,1.338,0,0,0,.22-.775C843.12,612.857,841.025,607.29,838.854,601.991Zm-7.585,12.062c.392-2.726.813-5.366,1.234-7.327l.057.172a53.224,53.224,0,0,1,1.817,6.026A20.5,20.5,0,0,1,831.269,614.053Z" transform="translate(-278.262 -179.591)" fill="url(#c)"/><path d="M802.37,648.646s2.257,20.307,7.145,28.2a54.748,54.748,0,0,1,1.5,6.389s1.129,13.907,2.63,18.04,2.63,15.419,2.63,15.419,5.261,6.007,7.145,1.129a79.223,79.223,0,0,1-1.129-19.551s.373-6.389-1.5-10.9a20.4,20.4,0,0,1,0-7.136c.746-3.013-3.013-17.666-3.013-17.666l-3-14.663Z" transform="translate(-278.661 -183.395)" fill="#be6f72"/><path d="M826.149,724.671s-2.257,4.132-15.409,5.634c-6.83.775-6.877-.459-5.338-1.837a23.813,23.813,0,0,1,4.209-2.678s4.888-3.376,5.634-5.634,3.386-.373,3.386-.373c3.759,5.634,4.515-1.511,5.261-.755a16.96,16.96,0,0,1,1.731,4.027C825.939,723.963,826.149,724.671,826.149,724.671Z" transform="translate(-278.757 -186.486)" fill="#e95841"/><path d="M826.149,724.856s-2.257,4.132-15.409,5.634c-6.83.775-6.877-.459-5.338-1.836,1.071.679,3.233.956,7.585-.794,6.265-2.563,10.809-4.046,12.635-4.62C825.939,724.149,826.149,724.856,826.149,724.856Z" transform="translate(-278.757 -186.672)" opacity="0.1"/><path d="M822.74,698.269s.373-6.39-1.5-10.9a20.383,20.383,0,0,1,0-7.135c.746-3.013-3.013-17.667-3.013-17.667l-3-14.663-2.6.153,2.975,14.51s3.759,14.654,3.013,17.667a20.389,20.389,0,0,0,0,7.135c1.913,4.515,1.5,10.9,1.5,10.9a79.21,79.21,0,0,0,1.129,19.551,3.292,3.292,0,0,1-1.091,1.55c1.4.631,2.87.6,3.721-1.55A79.222,79.222,0,0,1,822.74,698.269Z" transform="translate(-279.107 -183.395)" opacity="0.1"/><path d="M819.443,562.42a13.391,13.391,0,0,0-7.1,2.018A12.769,12.769,0,0,0,798,571.277a15.571,15.571,0,0,0-4.869,11.631c0,8,5.385,14.472,12.023,14.472,4.782,0,8.972-3.405,10.895-8.331a13.208,13.208,0,0,0,3.386.44,13.535,13.535,0,0,0,0-27.069Z" transform="translate(-278.259 -179.677)" fill="#333"/><path d="M831.554,650.65l1.129,3s1.129,19.924.746,21.808,1.511,8.609,1.511,8.609a48.123,48.123,0,0,1,2.631,21.043l.373,10.521s1.5,4.132.756,4.888-6.418-.669-6.418-.669.756-7.891-1.913-12.779-4.132-17.294-4.132-17.294-3.759-7.518-3.759-10.521-6.016-27.442-6.016-27.442Z" transform="translate(-279.274 -183.514)" fill="#be6f72"/><path d="M801.579,649.184s.383-13.534,1.913-17.667a28.052,28.052,0,0,0,1.674-6s22.755,4.113,24.64,2.611c0,0,.373,5.261.755,5.634s1.913,9.775,1.5,14.29,0,4.505,0,4.505-15.419,2.257-15.792,0-1.5-2.248-1.5-2.248S800.833,649.892,801.579,649.184Z" transform="translate(-278.625 -182.421)" fill="#333"/><g transform="translate(522.953 445.71)" opacity="0.1"><path d="M813.986,650.225s-9.508-.258-12.377-.775v.775c-.746.746,13.161,1.129,13.161,1.129a.956.956,0,0,1,.516.21C814.78,650.225,813.986,650.225,813.986,650.225Z" transform="translate(-801.58 -629.172)"/><path d="M831.195,633.884c-.383-.373-.756-5.634-.756-5.634a1.616,1.616,0,0,1-.641.23,19.008,19.008,0,0,0,.641,4.276c.249.249,1.913,9.775,1.5,14.29s0,4.505,0,4.505-12.2,1.789-15.151.593a4.535,4.535,0,0,0,.115.536c.373,2.257,15.792,0,15.792,0s-.382,0,0-4.505S831.568,634.266,831.195,633.884Z" transform="translate(-802.241 -628.25)"/><path d="M813.986,650.225s-9.508-.258-12.377-.775v.775c-.746.746,13.161,1.129,13.161,1.129a.956.956,0,0,1,.516.21C814.78,650.225,813.986,650.225,813.986,650.225Z" transform="translate(-801.58 -629.172)"/><path d="M831.195,633.884c-.383-.373-.756-5.634-.756-5.634a1.616,1.616,0,0,1-.641.23,19.008,19.008,0,0,0,.641,4.276c.249.249,1.913,9.775,1.5,14.29s0,4.505,0,4.505-12.2,1.789-15.151.593a4.535,4.535,0,0,0,.115.536c.373,2.257,15.792,0,15.792,0s-.382,0,0-4.505S831.568,634.266,831.195,633.884Z" transform="translate(-802.241 -628.25)"/></g><path d="M818.532,587a4.985,4.985,0,0,0,1.435,1.856,3.213,3.213,0,0,0,1.349.583c-.841.488-1.76.851-2.6,1.339a46.272,46.272,0,0,0-3.826,2.87,7.783,7.783,0,0,1-4.39,1.7,5.376,5.376,0,0,0,.612-5.347,4.992,4.992,0,0,1-.67-1.855,3.333,3.333,0,0,1,1.846-2.487c.718-.488,1.454-.957,2.2-1.425.583-.364,1.464-1.129,2.2-1.1s.823.679.957,1.349A10.594,10.594,0,0,0,818.532,587Z" transform="translate(-279.012 -180.578)" fill="#be6f72"/><path d="M818.532,587a4.985,4.985,0,0,0,1.435,1.856,3.213,3.213,0,0,0,1.349.583c-.841.488-1.76.851-2.6,1.339a46.272,46.272,0,0,0-3.826,2.87,7.783,7.783,0,0,1-4.39,1.7,5.376,5.376,0,0,0,.612-5.347,4.992,4.992,0,0,1-.67-1.855,3.333,3.333,0,0,1,1.846-2.487c.718-.488,1.454-.957,2.2-1.425.583-.364,1.464-1.129,2.2-1.1s.823.679.957,1.349A10.594,10.594,0,0,0,818.532,587Z" transform="translate(-279.012 -180.578)" opacity="0.1"/><ellipse cx="8.647" cy="8.647" rx="8.647" ry="8.647" transform="translate(539.683 411.314)" fill="#be6f72"/><path d="M840.39,729.233c0,.756-1.5,2.63-1.5,2.63a18.613,18.613,0,0,1-9.02-1.129c-.755-.373.373-2.63.373-2.63l.086-.182a9.131,9.131,0,0,1,1.425-2.449c.746-.746,1.2-3.826,1.2-3.826,2.334-3.826,6.476,1.655,6.476,1.655s.526,2.869.8,4.61A13.078,13.078,0,0,1,840.39,729.233Z" transform="translate(-279.846 -186.544)" fill="#e95841"/><path d="M840.39,729.579c0,.756-1.5,2.63-1.5,2.63a18.613,18.613,0,0,1-9.02-1.129c-.755-.373.373-2.63.373-2.63l.086-.182a18.175,18.175,0,0,0,8.188,1.684l1.712-1.712C840.323,728.881,840.39,729.388,840.39,729.579Z" transform="translate(-279.846 -186.889)" opacity="0.1"/><ellipse cx="8.455" cy="8.455" rx="8.455" ry="8.455" transform="translate(522.58 393.456)" fill="#be6f72"/><path d="M802.775,600.037c-1.855,1.77-2.162,4.572-2.353,7.126l-.287,3.74a18.884,18.884,0,0,0-.067,3.032c0,.622.153,1.253.21,1.913s.076,1.492.086,2.248v5.529a6.521,6.521,0,0,0,.612,3.319,2.257,2.257,0,0,0,2.869,1.033,3.271,3.271,0,0,0,1.186-1.836,28.554,28.554,0,0,0,1.913-7c.076-.832.086-1.664.162-2.5s.22-1.7.344-2.544c.536-3.52.775-7.078,1.014-10.627.067-1.052,1.014-5.194-.363-5.653-.67-.22-2.057.469-2.7.7A7.6,7.6,0,0,0,802.775,600.037Z" transform="translate(-278.559 -181.215)" fill="#be6f72"/><path d="M802.775,600.037c-1.855,1.77-2.162,4.572-2.353,7.126l-.287,3.74a18.884,18.884,0,0,0-.067,3.032c0,.622.153,1.253.21,1.913s.076,1.492.086,2.248v5.529a6.521,6.521,0,0,0,.612,3.319,2.257,2.257,0,0,0,2.869,1.033,3.271,3.271,0,0,0,1.186-1.836,28.554,28.554,0,0,0,1.913-7c.076-.832.086-1.664.162-2.5s.22-1.7.344-2.544c.536-3.52.775-7.078,1.014-10.627.067-1.052,1.014-5.194-.363-5.653-.67-.22-2.057.469-2.7.7A7.6,7.6,0,0,0,802.775,600.037Z" transform="translate(-278.559 -181.215)" opacity="0.1"/><path d="M820.5,588.16s-6.39,4.888-10.148,6.016c0,0-2.229,2.544-2.611,3.156s-1.148,7.365-1.913,8.876-2.63,4.888,0,8.264c0,0,.746,3.386.373,4.515s-1.741,5.261-.5,5.452,5.012,2.812,8.389,2.066,15.983,2.87,15.983,2.87,2.085-19.369,3.6-22.794l-3.386-1.129s-9.393-5.634-3.759-14.281C826.518,591.173,821.237,590.044,820.5,588.16Z" transform="translate(-278.752 -180.796)" fill="#fff"/><path d="M796.829,611.719l7.767,5.5a.574.574,0,0,0,.679,0l2.1-1.578a.593.593,0,0,0,0-.9l-5.978-5.309a.574.574,0,0,0-.583-.115l-3.836,1.377a.583.583,0,0,0-.153,1.023Z" transform="translate(-278.41 -181.715)" fill="#3f3d56"/><path d="M799.526,628.477a20.811,20.811,0,0,1-.813-5.864l-.115-2.649a7.651,7.651,0,0,1,.277-3.061,5,5,0,0,1,3.224-2.822,11.134,11.134,0,0,1,4.39-.316,1.128,1.128,0,0,1,.564.153,1.053,1.053,0,0,1,.306.517,3.463,3.463,0,0,1,.172,2.764,2.867,2.867,0,0,1-.88.909c-1.042.746-2.257,1.243-3.242,2.057a1.176,1.176,0,0,0-.44.555,1.293,1.293,0,0,0,0,.6,9.651,9.651,0,0,0,.5,1.54,1.522,1.522,0,0,0,.431.65c.182.153.421.21.612.354.411.335,1.272.775,1.224,1.3-.144,1.913-1.291,4.056-1.741,5.949C803.132,634.818,800.081,630.094,799.526,628.477Z" transform="translate(-278.495 -181.906)" fill="#be6f72"/><g transform="translate(532.901 425.222)" opacity="0.1"><path d="M812.19,628.246h-.21a6.438,6.438,0,0,0,2.458,0h.239A8.611,8.611,0,0,0,812.19,628.246Z" transform="translate(-811.98 -607.758)"/><path d="M832.662,606.83c-1.349,3.032-3.338,19.455-3.692,22.717,1.32.344,2.19.593,2.19.593s2.066-19.321,3.577-22.746Z" transform="translate(-812.719 -606.83)"/></g><path d="M827.7,601.141a2.87,2.87,0,0,0,1.234,1.865,16.559,16.559,0,0,1,2.19,2.219,15.707,15.707,0,0,1,2.172,4.352,53.3,53.3,0,0,1,1.808,5.949c-4.783,2.219-10.216,2.114-15.3,3.577a12.214,12.214,0,0,0-5.739,3.4,7.908,7.908,0,0,0-2.114,6.227.651.651,0,0,0,.784.641,5.739,5.739,0,0,0,3.51-1.205,16.692,16.692,0,0,0,2.688-2.64,4.323,4.323,0,0,1,1.913-1.415,31.3,31.3,0,0,1,8.609-.842,108.483,108.483,0,0,0,12.827-1.014,1.033,1.033,0,0,0,1.148-1.148c.421-5.643-1.674-11.153-3.826-16.385q-1.291-3.147-2.659-6.265a18.559,18.559,0,0,0-3.252-5.567,5.737,5.737,0,0,0-1.913-1.416,8.1,8.1,0,0,0-2.563-.478,18.185,18.185,0,0,0-4.2-.076,8.933,8.933,0,0,0-.4,2.171c.077,2.583,1.205,5,2.315,7.336C827.07,600.777,827.481,600.8,827.7,601.141Z" transform="translate(-279.076 -180.912)" fill="#be6f72"/><path d="M812.367,606.67a7.01,7.01,0,0,0-.957,3.654,4.924,4.924,0,0,0,.239,1.492,4.841,4.841,0,0,0,3.051,2.87" transform="translate(-279.054 -181.601)" fill="none" stroke="#000" stroke-miterlimit="10" stroke-width="1" opacity="0.1"/><path d="M816.713,573.683a4.387,4.387,0,0,0-1.387.22c-1.253-1.913-4.2-3.233-7.652-3.233-4.572,0-8.274,2.363-8.274,5.27s3.7,5.261,8.274,5.261a11.637,11.637,0,0,0,4.964-1.052,4.505,4.505,0,1,0,4.056-6.466Z" transform="translate(-278.532 -180.036)" fill="#333"/><path d="M817.085,581.739a4.5,4.5,0,0,1-4.056-2.555,11.641,11.641,0,0,1-4.964,1.053c-4.562,0-8.264-2.353-8.264-5.261a3.141,3.141,0,0,1,0-.526,3.573,3.573,0,0,0-.421,1.655c0,2.869,3.7,5.261,8.274,5.261a11.641,11.641,0,0,0,4.964-1.052,4.505,4.505,0,0,0,8.484-1.119A4.486,4.486,0,0,1,817.085,581.739Z" transform="translate(-278.531 -180.2)" opacity="0.1"/><path d="M798.006,573.5a12.769,12.769,0,0,1,14.347-6.839,13.525,13.525,0,0,1,20.584,10.388v-1.129a13.525,13.525,0,0,0-20.632-11.478,12.769,12.769,0,0,0-14.347,6.839,15.572,15.572,0,0,0-4.869,11.631v1.129A15.3,15.3,0,0,1,798.006,573.5Z" transform="translate(-278.257 -179.677)" opacity="0.1"/><path d="M887.9,572.369c2.5-4.62-.334-10.292-3.6-14.415s-7.222-8.408-7.135-13.668c.115-7.547,8.13-12,14.539-16.012a70.671,70.671,0,0,0,13.047-10.521,19.062,19.062,0,0,0,4.017-5.366c1.32-2.956,1.282-6.313,1.205-9.565q-.421-16.165-1.6-32.292" transform="translate(-281.915 -175.68)" fill="none" stroke="#3f3d56" stroke-miterlimit="10" stroke-width="4"/><path d="M921.45,469.42a11.755,11.755,0,0,0-5.873-9.641l-2.64,5.213.077-6.313a11.555,11.555,0,0,0-3.874-.469,11.775,11.775,0,1,0,12.31,11.21Z" transform="translate(-282.817 -175.143)" fill="#e95841"/><path d="M899.558,552.48a11.775,11.775,0,1,1,.564-9.489l-7.356,5.988,8.092-1.913a11.709,11.709,0,0,1-1.3,5.414Z" transform="translate(-281.921 -178.498)" fill="#e95841"/><path d="M893.929,528.28a11.775,11.775,0,0,1-3.74-23.1l-.057,4.849,2.669-5.27h0a11.778,11.778,0,1,1,1.1,23.53Z" transform="translate(-282.107 -177.168)" fill="#e95841"/><path d="M923.807,508.4a11.775,11.775,0,1,1,5.213-22l-2.085,5.739,4.285-4.113a11.708,11.708,0,0,1,3.826,8.13,11.361,11.361,0,0,1-.3,3.243A11.774,11.774,0,0,1,923.807,508.4Z" transform="translate(-283.405 -176.303)" fill="#e95841"/><path d="M919.871,472.85c-2.716.306-5.366,1.148-8.092,1.32s-5.739-.488-7.451-2.611a36.518,36.518,0,0,1-2.171-3.826,8.465,8.465,0,0,0-2.965-2.793,11.775,11.775,0,1,0,22,7.815C920.751,472.774,920.311,472.8,919.871,472.85Z" transform="translate(-282.816 -175.437)" opacity="0.1"/><path d="M923.809,508.706a11.784,11.784,0,0,1-11.2-16.8,8.711,8.711,0,0,1,2.372,2.363,37.742,37.742,0,0,0,2.334,3.893c1.827,2.162,4.964,2.869,7.805,2.736s5.586-.956,8.417-1.2c.392,0,.794-.067,1.186-.076A11.775,11.775,0,0,1,923.809,508.706Z" transform="translate(-283.407 -176.61)" opacity="0.1"/><path d="M893.929,528.6a11.765,11.765,0,0,1-11.3-16.6,9.709,9.709,0,0,1,2.487,2.391c.956,1.291,1.482,2.784,2.554,3.97,1.99,2.219,5.328,2.994,8.341,2.927s5.739-.784,8.609-1a11.775,11.775,0,0,1-10.694,8.312Z" transform="translate(-282.107 -177.484)" opacity="0.1"/><path d="M899.561,552.825a11.784,11.784,0,0,1-21.474-9.565,11.531,11.531,0,0,1,2.583,2.305c1.129,1.368,1.865,2.87,3.156,4.189,2.41,2.363,6.294,3.329,9.756,3.424a51.554,51.554,0,0,0,5.978-.354Z" transform="translate(-281.924 -178.843)" opacity="0.1"/><path d="M1046.9,724.369c2.5-4.62-.335-10.292-3.6-14.415s-7.222-8.408-7.136-13.668c.115-7.547,8.131-12,14.539-16.012a70.676,70.676,0,0,0,13.047-10.521,19.058,19.058,0,0,0,4.017-5.366c1.32-2.956,1.282-6.313,1.205-9.565q-.411-16.165-1.6-32.292" transform="translate(-288.83 -182.291)" fill="none" stroke="#3f3d56" stroke-miterlimit="10" stroke-width="4"/><path d="M1080.452,621.42a11.754,11.754,0,0,0-5.873-9.641l-2.64,5.213.077-6.313a11.558,11.558,0,0,0-3.826-.469,11.775,11.775,0,1,0,12.31,11.21Z" transform="translate(-289.735 -181.755)" fill="#e95841"/><path d="M1058.559,704.48a11.775,11.775,0,1,1,.564-9.489l-7.356,5.988,8.092-1.913a11.711,11.711,0,0,1-1.3,5.414Z" transform="translate(-288.837 -185.11)" fill="#e95841"/><path d="M1052.928,680.28a11.775,11.775,0,0,1-3.74-23.1l-.058,4.849,2.669-5.27h0a11.778,11.778,0,1,1,1.1,23.53Z" transform="translate(-289.023 -183.78)" fill="#e95841"/><path d="M1082.807,660.4a11.774,11.774,0,1,1,5.213-22l-2.085,5.739,4.285-4.113a11.709,11.709,0,0,1,3.826,8.13,11.38,11.38,0,0,1-.3,3.242A11.775,11.775,0,0,1,1082.807,660.4Z" transform="translate(-290.321 -182.915)" fill="#e95841"/><path d="M1078.871,624.85c-2.716.306-5.366,1.148-8.092,1.32s-5.739-.488-7.451-2.611a36.564,36.564,0,0,1-2.171-3.826,8.467,8.467,0,0,0-2.965-2.793,11.774,11.774,0,1,0,22,7.815C1079.751,624.774,1079.311,624.8,1078.871,624.85Z" transform="translate(-289.732 -182.048)" opacity="0.1"/><path d="M1082.809,660.706a11.784,11.784,0,0,1-11.2-16.8,8.71,8.71,0,0,1,2.372,2.362,37.745,37.745,0,0,0,2.334,3.893c1.827,2.162,4.964,2.87,7.8,2.736s5.586-.956,8.417-1.2c.392,0,.794-.067,1.186-.076A11.775,11.775,0,0,1,1082.809,660.706Z" transform="translate(-290.323 -183.221)" opacity="0.1"/><path d="M1052.929,680.6a11.765,11.765,0,0,1-11.3-16.6,9.713,9.713,0,0,1,2.487,2.391c.957,1.291,1.483,2.783,2.554,3.97,1.99,2.219,5.328,2.994,8.341,2.927s5.739-.784,8.609-1A11.774,11.774,0,0,1,1052.929,680.6Z" transform="translate(-289.023 -184.095)" opacity="0.1"/><path d="M1058.561,704.825a11.784,11.784,0,0,1-21.473-9.565,11.543,11.543,0,0,1,2.583,2.305c1.129,1.368,1.913,2.87,3.156,4.19,2.41,2.362,6.294,3.328,9.756,3.424A51.546,51.546,0,0,0,1058.561,704.825Z" transform="translate(-288.84 -185.455)" opacity="0.1"/><path d="M524.168,586.689a9.383,9.383,0,0,0-3.74-7.576,11,11,0,0,0-9.192-10.789,10.981,10.981,0,0,0-7.317-8.178h0a9.34,9.34,0,0,0-1.358-.316h-1.616a10.77,10.77,0,0,0-10.407,9.2c-3.357-.775-6.428.23-6.992,2.353a2.87,2.87,0,0,0,.1,1.7c.574,1.645,2.439,3.223,4.936,4l.325.1.488.124h.105a8.455,8.455,0,0,0-.8,3.625,8.36,8.36,0,0,0,4.505,7.461l-.22.134a2.985,2.985,0,0,0-.727,1.014,15.17,15.17,0,0,0-1.406,3.386c-.239,1.014-.277,2.066-.574,3.07-.555,1.846-1.97,3.405-2.133,5.328-.077.861.067,1.913-.545,2.468a2.975,2.975,0,0,1-.488.344,3.952,3.952,0,0,0-1.062,1.119,3.716,3.716,0,0,1-.746,1.071c-.555.411-1.464.373-1.731,1.014s.43,1.4.268,2.095-.756.832-1.186,1.224a4.257,4.257,0,0,0-1.023,1.913,6.275,6.275,0,0,1-5.165-1.32,9.645,9.645,0,0,1,.536,1.913,8.38,8.38,0,0,0-2.783-1.4,8.791,8.791,0,0,1-2.965-2.2l1.588-.22-7.011-10.7-2.076-.43,1.856,3.568a1.137,1.137,0,0,0-.631.756,3.239,3.239,0,0,0-.067,1.215,21.767,21.767,0,0,0,.478,2.87l.536,2.506c.048.229.105.469.172.7a6.593,6.593,0,0,0-2.076.229,18.066,18.066,0,0,0-4.314-1.023,2.393,2.393,0,0,0-.957,0,2.479,2.479,0,0,0-.909.737,29.425,29.425,0,0,0-3.2,4.515c-3.826,6.562-8.809,12.291-13.525,18.221-3.252,1.32-6.533,2.573-9.814,3.826l-7.059,2.7a10.7,10.7,0,0,1-4.381.956c-.67,0-1.5-.143-1.913.43a4.028,4.028,0,0,0-.43.957l-.727.076h0a8.356,8.356,0,0,0-1.693-3.118,1.071,1.071,0,0,0-.794.612c-.172.316-.277.66-.478.956-.373.555-1.033.823-1.5,1.291s-.765,1.2-1.282,1.674a5.07,5.07,0,0,1-2.4.956,15.154,15.154,0,0,0-3.759,1.425,6.052,6.052,0,0,1-1.387.641,5.214,5.214,0,0,1-1.636.057l-3.73-.277a2.95,2.95,0,0,0-1,.048,1.913,1.913,0,0,0-1.186,1.913,3.013,3.013,0,0,0,1.186,2.057,7.6,7.6,0,0,0,2.123,1.1,62.33,62.33,0,0,0,9.948,2.946v.756a16.979,16.979,0,0,0,7.652,1.817,1.187,1.187,0,0,0,.574-.105,1.262,1.262,0,0,0,.478-.746,30.771,30.771,0,0,0,1.492-7.327h0a3.828,3.828,0,0,0,1.349-.344c1.282-.354,2.563.526,3.893.67,1.636.182,3.147-.775,4.7-1.358l.67-.22a7.339,7.339,0,0,1-1.549,1.482c-.641.459-1.358.8-1.98,1.282a13.652,13.652,0,0,1-1.683,1.3,10.548,10.548,0,0,1-1.291.5,8.517,8.517,0,0,0-1.846.956,3.738,3.738,0,0,0-1.253,1.224,1.837,1.837,0,0,0-.105,1.722,1.817,1.817,0,0,0,1.234.861,5.058,5.058,0,0,0,1.521,0c2.028-.153,4.046-.335,6.064-.516a16.2,16.2,0,0,0,2.535-.364c.44-.105.88-.249,1.32-.373a11.786,11.786,0,0,1,2.305-.344,1.918,1.918,0,0,1,.67.067c.469.153.8.631,1.282.727a1.916,1.916,0,0,0,.956-.124,21.327,21.327,0,0,1,4.486-.478,1.852,1.852,0,0,0,1.741-.775c.306-.612-.249-1.6-.5-2.411a7.377,7.377,0,0,1-.21-1.588,9.939,9.939,0,0,0-1.11-3.769,9.84,9.84,0,0,1-.832-1.722,43.5,43.5,0,0,0,8.255-4.19,14.76,14.76,0,0,1,4.706-2.267,12.8,12.8,0,0,1,5.911.689,134.444,134.444,0,0,1,13.554,4.725c2.114.87,4.218,1.789,6.4,2.449a9.979,9.979,0,0,0,2.276,2.209,10.524,10.524,0,0,0,4.926,1.349,64.525,64.525,0,0,0,6.935.258,11.7,11.7,0,0,0,5.165-.956,5.3,5.3,0,0,0,1.081-.717,4.285,4.285,0,0,0,3.405-1.253,8.255,8.255,0,0,0,2.592-4.094c.564-2.181.134-4.783,1.473-6.523.354-.478.823-.861,1.176-1.339a3.769,3.769,0,0,0,.612-2.21.448.448,0,0,1,.057-.086,8.1,8.1,0,0,0,.574-2.2,12.57,12.57,0,0,1,.622-1.741,53.77,53.77,0,0,0,1.779-5.155,30.126,30.126,0,0,0,.823-3.539c.143-.956.23-1.913.306-2.87a17.821,17.821,0,0,1,.87-4.429,36.037,36.037,0,0,0,2.009-10.6v-.211a7.107,7.107,0,0,0,6.294-7.231,7.545,7.545,0,0,0-.66-3.089,9.565,9.565,0,0,0,1.282-4.821Zm-34.224,41.579c.105.373.23.737.354,1.1-.564-.545-1.109-1.11-1.674-1.664.22.076.45.143.66.229a3.558,3.558,0,0,1,.631.335Zm-2.707-1.837c-3.31-2.869-7.136-5.1-10.522-7.882,1.846.909,3.644,1.97,5.423,2.984q3.166,1.808,6.418,3.472a5.25,5.25,0,0,1-1.349,1.425Zm1.406-7.231.163-.163v1.138l-.89-.306a7.878,7.878,0,0,0,.7-.669Zm-29.107,7.748a27.384,27.384,0,0,0,3.52-5.022c1.31,2.286,3.443,3.941,5.251,5.863C465.391,627.417,462.464,627.1,459.537,626.948Z" transform="translate(-260.982 -179.564)" fill="url(#d)"/><path d="M415.35,438.25l2.085.421,7.107,10.512-3.128.421Z" transform="translate(-212.089 -18.72)" fill="#2f2e41"/><path d="M414.49,645.455a40.933,40.933,0,0,0,2.085,5.424,51.643,51.643,0,0,0,6.935-1.98,21.855,21.855,0,0,0-1.444-1.913,7.133,7.133,0,0,0-1.961-1.5,5.4,5.4,0,0,0-2.382,0C416.652,645.455,415.571,645.474,414.49,645.455Z" transform="translate(-261.789 -183.284)" fill="#fbbebe"/><path d="M419.3,648.121a4.323,4.323,0,0,1-2.372-2.7,8.686,8.686,0,0,0-1.808-3.223,1.033,1.033,0,0,0-.8.6c-.172.306-.277.65-.469.957-.383.545-1.052.813-1.53,1.272s-.765,1.177-1.282,1.645a5.086,5.086,0,0,1-2.42.957,15.689,15.689,0,0,0-3.826,1.406,6.6,6.6,0,0,1-1.406.631,5.554,5.554,0,0,1-1.645,0l-3.769-.268a2.945,2.945,0,0,0-.956,0,1.827,1.827,0,0,0-1.2,1.913,2.87,2.87,0,0,0,1.2,2.028,7.939,7.939,0,0,0,2.143,1.09,63.019,63.019,0,0,0,10.1,2.87v.746a17.486,17.486,0,0,0,7.7,1.789,1.3,1.3,0,0,0,.574-.1,1.262,1.262,0,0,0,.478-.746,29.84,29.84,0,0,0,1.578-8.188,6.526,6.526,0,0,0-.163-2.114c-.21-.679.5-.392-.153-.66" transform="translate(-260.977 -183.147)" fill="#333"/><path d="M492.556,633.4c-11.172.669-22.21-2.6-33.4-2.946a16.3,16.3,0,0,0-4.151.258,20.905,20.905,0,0,0-4.113,1.6c-6,2.793-12.2,5.108-18.4,7.413l-7.126,2.649a10.788,10.788,0,0,1-4.409.957c-.679,0-1.511-.144-1.913.421-1.157,1.722-.612,4.237.153,6.169.249.622.669,1.3,1.339,1.368a3.9,3.9,0,0,0,1.358-.344c1.291-.344,2.582.526,3.922.669,1.645.172,3.176-.765,4.735-1.339,2.583-.956,5.395-.956,8.111-1.377,4.543-.755,8.762-2.87,12.7-5.27a14.827,14.827,0,0,1,4.735-2.238,13.1,13.1,0,0,1,5.959.679,136.752,136.752,0,0,1,13.668,4.649,63.717,63.717,0,0,0,7.136,2.611,25.824,25.824,0,0,0,16-.957c1.789-.708,3.73-1.913,3.826-3.883.067-1.1-.794-2.066-1.358-3.013-.364-.6-.737-1.205-1.129-1.789C498.286,636.915,495.952,633.2,492.556,633.4Z" transform="translate(-261.958 -182.635)" fill="#2f2e41"/><path d="M492.556,633.4c-11.172.669-22.21-2.6-33.4-2.946a16.3,16.3,0,0,0-4.151.258,20.905,20.905,0,0,0-4.113,1.6c-6,2.793-12.2,5.108-18.4,7.413l-7.126,2.649a10.788,10.788,0,0,1-4.409.957c-.679,0-1.511-.144-1.913.421-1.157,1.722-.612,4.237.153,6.169.249.622.669,1.3,1.339,1.368a3.9,3.9,0,0,0,1.358-.344c1.291-.344,2.582.526,3.922.669,1.645.172,3.176-.765,4.735-1.339,2.583-.956,5.395-.956,8.111-1.377,4.543-.755,8.762-2.87,12.7-5.27a14.827,14.827,0,0,1,4.735-2.238,13.1,13.1,0,0,1,5.959.679,136.752,136.752,0,0,1,13.668,4.649,63.717,63.717,0,0,0,7.136,2.611,25.824,25.824,0,0,0,16-.957c1.789-.708,3.73-1.913,3.826-3.883.067-1.1-.794-2.066-1.358-3.013-.364-.6-.737-1.205-1.129-1.789C498.286,636.915,495.952,633.2,492.556,633.4Z" transform="translate(-261.958 -182.635)" fill="#333" opacity="0.1"/><path d="M436.92,645.789q2.621.889,5.289,1.645c.956-1.636,2.87-2.774,3.281-4.649a.439.439,0,0,0,0-.249.459.459,0,0,0-.2-.182,10.021,10.021,0,0,0-4.151-1.215c-1.148-.067-1.674,1.129-2.19,1.97C438.747,643.483,437.389,645.97,436.92,645.789Z" transform="translate(-262.765 -183.101)" fill="#fbbebe"/><path d="M438.694,644.659a3.826,3.826,0,0,1-2.573-1.693c-.239-.43-.507-1.014-1-.957s-.66.574-.765,1.023A28.7,28.7,0,0,1,432.908,648a9.317,9.317,0,0,1-3.09,4.065c-.65.449-1.368.784-2.009,1.263a13.8,13.8,0,0,1-1.693,1.282,10.072,10.072,0,0,1-1.3.478,9,9,0,0,0-1.856.957,3.681,3.681,0,0,0-1.272,1.215,1.75,1.75,0,0,0-.1,1.693,1.808,1.808,0,0,0,1.234.842,5.2,5.2,0,0,0,1.54,0c2.037-.144,4.075-.325,6.112-.507a17.61,17.61,0,0,0,2.554-.354l1.33-.363a10.579,10.579,0,0,1,2.324-.344,1.805,1.805,0,0,1,.679.067c.469.153.8.622,1.291.717a2.16,2.16,0,0,0,.957-.124,21.119,21.119,0,0,1,4.524-.469,1.909,1.909,0,0,0,1.76-.765c.383-.746-.249-1.578-.507-2.382a7.652,7.652,0,0,1-.211-1.559A9.508,9.508,0,0,0,444.06,650c-.517-.956-1.224-2.009-.861-3.023a2.872,2.872,0,0,0,.344-1.043C443.4,644.286,439.632,644.87,438.694,644.659Z" transform="translate(-262.091 -183.138)" fill="#333"/><path d="M477.992,614.353a8.724,8.724,0,0,1-4.457-4.419c-.182-.421-.335-.87-.516-1.291a9.815,9.815,0,0,0-2.659-3.7,1.31,1.31,0,0,0-.956-.411,1.042,1.042,0,0,0-.717.775,2.956,2.956,0,0,0-.076,1.2,21.3,21.3,0,0,0,.478,2.793l.545,2.468a5.414,5.414,0,0,0,.335,1.1,3.827,3.827,0,0,0,.909,1.081c.5.459,1,.9,1.511,1.339a5.194,5.194,0,0,0,.956.66,5.557,5.557,0,0,0,1.693.5,14.407,14.407,0,0,1,6.351,2.449s0-1.655,0-1.837a2.429,2.429,0,0,0-.478-1.329A8.481,8.481,0,0,0,477.992,614.353Z" transform="translate(-264.142 -181.508)" fill="#fbbebe"/><path d="M477.992,614.353a8.724,8.724,0,0,1-4.457-4.419c-.182-.421-.335-.87-.516-1.291a9.815,9.815,0,0,0-2.659-3.7,1.31,1.31,0,0,0-.956-.411,1.042,1.042,0,0,0-.717.775,2.956,2.956,0,0,0-.076,1.2,21.3,21.3,0,0,0,.478,2.793l.545,2.468a5.414,5.414,0,0,0,.335,1.1,3.827,3.827,0,0,0,.909,1.081c.5.459,1,.9,1.511,1.339a5.194,5.194,0,0,0,.956.66,5.557,5.557,0,0,0,1.693.5,14.407,14.407,0,0,1,6.351,2.449s0-1.655,0-1.837a2.429,2.429,0,0,0-.478-1.329A8.481,8.481,0,0,0,477.992,614.353Z" transform="translate(-264.142 -181.508)" opacity="0.1"/><ellipse cx="2.716" cy="2.736" rx="2.716" ry="2.736" transform="translate(233.879 408.492)" fill="#2f2e41"/><path d="M499.585,590.476a2.937,2.937,0,0,0-2.143.306,2.979,2.979,0,0,0-.736,1,14.585,14.585,0,0,0-1.416,3.329c-.239.957-.277,2.037-.583,3.022-.555,1.817-1.98,3.358-2.143,5.251-.076.851.067,1.846-.555,2.42a3.526,3.526,0,0,1-.488.354,3.67,3.67,0,0,0-1.071,1.1,3.609,3.609,0,0,1-.756,1.042c-.555.411-1.473.373-1.741.956s.43,1.377.268,2.066-.765.823-1.2,1.205a4.179,4.179,0,0,0-1.033,1.913,6.38,6.38,0,0,1-5.2-1.291,16.567,16.567,0,0,1,.813,5.95,2.43,2.43,0,0,1-.478,1.836,33.11,33.11,0,0,1,6.38,1.109,4.4,4.4,0,0,0,2.783,0,4.652,4.652,0,0,0,1.282-1.014c1.148-1.167,2.353-2.439,2.63-4.056a23.8,23.8,0,0,0,.048-2.745,15.474,15.474,0,0,1,.7-3.338,39.729,39.729,0,0,0,1.215-6.868c.124-1.435,1.368-2.583,2.018-3.826,1.224-2.42,2.487-4.935,2.573-7.652C500.791,591.672,500.484,590.572,499.585,590.476Z" transform="translate(-264.673 -180.894)" fill="#333"/><path d="M499.585,590.476a2.937,2.937,0,0,0-2.143.306,2.979,2.979,0,0,0-.736,1,14.585,14.585,0,0,0-1.416,3.329c-.239.957-.277,2.037-.583,3.022-.555,1.817-1.98,3.358-2.143,5.251-.076.851.067,1.846-.555,2.42a3.526,3.526,0,0,1-.488.354,3.67,3.67,0,0,0-1.071,1.1,3.609,3.609,0,0,1-.756,1.042c-.555.411-1.473.373-1.741.956s.43,1.377.268,2.066-.765.823-1.2,1.205a4.179,4.179,0,0,0-1.033,1.913,6.38,6.38,0,0,1-5.2-1.291,16.567,16.567,0,0,1,.813,5.95,2.43,2.43,0,0,1-.478,1.836,33.11,33.11,0,0,1,6.38,1.109,4.4,4.4,0,0,0,2.783,0,4.652,4.652,0,0,0,1.282-1.014c1.148-1.167,2.353-2.439,2.63-4.056a23.8,23.8,0,0,0,.048-2.745,15.474,15.474,0,0,1,.7-3.338,39.729,39.729,0,0,0,1.215-6.868c.124-1.435,1.368-2.583,2.018-3.826,1.224-2.42,2.487-4.935,2.573-7.652C500.791,591.672,500.484,590.572,499.585,590.476Z" transform="translate(-264.673 -180.894)" fill="#333" opacity="0.1"/><path d="M495.243,634.954c-2.324-1.11-4.027-3.166-5.911-4.936-3.587-3.376-7.977-5.739-11.755-8.924-2.506-2.095-4.783-4.534-7.489-6.294a18.715,18.715,0,0,0-8.025-2.8,2.13,2.13,0,0,0-.956,0,2.2,2.2,0,0,0-.909.717,28.9,28.9,0,0,0-3.243,4.448c-4.783,8.13-11.583,14.96-17.217,22.516a1.437,1.437,0,0,0-.277.536,1.331,1.331,0,0,0,.21.832l1.148,2.238c.641,1.263,1.674,2.726,3.051,2.477a3.338,3.338,0,0,0,1.6-1.023l5.146-4.926,5.395-5.155c3.156-3.013,6.37-6.1,8.436-9.967,1.607,2.793,4.467,4.62,6.418,7.174.746.956,1.358,2.037,2.028,3.07,1.062,1.645,2.277,3.195,3.482,4.783l6.188,7.891a11.839,11.839,0,0,0,2.87,2.87,10.953,10.953,0,0,0,4.964,1.329,65.529,65.529,0,0,0,6.992.249,12.052,12.052,0,0,0,5.213-.957,4.725,4.725,0,0,0,2.822-4.2,6.159,6.159,0,0,0-.89-2.611C502.292,640.3,499.4,636.934,495.243,634.954Z" transform="translate(-262.875 -181.831)" fill="#333"/><ellipse cx="2.095" cy="2.104" rx="2.095" ry="2.104" transform="translate(236.175 411.018)" fill="#e8e8f0"/><path d="M503.34,592.231a4.027,4.027,0,0,1,.23,3.022,12.263,12.263,0,0,1-1.349,2.784,13.247,13.247,0,0,1-1.75,2.487c3.233.153,6.361-1.109,9.2-2.64,2.3-1.234,4.582-2.755,5.806-5.06a2.678,2.678,0,0,1-2.143-.4A7.652,7.652,0,0,1,511.7,590.9l-1.616-1.817a7.269,7.269,0,0,1-.957-1.31,3.615,3.615,0,0,1-.43-2.114,12.315,12.315,0,0,1-2.143,1.779c-1.157.755-2.429,1.3-3.6,2.047-.4.268-1.32.689-1.081,1.224S503.014,591.657,503.34,592.231Z" transform="translate(-265.529 -180.688)" fill="#fbbebe"/><path d="M503.34,592.231a4.027,4.027,0,0,1,.23,3.022,12.263,12.263,0,0,1-1.349,2.784,13.247,13.247,0,0,1-1.75,2.487c3.233.153,6.361-1.109,9.2-2.64,2.3-1.234,4.582-2.755,5.806-5.06a2.678,2.678,0,0,1-2.143-.4A7.652,7.652,0,0,1,511.7,590.9l-1.616-1.817a7.269,7.269,0,0,1-.957-1.31,3.615,3.615,0,0,1-.43-2.114,12.315,12.315,0,0,1-2.143,1.779c-1.157.755-2.429,1.3-3.6,2.047-.4.268-1.32.689-1.081,1.224S503.014,591.657,503.34,592.231Z" transform="translate(-265.529 -180.688)" opacity="0.1"/><path d="M502.931,592.845a2.726,2.726,0,0,0,0,3.156c.1.115.44.832.583.842a.526.526,0,0,0,.363-.191,24.006,24.006,0,0,0,2.047-2.439,4.553,4.553,0,0,1,2.6-1.7,5.624,5.624,0,0,1,3.587,1.119,3.406,3.406,0,0,1,1.234.956,3.34,3.34,0,0,1,.4,1.368,65.885,65.885,0,0,1,.364,8.695,34.263,34.263,0,0,1-.411,6.265c-.21,1.062-.517,2.1-.66,3.185a20.292,20.292,0,0,0-.134,2.869v4a10.511,10.511,0,0,0,.153,2.19c.191.87.6,1.683.88,2.535a16.584,16.584,0,0,1,.583,2.994l.545,4.132a5.224,5.224,0,0,1-.488,3.826c-.354.469-.823.851-1.186,1.32-1.349,1.76-.956,4.276-1.483,6.428a8.015,8.015,0,0,1-2.621,4.017,4.333,4.333,0,0,1-3.453,1.234c-1.683-.316-2.688-2.066-3.147-3.721s-.622-3.453-1.616-4.849a12.866,12.866,0,0,0-3.195-2.669,5.518,5.518,0,0,1-2.5-3.242c-.105-.6,0-1.224-.105-1.836a4.333,4.333,0,0,0-2.669-3.51c-.861-.335-1.913-.459-2.41-1.243a5.806,5.806,0,0,0,2.516-3.377,17.343,17.343,0,0,0,.612-4.266l.287-4.782a15.973,15.973,0,0,1,1.138-6.208c.421-.861.956-1.674,1.387-2.525a27.421,27.421,0,0,0,1.482-3.7c.689-1.971,1.377-3.941,1.99-5.93a11.177,11.177,0,0,1,1.09-2.765C501.219,594.117,501.965,593.036,502.931,592.845Z" transform="translate(-265.083 -180.985)" fill="#e8e8f0"/><path d="M492.354,624.026h1.272l.268-1.913a3.981,3.981,0,0,1,.268-1.119,6.692,6.692,0,0,1,.737-1.071c1.243-1.77,1.157-4.113,1.463-6.265a31.876,31.876,0,0,1,2.793-8.188l2.468-5.5a7.586,7.586,0,0,0,.536-1.406,8.43,8.43,0,0,0,.153-1.626c0-.851.268-3.95.3-4.782,0-.316-.7-.144-.842-.421-.306-.612-.727,1.043-1.31,1.406a3.214,3.214,0,0,0-1.138,1.664c-.536,1.377-.861,2.87-1.358,4.237a8.657,8.657,0,0,1-2.305,3.749c-.507.44-1.09.794-1.569,1.272-1.53,1.511-1.683,3.912-1.731,6.074C492.316,611.457,492.067,624.026,492.354,624.026Z" transform="translate(-265.17 -180.946)" fill="#333"/><path d="M510.972,590.464a4.343,4.343,0,0,0-2.267,3.109,15.729,15.729,0,0,1-1.148,3.826c-1.55,2.7-5.5,3.482-6.6,6.4a11.767,11.767,0,0,0-.44,3.013c-.191,2.095-.88,4.113-1.09,6.2a27.6,27.6,0,0,0,.115,4.869l1.387,16.471a22,22,0,0,1-.411,7.25,6.984,6.984,0,0,0,4.151-.689c1.291-.593,2.477-1.406,3.73-2.095,2.143-1.186,4.515-2.018,6.4-3.6a3.913,3.913,0,0,0,.861-.956,8.273,8.273,0,0,0,.574-2.162,11.674,11.674,0,0,1,.622-1.7,50.129,50.129,0,0,0,1.8-5.089,29.249,29.249,0,0,0,.823-3.482c.153-.956.239-1.913.315-2.87a16.841,16.841,0,0,1,.88-4.352,35.059,35.059,0,0,0,2.018-10.445,5.454,5.454,0,0,0-.105-1.53,8.194,8.194,0,0,0-.842-1.75c-.574-1.081-.957-2.267-1.454-3.367a16.558,16.558,0,0,0-5.653-5.94C513.526,590.818,512.225,590.015,510.972,590.464Z" transform="translate(-265.481 -180.891)" fill="#333"/><path d="M480.609,618.317a9.974,9.974,0,0,1-2.63-2c-.344-.4-.631-.851-.956-1.253a6.514,6.514,0,0,0-3.31-1.913,16.166,16.166,0,0,0-3.826-.373,6.943,6.943,0,0,0-2.554.306,2.6,2.6,0,0,0-1.693,1.818,3.013,3.013,0,0,0,1.291,2.678,6.088,6.088,0,0,0,2.573,1.243,20.583,20.583,0,0,0,2.324.277c4.572.478,8.656,2.965,12.664,5.232q5.28,3,10.77,5.586a22.389,22.389,0,0,0,.182-3.3c0-.823-.067-2.085-.842-2.573a16.9,16.9,0,0,0-3.424-1.023,53.883,53.883,0,0,1-6.9-2.793A34.325,34.325,0,0,1,480.609,618.317Z" transform="translate(-264.014 -181.867)" fill="#fbbebe"/><ellipse cx="8.149" cy="8.197" rx="8.149" ry="8.197" transform="translate(228.446 394.212)" fill="#fbbebe"/><path d="M513.016,600.133a13.062,13.062,0,0,0-1.578,2.956c-.956,2.066-2.583,3.826-3.376,6.016s-.8,5-2.439,6.791a2.382,2.382,0,0,0-.717,1.033,4.919,4.919,0,0,1-.077.746c-.239.65-1.3.679-1.5,1.349-.057.191,0,.4-.1.593-.163.431-.736.5-1.11.756-.794.536-.631,1.779-1.2,2.554a2.152,2.152,0,0,1-2.037.717,7.174,7.174,0,0,1-2.114-.794,2.038,2.038,0,0,0-.765-.239,1.578,1.578,0,0,0-.88.306,5.423,5.423,0,0,0-2.2,4.639,15.154,15.154,0,0,0,1.263,5.194,2.086,2.086,0,0,0,.411.775,1.827,1.827,0,0,0,2.028.153,9.562,9.562,0,0,1,1.98-.89c1.263-.23,2.5.641,3.778.565a5.252,5.252,0,0,0,2.544-1.119,14.066,14.066,0,0,0,3.424-2.87c.555-.737.957-1.569,1.454-2.353a30.193,30.193,0,0,1,2.057-2.745l4.706-5.739a13.217,13.217,0,0,0,1.263-1.741,12.269,12.269,0,0,0,.957-2.63,20.152,20.152,0,0,0,.956-4.677,17.97,17.97,0,0,0-.344-3.922,13.863,13.863,0,0,0-.956-3.74C517.426,599.655,514.939,597.894,513.016,600.133Z" transform="translate(-265.201 -181.272)" fill="#333"/><path d="M529.184,587.791a9.182,9.182,0,0,0-3.769-7.461,10.913,10.913,0,0,0-9.268-10.627,10.588,10.588,0,0,0-20.861.564c-3.386-.765-6.485.23-7.049,2.315s1.827,4.782,5.395,5.739a10.05,10.05,0,0,0,3.463.344,10.6,10.6,0,0,0,7.288,4.543,10.875,10.875,0,0,0,7.958,8.207,9.135,9.135,0,0,0,2.458,3.4v.794a6.9,6.9,0,1,0,13.793,0,7.362,7.362,0,0,0-.66-3.051A9.218,9.218,0,0,0,529.184,587.791Z" transform="translate(-264.994 -179.623)" fill="#333"/><path d="M490.532,573.022c.564-2.085,3.663-3.08,7.049-2.315A10.77,10.77,0,0,1,508.1,561.64h.7a10.369,10.369,0,0,0-3-.45,10.77,10.77,0,0,0-10.522,9.068c-3.386-.765-6.485.23-7.049,2.315s1.827,4.782,5.395,5.739a10.519,10.519,0,0,0,2.047.354C492.253,577.642,489.967,575.155,490.532,573.022Z" transform="translate(-264.993 -179.623)" opacity="0.1"/><path d="M517.472,596.818a7.127,7.127,0,0,1,0-.785,8.932,8.932,0,0,1-2.458-3.4,10.848,10.848,0,0,1-7.958-8.216,10.568,10.568,0,0,1-7.3-4.534,9.185,9.185,0,0,1-2.037-.057,10.628,10.628,0,0,0,7.03,4.18,10.876,10.876,0,0,0,7.958,8.207,9.132,9.132,0,0,0,2.458,3.4v.794a7.021,7.021,0,0,0,6.858,7.135A7.135,7.135,0,0,1,517.472,596.818Z" transform="translate(-265.41 -180.434)" opacity="0.1"/><ellipse cx="1.253" cy="1.674" rx="1.253" ry="1.674" transform="matrix(0.796, -0.605, 0.605, 0.796, 237.312, 403.509)" fill="#fbbebe"/></g></svg>