<svg xmlns="http://www.w3.org/2000/svg" xmlns:xlink="http://www.w3.org/1999/xlink" width="1410.795" height="1254.164" viewBox="0 0 1410.795 1254.164"><defs><linearGradient id="a" x1="0.5" y1="1" x2="0.5" gradientUnits="objectBoundingBox"><stop offset="0" stop-color="gray" stop-opacity="0.251"/><stop offset="0.54" stop-color="gray" stop-opacity="0.122"/><stop offset="1" stop-color="gray" stop-opacity="0.102"/></linearGradient><linearGradient id="b" x1="0.5" x2="0.5" y2="1" gradientUnits="objectBoundingBox"><stop offset="0" stop-color="#e0e0e0"/><stop offset="0.31" stop-color="#fccc63"/><stop offset="0.77" stop-color="#f55f44"/></linearGradient><linearGradient id="c" x1="0.5" y1="0" x2="0.5" y2="1" xlink:href="#b"/><linearGradient id="f" x1="0.5" x2="0.5" y2="0" xlink:href="#a"/><linearGradient id="g" x1="0.5" x2="0.5" y2="1" gradientUnits="objectBoundingBox"><stop offset="0" stop-color="#f2f2f2"/><stop offset="0.31" stop-color="#e6e6e6"/><stop offset="0.77" stop-color="#ccc"/></linearGradient><linearGradient id="k" x1="0.5" y1="0.001" x2="0.5" y2="1" xlink:href="#g"/><linearGradient id="l" x1="0.5" y1="0" x2="0.5" y2="1" xlink:href="#g"/><linearGradient id="m" x1="0.5" y1="0" x2="0.5" y2="1" xlink:href="#g"/><linearGradient id="n" x1="0.5" y1="0" x2="0.5" y2="1" xlink:href="#g"/><linearGradient id="o" x1="0.5" y1="0" x2="0.5" y2="1" xlink:href="#g"/><linearGradient id="r" x1="0.5" x2="0.5" y2="0" xlink:href="#a"/><linearGradient id="s" x1="0.5" x2="0.5" y2="1" gradientUnits="objectBoundingBox"><stop offset="0" stop-color="#f2f2f2"/><stop offset="0.31" stop-color="#e0e0e0"/><stop offset="0.77" stop-color="#b3b3b3"/></linearGradient><linearGradient id="u" x1="0.5" y1="0" x2="0.5" y2="1" xlink:href="#g"/><linearGradient id="v" x1="0.5" y1="0.999" x2="0.5" y2="-0.001" xlink:href="#a"/><linearGradient id="x" x1="0.501" y1="1.001" x2="0.501" y2="0.001" xlink:href="#a"/></defs><g transform="translate(0 79.95)"><g transform="translate(460.027 73.197)" opacity="0.7"><path d="M870.5,568.317a229.6,229.6,0,0,0-25.923-106.742c-8.143-15.478-15.569-25.1-21.349-31a15.249,15.249,0,0,0-17.384-3.431,15.674,15.674,0,0,0-6.1,3.934c-7.731,8.006-14.715,18.588-20.815,29.857a230.487,230.487,0,0,0-27.25,109.67v22.965h-14.73V326.714c0-55.933-12.519-111.119-37.039-160.113-11.62-23.194-22.218-37.6-30.376-46.463a21.059,21.059,0,0,0-31.657,0c-11.04,12-21,27.86-29.7,44.725-25.786,50-38.885,106.742-38.885,164.337v264.37H556.553V569.507a230.486,230.486,0,0,0-27.25-109.67c-6.1-11.254-13.083-21.836-20.815-29.857a15.249,15.249,0,0,0-17.689-3.233l.534.29a15.721,15.721,0,0,0-4.971,3.477c-5.718,5.9-13.145,15.523-21.348,31A229.6,229.6,0,0,0,439.09,568.256V967.228h45.442l-4.956,32.8v98.065h37.146v-98.065l-4.956-32.8h44.786V603.893h12.733V965.6h36.292l-5.215,34.417v98.081h37.161v-98.065l-5.215-34.417h48.9L676,1000.028v98.065h37.161v-98.065l-5.215-34.417h28.973V603.893h14.73V967.777h11.94v-.549h39.479l-4.956,32.8v98.065h37.161v-98.065l-4.956-32.8H870.5Z" transform="translate(-439.089 -112.969)" fill="url(#a)"/></g><path d="M369.549,631.9H334.37l6.283-42.712h22.614Z" transform="translate(175.506 309.232)" fill="#535461"/><g transform="translate(514.405 903.439)" opacity="0.1"><path d="M337.34,604.42h26.121l-1.754-11.94H339.094Z" transform="translate(-337.34 -592.48)"/></g><path d="M567.309,631.9H532.13l6.283-42.712h22.614Z" transform="translate(279.308 309.232)" fill="#535461"/><g transform="translate(815.967 903.439)" opacity="0.1"><path d="M535.1,604.42h26.121l-1.754-11.94H536.854Z" transform="translate(-535.1 -592.48)"/></g><path d="M444.544,631.9H409.35l6.283-42.712h22.629Z" transform="translate(214.863 309.232)" fill="#535461"/><g transform="translate(628.741 903.439)" opacity="0.1"><path d="M412.32,604.42h26.137L436.7,592.48H414.074Z" transform="translate(-412.32 -592.48)"/></g><path d="M491.5,631.9H456.32L462.6,589.19h22.614Z" transform="translate(239.516 309.232)" fill="#535461"/><g transform="translate(700.365 903.439)" opacity="0.1"><path d="M459.29,604.42h26.137l-1.769-11.94H461.044Z" transform="translate(-459.29 -592.48)"/></g><rect width="251.301" height="10.049" transform="translate(545.056 545.334)" fill="#535461"/><path d="M708.016,320.062a14.166,14.166,0,0,0-21,0c-7.319,7.792-13.922,18.1-19.7,29.064a229.618,229.618,0,0,0-25.786,106.742V842.718h111.21V454.268a228.733,228.733,0,0,0-24.566-104.013C720.459,335.189,713.429,325.811,708.016,320.062Z" transform="translate(127.195 66.485)" fill="#e0e0e0"/><path d="M491.406,320.062a14.166,14.166,0,0,1,21,0c7.319,7.792,13.922,18.1,19.7,29.064a229.618,229.618,0,0,1,25.786,106.742V842.718H446.651V454.268a228.733,228.733,0,0,1,24.566-104.013C478.917,335.189,485.947,325.811,491.406,320.062Z" transform="translate(24.905 66.486)" fill="#e0e0e0"/><path d="M309.65,346.93l26.381.122v32.541H309.65Z" transform="translate(162.531 182.073)" fill="#535461"/><path d="M364.86,346.93l26.381.122v32.541H364.86Z" transform="translate(191.51 182.073)" fill="#535461"/><path d="M504.11,346.93l26.4.122v32.541h-26.4Z" transform="translate(264.601 182.073)" fill="#535461"/><path d="M559.32,346.93l26.4.122v32.541h-26.4Z" transform="translate(293.58 182.073)" fill="#535461"/><g transform="translate(520.49 381.401)" opacity="0.1"><path d="M515.215,348.793c-5.764-10.964-12.382-21.272-19.7-29.064a14.121,14.121,0,0,0-16.774-3.157,14.99,14.99,0,0,1,4.239,3.156c7.319,7.792,13.922,18.1,19.7,29.064a229.617,229.617,0,0,1,25.786,106.742V842.353h12.565V455.581a229.617,229.617,0,0,0-25.816-106.788Z" transform="translate(-478.74 -315.085)"/></g><g transform="translate(767.428 382.448)" opacity="0.1"><path d="M677.766,349.5c5.764-10.964,12.382-21.272,19.7-29.064a14.942,14.942,0,0,1,4.864-3.477,14.136,14.136,0,0,0-16.163,3.477c-7.32,7.792-13.922,18.1-19.7,29.064a229.616,229.616,0,0,0-25.786,106.742V843.06H652V456.3a229.62,229.62,0,0,1,25.771-106.8Z" transform="translate(-640.678 -315.771)"/></g><rect width="35.179" height="95.488" transform="translate(509.876 941.134)" fill="url(#b)"/><rect width="35.179" height="95.488" transform="translate(624.212 941.134)" fill="url(#c)"/><rect width="35.179" height="95.488" transform="translate(695.836 941.134)" fill="url(#c)"/><rect width="35.179" height="95.488" transform="translate(811.438 941.134)" fill="url(#c)"/><path d="M622.364,121.961a19.58,19.58,0,0,0-29.964,0c-10.445,11.681-19.823,27.128-28.119,43.566-24.4,48.7-36.811,103.982-36.811,160.037V946.33H686.2V323.063c0-54.469-11.848-108.267-35.072-155.859C640.129,144.62,630.095,130.591,622.364,121.961Z" transform="translate(67.327 -38.713)" fill="#eee"/><rect width="82.817" height="37.954" rx="11" transform="translate(631.654 152.203)" fill="#e95841"/><g transform="translate(207.529 888.713)" opacity="0.7"><path d="M1109.9,785.252h0a126.566,126.566,0,0,0-251.423,21.455v1.86h0a116.809,116.809,0,0,0-13.877,2.974,115.647,115.647,0,0,0-217.449-19.686,114.357,114.357,0,0,0-31.9-7.289h0a125.62,125.62,0,0,0-8.707-28.744,115.586,115.586,0,0,0-230.441-3.05,125.727,125.727,0,0,0-11.315,40.211h0a115.708,115.708,0,0,0-66.317,140.29h926.491A115.678,115.678,0,0,0,1109.9,785.252Z" transform="translate(-273.505 -647.773)" fill="url(#f)"/></g><circle cx="111.058" cy="111.058" r="111.058" transform="translate(304.794 894.351)" fill="url(#g)"/><circle cx="121.61" cy="121.61" r="121.61" transform="translate(293.693 925.443)" fill="url(#g)"/><circle cx="121.61" cy="121.61" r="121.61" transform="translate(787.909 925.443)" fill="url(#g)"/><circle cx="111.058" cy="111.058" r="111.058" transform="translate(792.346 946.547)" fill="url(#g)"/><path d="M724.045,810.644a110.858,110.858,0,0,1-45.93,89.968H547.844A111.1,111.1,0,1,1,724.03,810.644Z" transform="translate(53.861 268.066)" fill="url(#k)"/><path d="M631.518,848.468a110.553,110.553,0,0,1-4.758,32.206H414.145V880.6A111.058,111.058,0,0,1,519.789,737.41h.686q4.666,0,9.256.381a109.9,109.9,0,0,1,30.635,7A111.088,111.088,0,0,1,631.518,848.468Z" transform="translate(5.351 287.989)" fill="url(#l)"/><path d="M814.33,863.027q0,4.986-.442,9.866a.277.277,0,0,1,0,.137H592.657c-.3-3.294-.457-6.633-.457-9.988A110.951,110.951,0,0,1,686.621,753.25,112.489,112.489,0,0,1,703.212,752c2.836,0,5.657.107,8.448.305a111.149,111.149,0,0,1,92.866,65.174c.458,1.006.9,2.028,1.311,3.05a110.523,110.523,0,0,1,8.494,42.5Z" transform="translate(101.303 295.647)" fill="url(#m)"/><path d="M951.959,848.462a110.557,110.557,0,0,1-4.758,32.206H734.632A111.761,111.761,0,0,1,731.78,828c.183-.961.366-1.937.579-2.882a111.1,111.1,0,0,1,108.6-87.7c3.492,0,6.923.152,10.323.488,1.525.122,3.05.305,4.575.5A111.073,111.073,0,0,1,951.959,848.462Z" transform="translate(173.575 287.995)" fill="url(#n)"/><path d="M502.953,880.708c.366-1.159.686-2.318,1.006-3.492A111.134,111.134,0,0,0,367.04,741.379a105.941,105.941,0,0,0-12.977,4.483,111.164,111.164,0,0,0-63.71,134.8h212.6Z" transform="translate(-59.638 287.97)" fill="url(#o)"/><g transform="translate(1062.953 899.52)" opacity="0.7"><circle cx="20.372" cy="20.372" r="20.372" fill="url(#a)"/></g><circle cx="18.878" cy="18.878" r="18.878" transform="translate(1064.447 901.014)" fill="url(#g)"/><g transform="translate(1154.4 1094.248)" opacity="0.7"><circle cx="22.218" cy="22.218" r="22.218" fill="url(#r)"/></g><circle cx="21.104" cy="21.104" r="21.104" transform="translate(1155.514 1095.361)" fill="url(#s)"/><g transform="translate(201.529 965.441)" opacity="0.7"><circle cx="24.413" cy="24.413" r="24.413" fill="url(#a)"/></g><circle cx="23.316" cy="23.316" r="23.316" transform="translate(202.627 966.539)" fill="url(#u)"/><g transform="translate(2.613 -80)"><g transform="translate(1025.387 0.05)" opacity="0.4"><path d="M930.136,91.564h0A67.6,67.6,0,0,0,910.19,73.905h0a66.973,66.973,0,1,0-33.547,125.041c1.418,0,2.836,0,4.239-.137A66.958,66.958,0,0,0,930.105,91.64Z" transform="translate(-809.845 -65)" fill="url(#v)"/></g><path d="M938.744,130.653a63.3,63.3,0,0,1-59.293,63.176c-1.321.091-2.663.137-4.005.137A63.3,63.3,0,1,1,907.1,75.833h0a63.892,63.892,0,0,1,18.863,16.7h0A62.978,62.978,0,0,1,938.744,130.653Z" transform="translate(216.769 -63.706)" fill="#fff" opacity="0.2"/><path d="M848.785,82.722a68.911,68.911,0,0,0-9.439,4.971,14.943,14.943,0,0,0-5.047,4.575,5.947,5.947,0,0,0-.122,6.45c1.525,2.1,4.575,2.44,7.121,2.577a13.511,13.511,0,0,0,12.931-4.27l5.444-4.941c1.891-1.708,3.965-4.071,3.141-6.481-.625-1.845-2.7-2.745-4.575-3.05a19.2,19.2,0,0,0-13.617,2.394" transform="translate(227.846 -55.925)" fill="#f55f44" opacity="0.05"/><circle cx="3.324" cy="3.324" r="3.324" transform="translate(1050.571 88.616)" fill="#f55f44" opacity="0.05"/><circle cx="12.214" cy="12.214" r="12.214" transform="translate(1109.432 58.621)" fill="#f55f44" opacity="0.05"/><path d="M898.284,89.634h0A16.667,16.667,0,1,1,879.421,72.86h0a63.893,63.893,0,0,1,18.863,16.774Z" transform="translate(244.467 -60.824)" fill="#f55f44" opacity="0.05"/><path d="M904.086,134.813a63.145,63.145,0,0,1-47.744,26.716c-.076-.869-.122-1.754-.122-2.638a29.994,29.994,0,0,1,47.866-24.078Z" transform="translate(239.884 -31.406)" fill="#f55f44" opacity="0.05"/></g><circle cx="7.777" cy="7.777" r="7.777" transform="translate(1094.427 517.856)" fill="#535461" opacity="0.25"/><circle cx="7.777" cy="7.777" r="7.777" transform="translate(57.503 722.191)" fill="#535461" opacity="0.25"/><circle cx="7.777" cy="7.777" r="7.777" transform="translate(1394.829 766.413)" fill="#535461" opacity="0.25"/><circle cx="7.777" cy="7.777" r="7.777" transform="translate(432.504 397.908)" fill="#535461" opacity="0.25"/><circle cx="7.777" cy="7.777" r="7.777" transform="translate(406.962 219.1)" fill="#535461" opacity="0.25"/><circle cx="7.777" cy="7.777" r="7.777" transform="translate(187.058 573.377)" fill="#535461" opacity="0.25"/><path d="M854.917,389.5h-6.923V382.59h-2.821V389.5H838.25v2.836h6.923v6.908h2.821v-6.908h6.923Z" transform="translate(439.987 200.79)" fill="#535461" opacity="0.25"/><path d="M930.917,232.5h-6.923V225.59h-2.821V232.5H914.25v2.836h6.923v6.908h2.821v-6.908h6.923Z" transform="translate(479.878 118.383)" fill="#535461" opacity="0.25"/><path d="M607.287,144.793h-6.923V137.87h-2.821v6.923H590.62v2.821h6.923v6.923h2.821v-6.923h6.923Z" transform="translate(310.009 72.34)" fill="#535461" opacity="0.25"/><path d="M805.382,364.008h-6.923V357.1h-2.821v6.908H788.73v2.836h6.908v6.908h2.821v-6.908h6.923Z" transform="translate(413.994 187.411)" fill="#535461" opacity="0.25"/><path d="M639.322,514.768h-6.908V507.86h-2.821v6.908H622.67V517.6h6.923v6.908h2.821V517.6h6.908Z" transform="translate(326.831 266.543)" fill="#535461" opacity="0.25"/><path d="M174.667,203.778h-6.923V196.87h-2.821v6.908H158V206.6h6.923v6.923h2.821V206.6h6.923Z" transform="translate(82.932 103.308)" fill="#535461" opacity="0.25"/><path d="M16.667,262.778H9.744V255.87H6.923v6.908H0V265.6H6.923v6.923H9.744V265.6h6.923Z" transform="translate(0 134.277)" fill="#535461" opacity="0.25"/><path d="M237.292,448.5h-6.923V441.58h-2.821V448.5H220.64v2.821h6.908v6.923h2.821v-6.923h6.923Z" transform="translate(115.811 231.753)" fill="#535461" opacity="0.25"/><circle cx="21.104" cy="21.104" r="21.104" transform="translate(1155.514 1095.361)" fill="url(#g)"/><g transform="translate(352.683 518.374)" opacity="0.4"><path d="M426.145,417.658h0a32.19,32.19,0,0,0-9.5-8.417h0a31.9,31.9,0,1,0-15.95,59.471h2.013a31.9,31.9,0,0,0,23.438-51.038Z" transform="translate(-368.695 -404.91)" fill="url(#x)"/></g><path d="M430.184,436.268a30.147,30.147,0,0,1-28.24,30.086h-1.907a30.147,30.147,0,1,1,15.081-56.268h0a30.5,30.5,0,0,1,8.982,7.945h0a30,30,0,0,1,6.084,18.238Z" transform="translate(-15.369 114.068)" fill="#6c63ff" opacity="0.2"/><path d="M387.357,413.446a32.813,32.813,0,0,0-4.575,2.364,7.12,7.12,0,0,0-2.409,2.15,2.836,2.836,0,0,0,0,3.05,4.315,4.315,0,0,0,3.385,1.22,6.435,6.435,0,0,0,6.1-2.028l2.592-2.348c.9-.823,1.891-1.937,1.525-3.05a2.73,2.73,0,0,0-2.2-1.525,9.149,9.149,0,0,0-6.481,1.144" transform="translate(-10.115 117.768)" fill="#f55f44" opacity="0.1"/><circle cx="1.586" cy="1.586" r="1.586" transform="translate(364.829 560.644)" fill="#f55f44" opacity="0.1"/><circle cx="5.825" cy="5.825" r="5.825" transform="translate(392.857 546.356)" fill="#f55f44" opacity="0.1"/><path d="M410.909,416.74h0a7.929,7.929,0,1,1-8.982-7.96h0a30.5,30.5,0,0,1,8.982,7.96Z" transform="translate(-2.178 115.496)" fill="#f55f44" opacity="0.1"/><path d="M413.666,438.247A30.071,30.071,0,0,1,390.93,450.98c0-.412,0-.839,0-1.266A14.288,14.288,0,0,1,413.8,438.247Z" transform="translate(-4.341 129.458)" fill="#f55f44" opacity="0.1"/><g transform="translate(595.606 308.077)" opacity="0.1"><rect width="157.063" height="6.1"/></g></g></svg>