<svg xmlns="http://www.w3.org/2000/svg" width="638.609" height="400.44" viewBox="0 0 638.609 400.44"><g transform="translate(0 0)"><rect width="515.516" height="26.164" transform="matrix(0.86, 0.51, -0.51, 0.86, 195.109, 0)" fill="#f8f9fa" opacity="0.05"/><rect width="515.516" height="26.164" transform="matrix(0.86, 0.51, -0.51, 0.86, 98.715, 22.033)" fill="#f8f9fa" opacity="0.05"/><rect width="515.516" height="26.164" transform="matrix(0.86, 0.51, -0.51, 0.86, 13.338, 46.131)" fill="#f8f9fa" opacity="0.05"/><ellipse cx="138.855" cy="138.855" rx="138.855" ry="138.855" transform="translate(210.88 30.356)" fill="#fff" opacity="0.2"/><path d="M663.779,405.02a24.752,24.752,0,1,1,24.752-24.752A24.752,24.752,0,0,1,663.779,405.02Zm0-48.3a23.545,23.545,0,1,0,23.545,23.545,23.545,23.545,0,0,0-23.545-23.545Z" transform="translate(-314.044 -210.452)" fill="#fff" opacity="0.3"/><path d="M653.674,417.253a47.09,47.09,0,1,1,47.09-47.09,47.09,47.09,0,0,1-47.09,47.09Zm0-92.972a45.882,45.882,0,1,0,45.883,45.882,45.882,45.882,0,0,0-45.883-45.882Z" transform="translate(-303.939 -200.348)" fill="#fff" opacity="0.3"/><path d="M644.935,427.832a66.409,66.409,0,1,1,66.409-66.409A66.409,66.409,0,0,1,644.935,427.832Zm0-131.611a65.2,65.2,0,1,0,65.2,65.2,65.2,65.2,0,0,0-65.2-65.2Z" transform="translate(-295.2 -191.608)" fill="#fff" opacity="0.3"/><path d="M633.464,441.718a91.765,91.765,0,1,1,91.765-91.765A91.869,91.869,0,0,1,633.464,441.718Zm0-182.323a90.558,90.558,0,1,0,90.557,90.558,90.66,90.66,0,0,0-90.557-90.558Z" transform="translate(-283.729 -180.138)" fill="#fff" opacity="0.3"/><path d="M623.906,453.29A112.895,112.895,0,1,1,736.8,340.395,113.023,113.023,0,0,1,623.906,453.29Zm0-224.583A111.688,111.688,0,1,0,735.594,340.395,111.814,111.814,0,0,0,623.906,228.707Z" transform="translate(-274.171 -170.579)" fill="#fff" opacity="0.3"/><ellipse cx="11.471" cy="11.471" rx="11.471" ry="11.471" transform="translate(338.264 157.741)" fill="#e95841" opacity="0.3"/><ellipse cx="11.471" cy="11.471" rx="11.471" ry="11.471" transform="translate(367.846 190.945)" fill="#e95841" opacity="0.3"/><ellipse cx="11.471" cy="11.471" rx="11.471" ry="11.471" transform="translate(287.552 186.116)" fill="#e95841" opacity="0.3"/><ellipse cx="5.433" cy="5.433" rx="5.433" ry="5.433" transform="translate(344.301 163.778)" fill="#fff"/><ellipse cx="5.433" cy="5.433" rx="5.433" ry="5.433" transform="translate(293.589 192.153)" fill="#fff"/><ellipse cx="5.433" cy="5.433" rx="5.433" ry="5.433" transform="translate(373.883 197.586)" fill="#fff"/><ellipse cx="5.433" cy="5.433" rx="5.433" ry="5.433" transform="translate(597.862 102.802)" fill="#fff"/><path d="M569.4,218.065H568.2V155.882H807.871v1.208H569.4Z" transform="translate(-219.366 -48.551)" fill="#fff"/><path d="M1036.139,310.626a15.7,15.7,0,1,1,15.7-15.7,15.7,15.7,0,0,1-15.7,15.7Zm0-30.186a14.489,14.489,0,1,0,14.489,14.489,14.489,14.489,0,0,0-14.489-14.489Z" transform="translate(-432.844 -186.693)" fill="#fff"/><ellipse cx="5.433" cy="5.433" rx="5.433" ry="5.433" transform="translate(125.152 128.159)" fill="#fff"/><path d="M349.589,347.452a15.7,15.7,0,1,1,15.7-15.7,15.7,15.7,0,0,1-15.7,15.7Zm0-30.186a14.489,14.489,0,1,0,14.489,14.489,14.489,14.489,0,0,0-14.489-14.489Z" transform="translate(-219.004 -198.163)" fill="#fff"/><path d="M427.089,257.745h-1.208V196.76l-152.75-2.406.019-1.207,153.939,2.424Z" transform="translate(-127.463 -60.158)" fill="#fff"/><rect width="66.409" height="4.226" transform="translate(570.091 136.611)" fill="#fff" opacity="0.5"/><rect width="66.409" height="4.226" transform="translate(570.091 148.685)" fill="#fff" opacity="0.5"/><rect width="66.409" height="4.226" transform="translate(570.091 160.76)" fill="#fff" opacity="0.5"/><rect width="66.409" height="4.226" transform="translate(155.868 330.973)" fill="#fff" opacity="0.5"/><rect width="66.409" height="4.226" transform="translate(155.868 343.048)" fill="#fff" opacity="0.5"/><rect width="66.409" height="4.226" transform="translate(155.868 355.122)" fill="#fff" opacity="0.5"/><rect width="66.409" height="4.226" transform="translate(97.381 162.571)" fill="#fff" opacity="0.5"/><rect width="66.409" height="4.226" transform="translate(97.381 174.645)" fill="#fff" opacity="0.5"/><rect width="66.409" height="4.226" transform="translate(97.381 186.72)" fill="#fff" opacity="0.5"/><ellipse cx="132.214" cy="4.226" rx="132.214" ry="4.226" transform="translate(222.954 391.988)" fill="#f8f9fa" opacity="0.05"/><path d="M606.367,706.07h-17.9v-17.9h17.9Zm-16.525-1.377H604.99V689.545H589.842Z" transform="translate(-298.296 -314.064)" fill="#fff"/><ellipse cx="6.885" cy="6.885" rx="6.885" ry="6.885" transform="translate(312.202 378.236)" fill="#fff"/></g></svg>