<svg xmlns="http://www.w3.org/2000/svg" xmlns:xlink="http://www.w3.org/1999/xlink" width="732.094" height="555.8" viewBox="0 0 732.094 555.8"><defs><filter id="a" x="85.712" y="90.31" width="548.844" height="443.534" filterUnits="userSpaceOnUse"><feOffset dy="15" input="SourceAlpha"/><feGaussianBlur stdDeviation="10" result="b"/><feFlood flood-opacity="0.2"/><feComposite operator="in" in2="b"/><feComposite in="SourceGraphic"/></filter><linearGradient id="c" x1="0.282" y1="0.257" x2="0.852" y2="0.924" gradientUnits="objectBoundingBox"><stop offset="0" stop-color="#e95841"/><stop offset="1" stop-color="#e94b63"/></linearGradient><linearGradient id="d" x1="0.5" y1="0" x2="0.5" y2="1" xlink:href="#c"/></defs><g transform="translate(0)"><path d="M317.09,513.9c157.574-11.992,345.487-134.085,335.92-259.8S461.447,11.357,303.873,23.348,55.6,270.281,65.162,396,159.517,525.9,317.09,513.9Z" transform="translate(60.81 -22.5)" fill="#707070" opacity="0.02"/><ellipse cx="328.93" cy="20.152" rx="328.93" ry="20.152" transform="translate(35.755 471.292)" fill="#707070" opacity="0.1"/><ellipse cx="137.939" cy="12.026" rx="137.939" ry="12.026" transform="translate(456.217 531.748)" fill="#707070" opacity="0.1"/><ellipse cx="117.493" cy="7.953" rx="117.493" ry="7.953" transform="translate(476.662 535.627)" fill="#707070" opacity="0.1"/><g transform="matrix(1, 0, 0, 1, 0, 0)" filter="url(#a)"><rect width="488.844" height="383.535" transform="translate(115.71 105.31)" fill="#fff"/></g><path d="M414.236,263.553h120.6a1.464,1.464,0,0,0,0-2.927h-120.6a1.464,1.464,0,1,0,0,2.927Z" transform="translate(-48.54 -105.83)" fill="#f2f2f2"/><path d="M511.047,288.319H700.724a1.464,1.464,0,0,0,0-2.927H511.047a1.464,1.464,0,0,0,0,2.927Z" transform="translate(-277.364 -114.497)" fill="#f2f2f2"/><path d="M415.136,313.085h120.6a1.464,1.464,0,0,0,0-2.927h-120.6a1.464,1.464,0,0,0,0,2.927Z" transform="translate(-50.026 -123.163)" fill="#f2f2f2"/><path d="M617.314,313.535h120.6a1.464,1.464,0,0,0,0-2.927h-120.6a1.464,1.464,0,0,0,0,2.927Z" transform="translate(-383.631 -123.321)" fill="#f2f2f2"/><path d="M415.586,337.85h120.6a1.464,1.464,0,0,0,0-2.927h-120.6a1.464,1.464,0,0,0,0,2.927Z" transform="translate(-50.768 -131.83)" fill="#f2f2f2"/><path d="M416.037,362.616h120.6a1.464,1.464,0,0,0,0-2.927h-120.6a1.464,1.464,0,1,0,0,2.927Z" transform="translate(-51.512 -140.496)" fill="#f2f2f2"/><path d="M632.624,264h34.54a1.464,1.464,0,1,0,0-2.927h-34.54a1.464,1.464,0,0,0,0,2.927Z" transform="translate(-322.836 -105.988)" fill="#f2f2f2"/><path d="M632.624,337.85h34.54a1.464,1.464,0,1,0,0-2.927h-34.54a1.464,1.464,0,0,0,0,2.927Z" transform="translate(-322.836 -131.83)" fill="#f2f2f2"/><path d="M632.624,362.166h34.54a1.464,1.464,0,0,0,0-2.927h-34.54a1.464,1.464,0,0,0,0,2.927Z" transform="translate(-322.836 -140.339)" fill="#f2f2f2"/><path d="M721.781,362.166h34.54a1.464,1.464,0,0,0,0-2.927h-34.54a1.464,1.464,0,0,0,0,2.927Z" transform="translate(-469.95 -140.339)" fill="#f2f2f2"/><path d="M413.785,288.319h34.54a1.464,1.464,0,0,0,0-2.927h-34.54a1.464,1.464,0,0,0,0,2.927Z" transform="translate(38.261 -114.497)" fill="#f2f2f2"/><path d="M414.461,628.285h120.6a1.464,1.464,0,0,0,0-2.927h-120.6a1.464,1.464,0,0,0,0,2.927Z" transform="translate(-48.911 -233.465)" fill="#f2f2f2"/><path d="M413.56,677.816h120.6a1.464,1.464,0,0,0,0-2.927H413.56a1.464,1.464,0,0,0,0,2.927Z" transform="translate(-47.425 -250.798)" fill="#f2f2f2"/><path d="M414.01,702.582h120.6a1.464,1.464,0,1,0,0-2.927H414.01a1.464,1.464,0,0,0,0,2.927Z" transform="translate(-48.168 -259.465)" fill="#f2f2f2"/><path d="M625.646,678.266h34.54a1.464,1.464,0,0,0,0-2.927h-34.54a1.464,1.464,0,0,0,0,2.927Z" transform="translate(-311.32 -250.955)" fill="#f2f2f2"/><path d="M625.646,702.582h34.54a1.464,1.464,0,0,0,0-2.927h-34.54a1.464,1.464,0,0,0,0,2.927Z" transform="translate(-311.32 -259.465)" fill="#f2f2f2"/><path d="M714.8,678.266h34.54a1.464,1.464,0,1,0,0-2.927H714.8a1.464,1.464,0,0,0,0,2.927Z" transform="translate(-458.433 -250.955)" fill="#f2f2f2"/><path d="M511.272,653.05H700.949a1.464,1.464,0,0,0,0-2.927H511.272a1.464,1.464,0,0,0,0,2.927Z" transform="translate(-277.735 -242.131)" fill="#f2f2f2"/><path d="M414.01,653.05h34.54a1.464,1.464,0,0,0,0-2.927H414.01a1.464,1.464,0,0,0,0,2.927Z" transform="translate(37.89 -242.131)" fill="#f2f2f2"/><path d="M511.272,727.8H700.949a1.464,1.464,0,0,0,0-2.927H511.272a1.464,1.464,0,0,0,0,2.927Z" transform="translate(-277.735 -268.289)" fill="#f2f2f2"/><path d="M414.01,727.8h34.54a1.464,1.464,0,1,0,0-2.927H414.01a1.464,1.464,0,0,0,0,2.927Z" transform="translate(37.89 -268.289)" fill="#f2f2f2"/><path d="M457.844,401.13l46.834,46.248-46.834,46.248-10.537-10.537,35.418-35.418-35.71-35.711Z" transform="translate(-63.17 -140.372)" fill="#afafaf"/><path d="M655.5,401.13l-46.834,46.248L655.5,493.627l10.537-10.537L630.62,447.671l35.711-35.711Z" transform="translate(-329.906 -140.372)" fill="#afafaf"/><circle cx="5.851" cy="5.851" r="5.851" transform="translate(585.704 109.21)" fill="#afafaf"/><circle cx="5.851" cy="5.851" r="5.851" transform="translate(570.103 109.21)" fill="#afafaf"/><circle cx="5.851" cy="5.851" r="5.851" transform="translate(554.502 109.21)" fill="#afafaf"/><rect width="488.844" height="1.95" transform="translate(115.712 124.811)" opacity="0.1"/><path d="M993.747,579.248c0,41.455,24.644,55.929,55.045,55.929s55.045-14.474,55.045-55.929-55.045-94.192-55.045-94.192S993.747,537.793,993.747,579.248Z" transform="translate(-993.747 -184.368)" fill="url(#c)"/><path d="M1028.426,606.336l-.566-34.694L1004.4,528.72l23.37,37.479-.254-15.6-16.167-31.053,16.1,26.925h0L1027,518.414l-17.318-24.722L1026.925,514l-.286-51.446,1.788,68.106-.143-2.81,17.6-26.946-17.324,32.339,1.645,31.335.045-.832,20.295-28.356-20.23,31.294.2,3.919.039.059-.02.322,4.16,79.5h-5.558l-.663-41.063L1008.294,578.2Z" transform="translate(-971.373 -161.868)" fill="#333"/><path d="M146.887,771.536a28.032,28.032,0,0,0,5.316,2.277c3.3.9,6.83.571,10.165,1.341,1.365.315,2.851.974,3.286,2.307a4.845,4.845,0,0,1-.36,3.005c-3.685,10.8-5.906,22.275-11.782,32.061a48.522,48.522,0,0,1-9.1,11.043,8.672,8.672,0,0,1-4.638,2.571,4.711,4.711,0,0,1-4.791-6.619c.527-1.171,1.506-2.078,2.138-3.2a12.193,12.193,0,0,0,1.183-4.544c.581-4.621,1.14-9.45-.461-13.824-1.074-2.933-3.044-5.434-4.685-8.092s-3-5.7-2.639-8.8a15.292,15.292,0,0,1,2.373-5.886c1.093-1.835,3.253-6.766,5.449-7.378C140.623,767.163,144.9,770.518,146.887,771.536Z" transform="translate(505.496 -283.283)" fill="#333"/><path d="M292.105,824.082a9.112,9.112,0,0,0,.431,3.085c.687,1.815,2.393,3.059,3.274,4.789,1.225,2.406.67,5.313-.142,7.888a8.083,8.083,0,0,1-2.543,4.292,8.382,8.382,0,0,1-3.87,1.24c-11.725,1.623-23.635.692-35.466,1.032-2.156.062-4.44.137-6.322-.916s-3.046-3.7-1.766-5.44c1.15-1.559,3.423-1.545,5.358-1.637a22.044,22.044,0,0,0,13.595-5.6,9.822,9.822,0,0,0,1.907-2.2,13.486,13.486,0,0,0,1-2.287,101.936,101.936,0,0,1,5.9-13.078,6.928,6.928,0,0,1,2.539-3.04,6.708,6.708,0,0,1,2.756-.6c2.949-.191,10.585-1.195,12.865,1.1C293.73,814.83,292.059,821.391,292.105,824.082Z" transform="translate(300.189 -298.509)" fill="#333"/><circle cx="18.835" cy="18.835" r="18.835" transform="translate(555.313 226.055)" fill="#fbbebe"/><path d="M265.074,418.443a14.159,14.159,0,0,0,5.786,7.43l-26.051,5.314a27.6,27.6,0,0,0,.365-11.616,6.7,6.7,0,0,1-.156-2.866c.49-1.89,2.617-2.8,4.521-3.234,4.755-1.084,8.959-1.665,13.377-3.765C264.267,412.018,264.078,415.777,265.074,418.443Z" transform="translate(326.084 -158)" fill="#fbbebe"/><path d="M257.036,422.752a20.372,20.372,0,0,0-17.755.464c-3.34,1.76-6.105,4.417-8.822,7.038-2.5,2.416-5.176,5.183-5.354,8.658a24.259,24.259,0,0,0,.7,4.995,16.749,16.749,0,0,1-8.958,17.207c-2.07,3.448-2.5,7.624-2.528,11.645-.12,15.235,4.686,30.657,1.255,45.5-.806,3.485-2.055,6.861-2.751,10.369-.9,4.545-.857,9.218-1.329,13.827a61.929,61.929,0,0,1-3.324,14.623c1.134,1.8,3.493,2.494,5.618,2.348a15.87,15.87,0,0,0,6.008-2.038c9.181-4.7,17.59-10.893,27.1-14.886,6.291-2.642,12.993-4.287,19.1-7.338s11.779-7.893,13.645-14.456a33.837,33.837,0,0,0,.9-8.778c.185-12.425.358-24.986-2.347-37.114-2.385-10.7-6.983-20.928-7.986-31.84-.326-3.552-.333-7.355-2.318-10.319C265.086,428.468,259.029,427.383,257.036,422.752Z" transform="translate(340.124 -161.931)" fill="#333"/><path d="M254.97,384.163c-1.11-1.448-3.25-1.645-5.024-1.217s-3.408,1.342-5.2,1.689a3.039,3.039,0,0,1-2.433-.342,3.539,3.539,0,0,1-1.05-2.321,44.31,44.31,0,0,1-.436-11.3,3.346,3.346,0,0,0-.1-1.584c-.443-1.068-1.8-1.323-2.9-1.665a8.656,8.656,0,0,1-5.859-8.862,3.524,3.524,0,0,1,1.077-2.432,4.43,4.43,0,0,1,2.819-.669q7.595-.061,15.19,0a11.032,11.032,0,0,1,5.467,1,26.565,26.565,0,0,1,3.173,2.673c2.812,2.269,6.616,2.731,10.038,3.894a9.951,9.951,0,0,1,4.4,2.623,4.635,4.635,0,0,1,.97,4.806,17.07,17.07,0,0,1-1.227,1.888c-2.018,3.227-.675,7.413-.976,11.207-.376,4.738-7.388,12.424-12.142,13.545C253.076,398.907,257.511,387.273,254.97,384.163Z" transform="translate(329.891 -139.007)" fill="#333"/><path d="M269.93,701.4a56.215,56.215,0,0,0-.939,10.42c.232,4.871,1.989,9.565,2.313,14.431.243,3.634-.318,7.308.186,10.915.323,2.31,1.076,4.536,1.543,6.822a28.209,28.209,0,0,1-4.533,21.624,3.541,3.541,0,0,1-1.315,1.275,3.716,3.716,0,0,1-1.63.216,116.987,116.987,0,0,1-16.362-1.487,1.569,1.569,0,0,1-1.051-.463,1.473,1.473,0,0,1-.228-.62c-1-5.159,1.285-10.332,1.867-15.555.621-5.577-.717-11.166-2.045-16.619a73.812,73.812,0,0,0-2.254-7.949c-.642-1.753-1.417-3.459-1.974-5.241a39.955,39.955,0,0,1-1.431-8.582q-.58-6.875-.614-13.781a57.828,57.828,0,0,1,1.082-13.008c1.221-5.42,3.721-10.453,6.2-15.426a9.769,9.769,0,0,1,3.652,1.736,81.509,81.509,0,0,0,9.978,5.513c2.318,1.077,6.84,1.842,8.311,4.086,1.451,2.213.515,6.729.4,9.17Q270.8,695.163,269.93,701.4Z" transform="translate(325.564 -248.518)" fill="#2f2e41"/><path d="M269.93,701.4a56.215,56.215,0,0,0-.939,10.42c.232,4.871,1.989,9.565,2.313,14.431.243,3.634-.318,7.308.186,10.915.323,2.31,1.076,4.536,1.543,6.822a28.209,28.209,0,0,1-4.533,21.624,3.541,3.541,0,0,1-1.315,1.275,3.716,3.716,0,0,1-1.63.216,116.987,116.987,0,0,1-16.362-1.487,1.569,1.569,0,0,1-1.051-.463,1.473,1.473,0,0,1-.228-.62c-1-5.159,1.285-10.332,1.867-15.555.621-5.577-.717-11.166-2.045-16.619a73.812,73.812,0,0,0-2.254-7.949c-.642-1.753-1.417-3.459-1.974-5.241a39.955,39.955,0,0,1-1.431-8.582q-.58-6.875-.614-13.781a57.828,57.828,0,0,1,1.082-13.008c1.221-5.42,3.721-10.453,6.2-15.426a9.769,9.769,0,0,1,3.652,1.736,81.509,81.509,0,0,0,9.978,5.513c2.318,1.077,6.84,1.842,8.311,4.086,1.451,2.213.515,6.729.4,9.17Q270.8,695.163,269.93,701.4Z" transform="translate(325.564 -248.518)" fill="#333" opacity="0.1"/><path d="M225.1,605.518c2.5,6.734-1.175,14.011-4.37,20.446-7.87,15.852-13.334,32.768-18.77,49.611a6.083,6.083,0,0,0-.36,3.884,5.087,5.087,0,0,0,1.834,2.176c3.748,2.847,8.52,3.861,12.985,5.35a58.622,58.622,0,0,1,12.314,5.772c3.235,2,6.266,4.319,9.291,6.629l9.629,7.354a6.437,6.437,0,0,1,1.609,1.558c.929,1.457.548,3.359.086,5.024a85.439,85.439,0,0,1-4.714,12.866,4.492,4.492,0,0,1-1.71,2.241c-1.5.808-3.341-.263-4.489-1.526s-2.14-2.834-3.758-3.376-3.394.114-5.082-.123c-2.729-.383-4.541-2.9-6.509-4.828-8.038-7.886-21.458-7.314-30.3-14.286a38.506,38.506,0,0,0-4.051-3.164c-1.495-.884-3.19-1.369-4.741-2.15-4.717-2.375-7.683-7.286-9.271-12.323s-2.042-10.354-3.183-15.511a67.437,67.437,0,0,1-1.63-8.021,42.967,42.967,0,0,1,.164-7.584l3.19-39.469c.26-3.214.52-6.431,1.024-9.615,9.476.339,18.945.72,28.426.832C210.263,607.375,217.946,607.9,225.1,605.518Z" transform="translate(395.855 -226.522)" fill="#333"/><path d="M257.209,611.388c-1.285,2.067-4.414,2.025-6.568.891s-3.828-3.037-5.987-4.161c-2.9-1.51-6.336-1.453-9.605-1.361-5.177.146-10.417.3-15.4,1.721-5.152,1.467-10.167,4.293-15.493,3.729a3.187,3.187,0,0,1-2.445-1.148,3.6,3.6,0,0,1-.4-1.843l-.174-4.654a4.2,4.2,0,0,1,.371-2.357,3.953,3.953,0,0,1,1.765-1.352c7.582-3.67,16.228-4.354,24.647-4.642q6.419-.22,12.844-.181c3.634.022,8-.5,11.531.467C257.035,597.8,259.615,607.519,257.209,611.388Z" transform="translate(367.233 -223.159)" fill="#2f2e41"/><path d="M202.853,428.553c9.934-.088,18.937-6.645,28.87-6.8a7.485,7.485,0,0,1,3.505.6c1.384.7,2.294,2.046,3.346,3.184,2.937,3.181,7.19,4.879,10.208,7.983,2.829,2.911,4.4,7.248,3.286,11.151s-5.333,6.9-9.282,5.958a23.923,23.923,0,0,0-9.32-12.663,47.383,47.383,0,0,0-7.284-3.824c-4.465-2.023-9.457-4.084-14.118-2.568a19.916,19.916,0,0,0-4.816,2.626l-7.771,5.22C200.382,435.849,201.2,431.844,202.853,428.553Z" transform="translate(373.981 -162.207)" fill="url(#d)"/><path d="M253.133,451.528c1.319,1.646-.581,4.03-.29,6.119.193,1.388,1.335,2.448,1.811,3.766.493,1.365.231,2.878.418,4.317a18.521,18.521,0,0,0,.829,3.075,55.234,55.234,0,0,1,1.746,9.117l1.739,12.985a49.2,49.2,0,0,1,.55,5.9,17.623,17.623,0,0,0,.294,4.412,32.586,32.586,0,0,0,1.811,4.014,4.7,4.7,0,0,1,.065,4.241,7.414,7.414,0,0,1,1.552,9.254,5.136,5.136,0,0,0-.8,1.473,3.784,3.784,0,0,0,.352,2.171l1.758,4.685c.45,1.2.592,3.025-.659,3.3a11.056,11.056,0,0,1,2.374,3.749,4.464,4.464,0,0,1-.632,4.229,5.388,5.388,0,0,0-1.1,1.337,3.558,3.558,0,0,0,.127,2.108,7.74,7.74,0,0,1-.958,6.067,5.442,5.442,0,0,1-5.472,2.346c-3.517-.793-6.678-2.046-10.224-1.395a182.643,182.643,0,0,0-22.691,5.169c-8.44,2.695-16.613,6.646-25.434,7.476a2.469,2.469,0,0,1-1.7-.265,2.555,2.555,0,0,1-.787-1.617l-2.726-12.783a131.558,131.558,0,0,1-2.506-14.319c-.31-3.108-.4-6.234-.487-9.356l-.7-24.852a24.83,24.83,0,0,1,1.43-10.8l4.042-12.9c2.306-7.363,7.6-13.893,9.482-21.375,1.192-4.736,2.073-9.818,5.271-13.509,4.558-5.262,12.445-6.081,19.348-5.176a23.115,23.115,0,0,1,8.961,2.731c3.119,1.87,5.417,4.816,7.64,7.694C249.394,447.282,251.259,449.189,253.133,451.528Z" transform="translate(364.778 -166.559)" fill="url(#d)"/><path d="M256.166,564.645c-.569,2.452-1.763,4.714-2.494,7.123-1.225,4.036-1.121,8.383-2.344,12.42-.513,1.694-1.257,3.321-1.625,5.053-.859,4.037.4,8.214,1.952,12.036s3.454,7.591,3.96,11.688c.356,2.885-.155,6.143-2.379,8.016-2.309,1.944-5.664,1.812-8.671,1.554a9.112,9.112,0,0,1-3.147-.655c-2.3-1.088-3.268-3.809-3.806-6.3-1.8-8.333-1.287-16.971-.763-25.48l1.369-22.254c.264-4.284.546-8.658,1.866-12.771.48-1.5,1.317-4.52,2.684-5.476s5.22-.989,6.9-1.067C257.528,548.164,257.44,559.141,256.166,564.645Z" transform="translate(345.628 -206.578)" fill="#fbbebe"/><path d="M243.723,446.669a5.414,5.414,0,0,1,5.182.458,15.97,15.97,0,0,1,3.882,3.769c3.471,4.236,7.145,9.1,6.63,14.55a36.9,36.9,0,0,1-1.506,5.962c-2.327,8.7.246,17.9-.049,26.895a84.209,84.209,0,0,1-2.429,15.393c-.23,1.036-.6,2.236-1.6,2.585a3.476,3.476,0,0,1-2.312-.358,18.443,18.443,0,0,0-16.878,2.128c-1.862-.994-1.165-4.136-.747-6.205,1.241-6.148-.443-12.491-2.489-18.42s-4.492-11.851-4.831-18.114c-.384-7.1,1.969-14.022,4.29-20.739a6.669,6.669,0,0,1,5.617-5.561C238.949,448.283,241.446,447.862,243.723,446.669Z" transform="translate(349.357 -170.769)" fill="#333"/></g></svg>