<svg xmlns="http://www.w3.org/2000/svg" xmlns:xlink="http://www.w3.org/1999/xlink" width="657.447" height="582.547" viewBox="0 0 657.447 582.547">
  <defs>
    <filter id="Trazado_348" x="112.874" y="288.509" width="450.817" height="262.073" filterUnits="userSpaceOnUse">
      <feOffset dy="15" input="SourceAlpha"/>
      <feGaussianBlur stdDeviation="10" result="blur"/>
      <feFlood flood-opacity="0.161"/>
      <feComposite operator="in" in2="blur"/>
      <feComposite in="SourceGraphic"/>
    </filter>
  </defs>
  <g id="ui-design-image" transform="translate(0 -0.006)">
    <path id="Trazado_270" data-name="Trazado 270" d="M442.139,351.458c-25.7-8.316-52.863-15.288-80.628-14.569-40.819,1.06-80.066,20.082-99.423,48.2C245.726,408.91,243.542,436.91,236.4,463.4c-8.8,32.638-25.5,63.612-43.33,93.9-9.575,16.269-19.677,32.88-21.342,50.757-2.284,24.82,12.755,49.633,36.466,66.266s55.26,25.5,86.96,27.566c16.867,1.1,34.5.249,49.512-5.826,15.885-6.4,27.5-18.119,43.451-24.45,14.783-5.862,32.012-6.616,48.595-5.755a270.374,270.374,0,0,1,63.356,10.856c23.113,6.915,44.59,16.867,67.653,23.881s48.844,10.984,72.476,5.343c22.188-5.293,39.788-18.34,55.659-31.557a605.144,605.144,0,0,0,71.1-69.716c14.334-16.639,27.687-34.21,34.09-53.652,12.229-37.177-4.154-79.27-40.812-104.872C729.865,424.923,689.01,415.554,649,409.863c-36.487-5.243-78.7-5.762-112.235-19.115C504.783,377.979,475.688,362.314,442.139,351.458Z" transform="translate(-147.604 -126.069)" fill="#afafaf" opacity="0.05"/>
    <ellipse id="Elipse_71" data-name="Elipse 71" cx="16.44" cy="2.255" rx="16.44" ry="2.255" transform="translate(605.63 347.57)" fill="#6c63ff" opacity="0.1"/>
    <ellipse id="Elipse_72" data-name="Elipse 72" cx="16.44" cy="2.255" rx="16.44" ry="2.255" transform="translate(542.651 353.958)" fill="#6c63ff" opacity="0.1"/>
    <ellipse id="Elipse_73" data-name="Elipse 73" cx="16.44" cy="2.255" rx="16.44" ry="2.255" transform="translate(468.468 345.315)" fill="#6c63ff" opacity="0.1"/>
    <ellipse id="Elipse_74" data-name="Elipse 74" cx="11.688" cy="1.608" rx="11.688" ry="1.608" transform="translate(572.607 372.789)" fill="#6c63ff" opacity="0.1"/>
    <ellipse id="Elipse_75" data-name="Elipse 75" cx="11.688" cy="1.608" rx="11.688" ry="1.608" transform="translate(507.245 371.181)" fill="#6c63ff" opacity="0.1"/>
    <path id="Trazado_271" data-name="Trazado 271" d="M894.93,489.924s23.063-75.592-3.607-105.868c-19.919-22.65-42.6-19.919-52.735-17.137a18.724,18.724,0,0,0-12.094,10.052c-3.557,7.647-2.9,20.061,22.124,34.552,41.908,24.265,44.518,57.551,44.518,57.551Z" transform="translate(-336.194 -134.223)" fill="#e95841"/>
    <path id="Trazado_277" data-name="Trazado 277" d="M908.109,519.61s-27.033-54.94-34.424-53.738c-3.557.569-5.15,4.041-5.883,7.519a22.11,22.11,0,0,0,1.472,13.374C873.109,495.558,883.4,512.254,908.109,519.61Z" transform="translate(-348.442 -163.304)" fill="#e95841"/>
    <path id="Trazado_279" data-name="Trazado 279" d="M923.52,519.61s27.033-54.94,34.424-53.738c3.557.569,5.15,4.041,5.883,7.519a22.109,22.109,0,0,1-1.473,13.374C958.52,495.558,948.227,512.254,923.52,519.61Z" transform="translate(-364.649 -163.304)" fill="#e95841"/>
    <g id="Grupo_39" data-name="Grupo 39">
      <path id="Trazado_272" data-name="Trazado 272" d="M849.2,382.73s67.98,21.256,52.735,112.285" transform="translate(-343.2 -139.314)" fill="none" stroke="#fff" stroke-miterlimit="10" stroke-width="1"/>
      <path id="Trazado_273" data-name="Trazado 273" d="M902.168,393.44s-9.362,6.31-6.4,15.786" transform="translate(-356.472 -142.405)" fill="none" stroke="#fff" stroke-miterlimit="10" stroke-width="1"/>
      <path id="Trazado_274" data-name="Trazado 274" d="M858.79,399.879s5.691-5.819,12.684-2.611" transform="translate(-345.967 -143.231)" fill="none" stroke="#fff" stroke-miterlimit="10" stroke-width="1"/>
      <path id="Trazado_275" data-name="Trazado 275" d="M896.56,441.7s10.045-5.094,12.641,1.288" transform="translate(-356.868 -155.777)" fill="none" stroke="#fff" stroke-miterlimit="10" stroke-width="1"/>
      <path id="Trazado_276" data-name="Trazado 276" d="M928.393,457.405s-7.548-.6-7.683,3.009" transform="translate(-363.838 -160.856)" fill="none" stroke="#fff" stroke-miterlimit="10" stroke-width="1"/>
      <path id="Trazado_278" data-name="Trazado 278" d="M876.53,480.54s28.349,41.1,33.826,42.911" transform="translate(-351.087 -167.543)" fill="none" stroke="#fff" stroke-miterlimit="10" stroke-width="1"/>
      <line id="Línea_1" data-name="Línea 1" x2="6.616" transform="translate(522.839 319.413)" fill="none" stroke="#fff" stroke-miterlimit="10" stroke-width="1"/>
      <line id="Línea_2" data-name="Línea 2" x2="10.372" y2="0.441" transform="translate(530.764 334.452)" fill="none" stroke="#fff" stroke-miterlimit="10" stroke-width="1"/>
      <line id="Línea_3" data-name="Línea 3" x1="1.124" y2="5.399" transform="translate(535.95 322.423)" fill="none" stroke="#fff" stroke-miterlimit="10" stroke-width="1"/>
      <line id="Línea_4" data-name="Línea 4" x1="0.199" y2="4.909" transform="translate(547.901 338.863)" fill="none" stroke="#fff" stroke-miterlimit="10" stroke-width="1"/>
      <path id="Trazado_280" data-name="Trazado 280" d="M957.906,480.54s-28.349,41.1-33.826,42.911" transform="translate(-364.811 -167.543)" fill="none" stroke="#fff" stroke-miterlimit="10" stroke-width="1"/>
      <line id="Línea_5" data-name="Línea 5" x1="6.616" transform="translate(589.083 319.413)" fill="none" stroke="#fff" stroke-miterlimit="10" stroke-width="1"/>
      <line id="Línea_6" data-name="Línea 6" x1="10.372" y2="0.441" transform="translate(577.402 334.452)" fill="none" stroke="#fff" stroke-miterlimit="10" stroke-width="1"/>
      <line id="Línea_7" data-name="Línea 7" x2="1.124" y2="5.399" transform="translate(581.464 322.423)" fill="none" stroke="#fff" stroke-miterlimit="10" stroke-width="1"/>
      <line id="Línea_8" data-name="Línea 8" x2="0.206" y2="4.909" transform="translate(570.431 338.863)" fill="none" stroke="#fff" stroke-miterlimit="10" stroke-width="1"/>
    </g>
    <path id="Trazado_281" data-name="Trazado 281" d="M857.68,556.445a4.724,4.724,0,0,1-1.537-2.319,2.07,2.07,0,0,1,1.074-2.369c.989-.377,2.042.306,2.846,1s1.714,1.473,2.76,1.33a4.2,4.2,0,0,1-1.295-3.934,1.652,1.652,0,0,1,.356-.8c.548-.583,1.544-.327,2.2.128,2.084,1.473,2.668,4.3,2.682,6.851a13.294,13.294,0,0,0,0-2.846,2.9,2.9,0,0,1,1.06-2.5,3.137,3.137,0,0,1,1.615-.384,3.358,3.358,0,0,1,2.625.747,2.623,2.623,0,0,1-.107,3.223,10.232,10.232,0,0,1-2.71,2.134,5.96,5.96,0,0,0-1.942,1.85,2.268,2.268,0,0,0-.142.327h-5.876A16.2,16.2,0,0,1,857.68,556.445Z" transform="translate(-345.184 -187.306)" fill="#e95841"/>
    <path id="Trazado_282" data-name="Trazado 282" d="M1002.35,525.337a4.659,4.659,0,0,1-1.536-2.319,2.063,2.063,0,0,1,1.074-2.362c.989-.377,2.042.306,2.846,1s1.721,1.48,2.767,1.33a4.19,4.19,0,0,1-1.3-3.934,1.573,1.573,0,0,1,.363-.8c.548-.583,1.536-.334,2.191.128,2.084,1.466,2.668,4.268,2.682,6.851a12.9,12.9,0,0,0,0-2.846,2.9,2.9,0,0,1,1.06-2.5,3.236,3.236,0,0,1,1.615-.377,3.329,3.329,0,0,1,2.625.711,2.593,2.593,0,0,1-.107,3.215,10.112,10.112,0,0,1-2.71,2.177,5.961,5.961,0,0,0-1.942,1.85,1.738,1.738,0,0,0-.142.327h-5.876A16.4,16.4,0,0,1,1002.35,525.337Z" transform="translate(-386.939 -178.329)" fill="#e95841"/>
    <path id="Trazado_283" data-name="Trazado 283" d="M954.13,556.445a4.724,4.724,0,0,1-1.537-2.319,2.07,2.07,0,0,1,1.074-2.369c.989-.377,2.042.306,2.846,1s1.714,1.473,2.76,1.33a4.211,4.211,0,0,1-1.3-3.934,1.728,1.728,0,0,1,.363-.8c.548-.583,1.544-.327,2.2.128,2.084,1.473,2.668,4.3,2.682,6.851a13.3,13.3,0,0,0,.036-2.845,2.9,2.9,0,0,1,1.06-2.5,3.136,3.136,0,0,1,1.615-.384,3.358,3.358,0,0,1,2.625.747,2.623,2.623,0,0,1-.107,3.223,10.232,10.232,0,0,1-2.71,2.134,5.962,5.962,0,0,0-1.942,1.85,2.283,2.283,0,0,0-.142.327h-5.876A16.2,16.2,0,0,1,954.13,556.445Z" transform="translate(-373.021 -187.306)" fill="#e95841"/>
    <path id="Trazado_284" data-name="Trazado 284" d="M816.043,496.58s-2.205,2.881,1.017,7.228,5.869,8.024,4.8,10.735c0,0-4.859-8.074-8.814-8.188S811.69,501.439,816.043,496.58Z" transform="translate(-332.202 -172.173)" fill="#e95841"/>
    <path id="Trazado_285" data-name="Trazado 285" d="M816.043,496.58a3.479,3.479,0,0,0-.455.9c-3.856,4.531-5.912,8.764-2.205,8.871,3.457.1,7.6,6.274,8.594,7.825a1.094,1.094,0,0,1-.114.356s-4.859-8.074-8.814-8.188S811.69,501.439,816.043,496.58Z" transform="translate(-332.202 -172.173)" opacity="0.1"/>
    <path id="Trazado_286" data-name="Trazado 286" d="M812.29,501.477c0,1.017.114,1.835.256,1.835s.249-.818.249-1.835-.142-.534-.277-.534S812.29,500.467,812.29,501.477Z" transform="translate(-332.547 -173.399)" fill="#ffd037"/>
    <path id="Trazado_287" data-name="Trazado 287" d="M810.09,503.16c.889.491,1.672.783,1.736.662s-.6-.619-1.487-1.1-.541-.135-.612,0S809.2,502.677,810.09,503.16Z" transform="translate(-331.755 -173.873)" fill="#ffd037"/>
    <path id="Trazado_288" data-name="Trazado 288" d="M831.943,496.58s2.205,2.881-1.017,7.228-5.869,8.024-4.795,10.735c0,0,4.852-8.074,8.807-8.188S836.3,501.439,831.943,496.58Z" transform="translate(-336.471 -172.173)" fill="#e95841"/>
    <path id="Trazado_289" data-name="Trazado 289" d="M831.993,496.58a3.479,3.479,0,0,1,.455.9c3.856,4.531,5.912,8.764,2.205,8.871-3.457.1-7.6,6.274-8.594,7.825a2.982,2.982,0,0,0,.121.356s4.852-8.074,8.807-8.188S836.347,501.439,831.993,496.58Z" transform="translate(-336.521 -172.173)" opacity="0.1"/>
    <path id="Trazado_290" data-name="Trazado 290" d="M839.955,501.477c0,1.017-.114,1.835-.256,1.835s-.249-.818-.249-1.835.142-.534.277-.534S839.955,500.467,839.955,501.477Z" transform="translate(-340.386 -173.399)" fill="#ffd037"/>
    <path id="Trazado_291" data-name="Trazado 291" d="M841.434,503.16c-.889.491-1.672.783-1.736.662s.6-.619,1.487-1.1.541-.135.612,0S842.323,502.677,841.434,503.16Z" transform="translate(-340.456 -173.873)" fill="#ffd037"/>
    <path id="Trazado_292" data-name="Trazado 292" d="M829.864,519.95s-6.154-.185-8.01-1.508-9.476-2.9-9.959-.782-9.248,10.543-2.3,10.6,16.162-1.081,18.012-2.212S829.864,519.95,829.864,519.95Z" transform="translate(-330.998 -177.958)" fill="#a8a8a8"/>
    <path id="Trazado_293" data-name="Trazado 293" d="M809.488,528.866c6.95.057,16.156-1.081,18.012-2.212,1.423-.854,1.971-3.941,2.134-5.364h.2s-.384,4.98-2.241,6.1-11.055,2.269-18.012,2.212c-2.006,0-2.7-.711-2.661-1.786C807.225,528.461,807.994,528.859,809.488,528.866Z" transform="translate(-330.996 -179.304)" opacity="0.2"/>
    <circle id="Elipse_76" data-name="Elipse 76" cx="15.387" cy="15.387" r="15.387" transform="translate(76.374 27.668)" fill="#afafaf" opacity="0.05"/>
    <circle id="Elipse_77" data-name="Elipse 77" cx="15.387" cy="15.387" r="15.387" transform="translate(342.51 3.381)" fill="#afafaf" opacity="0.05"/>
    <circle id="Elipse_78" data-name="Elipse 78" cx="15.387" cy="15.387" r="15.387" transform="translate(586.622 64.169)" fill="#afafaf" opacity="0.05"/>
    <circle id="Elipse_79" data-name="Elipse 79" cx="25.788" cy="25.788" r="25.788" transform="translate(0 158.356)" fill="#afafaf" opacity="0.05"/>
    <circle id="Elipse_80" data-name="Elipse 80" cx="25.788" cy="25.788" r="25.788" transform="translate(24.721 285.694)" fill="#afafaf" opacity="0.05"/>
    <circle id="Elipse_81" data-name="Elipse 81" cx="25.788" cy="25.788" r="25.788" transform="translate(507.694 173.373)" fill="#afafaf" opacity="0.05"/>
    <path id="Trazado_294" data-name="Trazado 294" d="M578.937,387.007c-.911.085-1.835.043-2.739.185a12.472,12.472,0,0,0-4.268,1.714c-6.474,3.685-12.584,8.75-15.266,15.693a2.134,2.134,0,0,0-.2,1.387,2.348,2.348,0,0,0,.754.982l2.518,2.291a3.557,3.557,0,0,0,1.117.783,3.65,3.65,0,0,0,2.063-.064c6.922-1.586,14.278-3.415,19.136-8.594,2.3-2.454,4.432-5.833,7.825-5.926a35.948,35.948,0,0,1,4.154.711c1.4.164,3.087-.434,3.422-1.8a3.785,3.785,0,0,0-.228-2.013l-2.091-6.964c-.569-1.906-6.31-2.006-8.224-1.665C583.995,384.233,582.031,386.723,578.937,387.007Z" transform="translate(-258.7 -139.558)" fill="#333"/>
    <path id="Trazado_295" data-name="Trazado 295" d="M613.583,435.858a58.569,58.569,0,0,1-.3,7.156,20.877,20.877,0,0,1-1.771,5.371A35.266,35.266,0,0,1,606.675,456a15,15,0,0,1-6.623,4.98c-2.668.839-5.947.235-7.612-2.013-1.359-1.828-1.423-4.268-1.323-6.552.242-5.613,1.124-11.3,3.642-16.326,1.081-2.134,2.454-4.169,3.557-6.324,2.3-4.475,3.621-9.782,7.6-12.869a24.978,24.978,0,0,0,7.9,2.17c1.06.114,4.09.185,4.446,1.544.242.918-1.75,3.486-2.134,4.389a29.958,29.958,0,0,0-2.54,10.856Z" transform="translate(-268.704 -149.176)" fill="#333"/>
    <path id="Trazado_296" data-name="Trazado 296" d="M582.148,284.812c.854,2.177,1.935,4.311,2.134,6.63.142,1.423,0,2.846,0,4.268a27.882,27.882,0,0,0,.967,5.762l3.962,16.22a20.775,20.775,0,0,1,.875,7.391,38.963,38.963,0,0,0-.8,4.909,19.032,19.032,0,0,0,.6,3.721,22.922,22.922,0,0,1-.6,11.311,1.693,1.693,0,0,0-.121.875c.1.462.548.747.953.967a40.628,40.628,0,0,0,13.73,4.574,134.483,134.483,0,0,0,9.035-32.261c1.01-6.715,1.5-13.516,2.8-20.182a1.651,1.651,0,0,1,.462-1.024c.484-.406,1.216-.149,1.786.121a159.386,159.386,0,0,1,20.922,12.094,26.137,26.137,0,0,0,4.83-21.633,44.814,44.814,0,0,0-3.557-9.3,52.56,52.56,0,0,0-6.047-10.151c-5.278-6.616-13.018-10.842-20.986-13.708-4.845-1.75-9.831-3.045-14.811-4.368-2.789-.747-7.463-3.18-10.173-1.288-2.846,1.971-4.738,6.858-5.9,9.959a36.692,36.692,0,0,0-2.319,12.015A33.944,33.944,0,0,0,582.148,284.812Z" transform="translate(-265.468 -100.726)" fill="#333"/>
    <path id="Trazado_297" data-name="Trazado 297" d="M645.113,321.163c-1.487,1.622-.235,4.211-.519,6.4a8.846,8.846,0,0,1-1.046,2.81l-6.808,13.367a24.788,24.788,0,0,0-2.533,6.4c-.932,4.823.982,10.244-1.465,14.505-.79,1.373-2.013,2.554-2.34,4.1a32.9,32.9,0,0,0-.121,3.457,23.041,23.041,0,0,1-1.28,3.849,26.815,26.815,0,0,0-.662,3.785,22.267,22.267,0,0,1-8,13.829,12.72,12.72,0,0,1-8.821,3c-3.173-.27-6.324-2.426-6.972-5.542-.221-1.06-.178-2.241-.839-3.1-.939-1.231-2.917-1.28-3.82-2.54l3.5-5.762A13.616,13.616,0,0,0,605.766,374c.213-2.554-1.017-5.1-.576-7.626.377-2.17,1.935-3.977,2.4-6.125.583-2.668-.583-5.364-1.216-8.024-1.551-6.552.185-13.381,1.914-19.919,2.3-8.65,4.652-17.436,9.3-25.083C626.88,312.221,635.417,317.023,645.113,321.163Z" transform="translate(-271.245 -117.52)" fill="#333"/>
    <path id="Trazado_298" data-name="Trazado 298" d="M641.492,134.145c.555,1.508.256,3.18.149,4.78-.249,3.557.505,7.114.334,10.721s-1.281,7.05-2.049,10.557c-2.184,10.009-1.658,20.438-3.635,30.49-2.44,12.449-8.679,24.045-9.91,36.679-.391,4.012-.341,8.309-2.54,11.7a183.642,183.642,0,0,1-36.793-21.612c2.5-18.574,4.98-37.241,4.645-55.979a24.031,24.031,0,0,1,.469-6.744,20.8,20.8,0,0,1,2.533-5.25c2.753-4.475,5.784-8.771,8.807-13.061,1.935-2.746,4.026-5.627,7.114-6.915s6.744-.711,10.109-.1l12.136,2.22C635.389,132.089,640.411,131.207,641.492,134.145Z" transform="translate(-267.539 -66.006)" fill="#e95841"/>
    <path id="Trazado_299" data-name="Trazado 299" d="M524.457,226.244a37.962,37.962,0,0,0-5.406-4.489c2.525-3.073,2.027-7.519,2.646-11.453a37.774,37.774,0,0,1,2.3-7.448c.256-.676.619-1.423,1.323-1.6a2.326,2.326,0,0,1,1.266.2c2.134.754,6.587.711,8.245,2.091,2,1.679.171,5.193-.583,7.292C533.712,212.244,525.517,227.311,524.457,226.244Z" transform="translate(-247.913 -86.932)" fill="#be6f72"/>
    <path id="Trazado_300" data-name="Trazado 300" d="M519.637,411.356a14.739,14.739,0,0,1,2.056,5.691,5.649,5.649,0,0,1-2.291,5.3c-1.722,1.067-4.19.711-6.239.071a32.467,32.467,0,0,1-19.67-17.785,8.8,8.8,0,0,0-5.165-6.118c-2.8-1.579-5.492-3.657-6.787-6.6s-.711-6.879,1.971-8.629a7.27,7.27,0,0,1,5.577-.711,21.568,21.568,0,0,1,5.278,2.3c2.76,1.5,6.132,2.8,8.537,4.795a55.015,55.015,0,0,1,5.869,6.2,87.247,87.247,0,0,1,5.855,7.47C515.212,404.1,520.128,410.666,519.637,411.356Z" transform="translate(-236.897 -139.192)" fill="#333"/>
    <path id="Trazado_301" data-name="Trazado 301" d="M454.122,393.805a49.269,49.269,0,0,1-1.885,10.564c-.576,1.935-1.337,3.948-2.938,5.179a10.749,10.749,0,0,1-4.489,1.643,3.219,3.219,0,0,1-4-1.75c-2.376-3.144-4.688-6.466-5.691-10.279-1.423-5.527,0-11.453,2.469-16.618A17.01,17.01,0,0,1,441.395,377a14.576,14.576,0,0,1,6.986-3.137c2.625-.526,5.848-1.65,6.04,1.544a148.427,148.427,0,0,1-.3,18.4Z" transform="translate(-223.526 -136.574)" fill="#333"/>
    <path id="Trazado_302" data-name="Trazado 302" d="M485.692,214.19c4.909,2.54,10.358,5.769,11.382,11.2.633,3.315-.583,6.708-.384,10.08.178,2.966,1.423,5.833,1.266,8.793a41.353,41.353,0,0,1-.711,4.162,67.334,67.334,0,0,0-.277,7.953c-.235,5.976-2.234,11.724-3.2,17.621a51.612,51.612,0,0,0-.477,12.741c.235,2.746.711,5.478.711,8.238a36.092,36.092,0,0,1-.491,5.934,59.188,59.188,0,0,1-5.691,17.691c-3.422,6.737-2.938,15.43-2.575,22.978a5.691,5.691,0,0,1-.384,3.073c-.9,1.629-3.13,1.864-4.98,1.707a27.033,27.033,0,0,1-17.785-9.006,4.56,4.56,0,0,1-1.295-2.4c-.156-1.522,1.067-2.774,1.949-4.034,3-4.268,2.241-10.052,2.6-15.295a33.435,33.435,0,0,1,2.7-11.062c.882-2.027,1.985-4.026,2.184-6.232a15.737,15.737,0,0,0-1.06-6.054l-2.134-6.772c-3.308-10.521-6.637-21.107-11.645-30.931a15.473,15.473,0,0,0-6.58,9.248c-1.864,6.7.79,14.185-1.75,20.63a18.861,18.861,0,0,0-1.046,2.767,11.142,11.142,0,0,0-.171,2.483,202.182,202.182,0,0,0,1.266,20.751,6.4,6.4,0,0,0,.854,2.966c.42.6,1.032,1.053,1.48,1.629,1.245,1.615,1.01,3.877.711,5.89l-1.423,9.518a2.582,2.582,0,0,1-.462,1.345,2.547,2.547,0,0,1-1.209.655,33.72,33.72,0,0,1-13.986,1.28,9.277,9.277,0,0,1-3.806-1.878c-.121-1.423,1.65-2.369,1.714-3.785a3.265,3.265,0,0,0-1.088-2.177c-2.646-2.988-5.8-6.161-5.776-10.151,0-1.046.249-2.091.213-3.137-.092-2.682-1.942-4.98-2.589-7.562-.8-3.194.263-6.509.669-9.774.555-4.4-.1-8.85-.711-13.239l-2.383-16.106a43.14,43.14,0,0,0-1.48-7.384,57.81,57.81,0,0,0-3.151-6.929c-2.276-4.624-4.147-9.433-6.011-14.228a12.968,12.968,0,0,1-1.1-4.119,10.035,10.035,0,0,1,2.717-6.623,20.709,20.709,0,0,1,11.382-6.9,4.98,4.98,0,0,1,2.284-.092,6.132,6.132,0,0,1,1.771.932,42.555,42.555,0,0,0,37.611,4.46,3.1,3.1,0,0,0,2.845-.078c2.284-1.046,4.147-2.789,6.154-4.268A36.641,36.641,0,0,1,485.692,214.19Z" transform="translate(-215.736 -90.671)" fill="#333"/>
    <path id="Trazado_303" data-name="Trazado 303" d="M310.01,467a9.732,9.732,0,0,0,1.679,2.995c2.575,3.358,6.168,6.04,7.825,9.959.349.839.6,1.722.925,2.575a16.938,16.938,0,0,0,4.624,6.7,28.459,28.459,0,0,0,5.1,3.379c3.144,1.714,6.545,3.265,10.116,3.173a10.986,10.986,0,0,0,2.134-.256,11.547,11.547,0,0,0,3.18-1.167c2.3-1.266,4.268-3.742,3.813-6.324a5.785,5.785,0,0,0-.462-1.423,14.939,14.939,0,0,0-1.3-2.056,15.44,15.44,0,0,0-4.2-4.439c-1.978-1.209-4.467-1.508-6.246-3a9.819,9.819,0,0,1-1.8-2.177,27.445,27.445,0,0,1-3.557-8.06c-.541-2.134-.9-4.475-2.461-6.04s-3.7-1.921-5.776-2.276a10.033,10.033,0,0,0-2.134-.206c-1.017.036-2.07.327-3.023-.149s-1.273-1.152-2.426-1.06a4.98,4.98,0,0,0-2.5,1.088C310.821,460.234,309.028,463.791,310.01,467Z" transform="translate(-187.502 -160.789)" fill="#333"/>
    <path id="Trazado_304" data-name="Trazado 304" d="M337.428,471.677c.462,2.412,1.174,4.98,3.038,6.552,1.188,1.024,2.846,1.665,3.436,3.109s-.171,3.258-1.152,4.581a16.874,16.874,0,0,1-4.581,4.2,6.85,6.85,0,0,1-5.037,1.231,8.41,8.41,0,0,1-3.607-2.348c-2.433-2.255-4.923-4.6-6.289-7.619-1.423-3.187-1.494-6.879-3.045-10.016-.9-1.828-2.3-3.429-2.846-5.392a3.351,3.351,0,0,1,0-2.191,3.087,3.087,0,0,1,2.789-1.658,9.707,9.707,0,0,1,3.336.711,73.468,73.468,0,0,0,9.838,2.753c1.33.249,2.134.242,2.846,1.53A15.338,15.338,0,0,1,337.428,471.677Z" transform="translate(-189.645 -162.23)" fill="#fbbebe"/>
    <path id="Trazado_305" data-name="Trazado 305" d="M356.742,502.554a7.825,7.825,0,0,0-1.1,2.646,5.911,5.911,0,0,0-.078,2.234,11.543,11.543,0,0,0,3.18-1.167c2.3-1.266,4.268-3.742,3.813-6.324a5.783,5.783,0,0,0-.462-1.423,1.985,1.985,0,0,0-1.892.59,15.714,15.714,0,0,0-3.457,3.443Z" transform="translate(-200.707 -172.719)" fill="#fbbebe"/>
    <path id="Trazado_306" data-name="Trazado 306" d="M321.278,426.4a3.5,3.5,0,0,0-.263,2.134c.327,1.423,1.786,2.241,3.1,2.888l12.513,6.118a26.209,26.209,0,0,1,2.533,1.345,37.291,37.291,0,0,1,5.634,4.852,14.781,14.781,0,0,0,6.26,3.877,10.578,10.578,0,0,0,7.114-.932,14.7,14.7,0,0,0,3.258-2.212,20.03,20.03,0,0,0,2.348-2.44,5.263,5.263,0,0,0,1.273-2.3,5.044,5.044,0,0,0-1.167-3.657,16.9,16.9,0,0,0-1.423-1.764c-4.745-5.243-12.52-7.96-19.207-9.027a54.7,54.7,0,0,1-7.747-2.234A18.14,18.14,0,0,0,327.574,422,7.853,7.853,0,0,0,321.278,426.4Z" transform="translate(-190.739 -150.616)" fill="#3f3d56"/>
    <path id="Trazado_307" data-name="Trazado 307" d="M321.278,426.4a3.5,3.5,0,0,0-.263,2.134c.327,1.423,1.786,2.241,3.1,2.888l12.513,6.118a26.209,26.209,0,0,1,2.533,1.345,37.291,37.291,0,0,1,5.634,4.852,14.781,14.781,0,0,0,6.26,3.877,10.578,10.578,0,0,0,7.114-.932,14.7,14.7,0,0,0,3.258-2.212,20.03,20.03,0,0,0,2.348-2.44,5.263,5.263,0,0,0,1.273-2.3,5.044,5.044,0,0,0-1.167-3.657,16.9,16.9,0,0,0-1.423-1.764c-4.745-5.243-12.52-7.96-19.207-9.027a54.7,54.7,0,0,1-7.747-2.234A18.14,18.14,0,0,0,327.574,422,7.853,7.853,0,0,0,321.278,426.4Z" transform="translate(-190.739 -150.616)" fill="#333" opacity="0.1"/>
    <path id="Trazado_308" data-name="Trazado 308" d="M361.491,432.86a14.227,14.227,0,0,1,2.348,3.621,4.055,4.055,0,0,1,.534,2.9,4.226,4.226,0,0,1-1.3,1.707l-1.245,1.152a4.979,4.979,0,0,1-1.295.967,5.178,5.178,0,0,1-2.134.32c-1.672,0-3.472,0-4.83-1-1.857-1.337-2.191-4.1-1.345-6.232a13.447,13.447,0,0,1,4.4-5.172C358.076,429.943,360.473,431.786,361.491,432.86Z" transform="translate(-199.636 -153.17)" fill="#fbbebe"/>
    <path id="Trazado_309" data-name="Trazado 309" d="M376.063,442.692a6.324,6.324,0,0,0,.32,3.521c.313,1.067.619,2.134.925,3.223v.043a20.029,20.029,0,0,0,2.348-2.44,5.263,5.263,0,0,0,1.273-2.3,5.044,5.044,0,0,0-1.167-3.656,16.889,16.889,0,0,0-1.423-1.764c-.334.434-.626.861-.868,1.138A6.283,6.283,0,0,0,376.063,442.692Z" transform="translate(-206.611 -155.647)" fill="#fbbebe"/>
    <path id="Trazado_310" data-name="Trazado 310" d="M329.62,350.825c-1.473,6.189-.847,12.663-.064,18.98.6,4.809,1.266,9.789-.157,14.42-.526,1.729-1.359,3.486-1.039,5.271.6,3.365,4.66,4.66,8.017,5.293a7.9,7.9,0,0,0,2.966.178,7.043,7.043,0,0,0,2.7-1.423,29.551,29.551,0,0,0,10.408-13.836,51.184,51.184,0,0,0,2.07-11.567c.655-6.573,1.316-13.225.356-19.755-.285-1.921-.711-3.82-.889-5.755a41.589,41.589,0,0,1,.555-10.066,162.387,162.387,0,0,1,5.549-24.287A32.724,32.724,0,0,1,340.4,304.72c1.167.626-.171,10.607-.313,12.008a81.505,81.505,0,0,1-2.255,12.378C335.852,336.7,331.42,343.284,329.62,350.825Z" transform="translate(-192.857 -116.799)" fill="#3f3d56"/>
    <path id="Trazado_311" data-name="Trazado 311" d="M329.62,350.825c-1.473,6.189-.847,12.663-.064,18.98.6,4.809,1.266,9.789-.157,14.42-.526,1.729-1.359,3.486-1.039,5.271.6,3.365,4.66,4.66,8.017,5.293a7.9,7.9,0,0,0,2.966.178,7.043,7.043,0,0,0,2.7-1.423,29.551,29.551,0,0,0,10.408-13.836,51.184,51.184,0,0,0,2.07-11.567c.655-6.573,1.316-13.225.356-19.755-.285-1.921-.711-3.82-.889-5.755a41.589,41.589,0,0,1,.555-10.066,162.387,162.387,0,0,1,5.549-24.287A32.724,32.724,0,0,1,340.4,304.72c1.167.626-.171,10.607-.313,12.008a81.505,81.505,0,0,1-2.255,12.378C335.852,336.7,331.42,343.284,329.62,350.825Z" transform="translate(-192.857 -116.799)" fill="#333" opacity="0.1"/>
    <path id="Trazado_312" data-name="Trazado 312" d="M363.711,310.873c2.846,8.245,2.22,17.251.989,25.887s-3.045,17.272-2.511,25.973c.206,3.415.761,6.922-.235,10.187a22.266,22.266,0,0,1-2.184,4.546l-22.7,39.254a7.057,7.057,0,0,1-5.691,3.557,16.482,16.482,0,0,1-7.071-1.515,12.72,12.72,0,0,1-4.119-2.284,4.873,4.873,0,0,1-1.736-4.169c1.017-6.815,2.547-13.794,3.678-20.63a35.712,35.712,0,0,1,4.937-13.068c1.757-2.846,3.92-5.4,5.435-8.359,4.354-8.48,2.846-18.823-.512-27.744s-8.359-17.2-11.026-26.321a30.176,30.176,0,0,1-1.345-7.825,20.865,20.865,0,0,1,5.947-14.84,5.216,5.216,0,0,1,2.056-1.423,5.762,5.762,0,0,1,2.8.05C343.066,294.6,359.535,298.694,363.711,310.873Z" transform="translate(-190.012 -113.113)" fill="#333"/>
    <path id="Trazado_313" data-name="Trazado 313" d="M649.21,141.594a14.289,14.289,0,0,1-2.312,8.963c-6.054,10.1-20.011,14.569-30.8,9.867-4.446-1.942-8.209-5.143-11.894-8.3a10.59,10.59,0,0,1-3.151-3.692c-1.1-2.668.228-5.848,2.4-7.754s4.98-2.846,7.775-3.692C620.449,134.11,647.012,125.047,649.21,141.594Z" transform="translate(-271.465 -66.925)" fill="#fbbebe"/>
    <path id="Trazado_314" data-name="Trazado 314" d="M653.187,131.593c8.4,6.758,20.63,13.2,30.148,18.2,3.237,1.707,6.829,3.628,8,7.114a13.85,13.85,0,0,1,.213,5.855c-.4,3.777-.811,7.612-2.269,11.119-1.714,4.1-4.745,7.491-7.178,11.219-4.268,6.531-6.772,14.228-12.044,20,3.557,11.816,7.448,23.618,8.714,35.882a1.65,1.65,0,0,1-.107,1,1.72,1.72,0,0,1-.555.505l-8.85,5.8a9.96,9.96,0,0,0-2.554,2.134c-1.565,2.035-1.359,4.894-2.326,7.263a9.44,9.44,0,0,1-5.478,4.98,16.867,16.867,0,0,1-7.534.8,17.515,17.515,0,0,1-8.992-3.166,24.873,24.873,0,0,1-5.414-6.467,25.176,25.176,0,0,1-2.846-5.186,23.354,23.354,0,0,1-.967-8.259,87.318,87.318,0,0,1,1.515-15.814c.413-2.07.925-4.112,1.252-6.2.654-4.2.526-8.48,1.01-12.7a85.4,85.4,0,0,1,3.166-13.993,72.173,72.173,0,0,0,1.85-8.608,94.378,94.378,0,0,1,4.147-14.939l2.846-8.4c.6-1.814,1.216-3.621,1.935-5.392,1.337-3.308,3.059-6.531,3.514-10.059.505-3.849-3.649-8.416-2.248-12.03C652.248,131.863,652.867,131.337,653.187,131.593Z" transform="translate(-280.841 -66.812)" fill="#333"/>
    <path id="Trazado_315" data-name="Trazado 315" d="M691.269,164.42c1.971.889,3.059,3.009,3.763,5.058a28.669,28.669,0,0,1,1.11,14.37,25.721,25.721,0,0,0-.569,3.671,24.468,24.468,0,0,0,.42,4.268c.711,5.442,0,10.97.235,16.461.242,6.175,1.586,12.7-1,18.311-1.722,3.728-4.98,6.5-8.2,9.02a163.984,163.984,0,0,1-39.247,22.65c2.426-2.917,2.469-7.306.854-10.742s-4.617-6.018-7.825-8.024a50.424,50.424,0,0,0,11.773-4.2c7.455-3.785,13.844-9.326,20.154-14.811a6.132,6.132,0,0,0,2.091-2.646c.64-2.134-1.124-4.162-2.348-6.033-3.706-5.691-2.846-13.125-1.295-19.712,1.729-7.221,4.268-14.413,8.9-20.218A20,20,0,0,1,691.269,164.42Z" transform="translate(-283.055 -76.306)" fill="#333"/>
    <path id="Trazado_316" data-name="Trazado 316" d="M639.867,289.391a9.724,9.724,0,0,1-2.447,2.689c-2.134,1.423-5.065.882-7.448-.128a21.731,21.731,0,0,1-6.047-3.849,9.479,9.479,0,0,0-2.682-1.992c-1.864-.711-4.468-.178-5.513-1.892a1,1,0,0,1-.171-.612c.064-.619.875-.79,1.5-.825a18.631,18.631,0,0,0,8.231-2.54,7.9,7.9,0,0,1-2.02-2.134,1.665,1.665,0,0,1-.341-1.01,1.805,1.805,0,0,1,.619-1.01,15.835,15.835,0,0,1,17.415-2.9,3.472,3.472,0,0,1,1.423,1.067,3.949,3.949,0,0,1,.519,1.423c.462,1.992,2.134,4.98,1.53,6.993C643.766,284.98,641.24,287.434,639.867,289.391Z" transform="translate(-275.767 -107.289)" fill="#fbbebe"/>
    <path id="Trazado_317" data-name="Trazado 317" d="M578.252,236.239c8.85-10.223,12.8-23.675,16.476-36.686l2.625-9.248,6.331-22.273c.932-3.287,1.864-6.573,2.483-9.924a91.845,91.845,0,0,0,1.1-17.571,19.016,19.016,0,0,0-1.643-7.057c-.619-1.537-.918-3.173-1.423-4.759a23.747,23.747,0,0,0-2.853-6.253,6.55,6.55,0,0,0-1.288-1.537,7.484,7.484,0,0,0-2.91-1.181,25.61,25.61,0,0,0-6.964-1.06,8.633,8.633,0,0,0-6.317,2.7c-1.16,1.373-1.693,3.151-2.611,4.7a18.316,18.316,0,0,0-1.16,1.971,9.96,9.96,0,0,0-.64,3.23q-.555,6.723-.946,13.459c-.121,2.042-.228,4.1-.149,6.146.064,1.594.235,3.18.406,4.766l1.686,15.537c.391,3.649.114,7.064.441,10.721.8,8.828-1.1,17.657-3.052,26.321-.932,4.119-1.892,8.295-3.884,12.022-1.757,3.3-4.389,6.651-3.692,10.329a35.872,35.872,0,0,1,.989,3.77,7.571,7.571,0,0,0,.235,2.383,2.846,2.846,0,0,0,3.038,1.423A7.05,7.05,0,0,0,578.252,236.239Z" transform="translate(-262.661 -63.108)" fill="#333"/>
    <path id="Trazado_318" data-name="Trazado 318" d="M577.113,222.367c.27,2.042.064,4.112.164,6.168a41.6,41.6,0,0,0,1.423,7.825c.711,2.846,1.622,6.033,4.133,7.612a12.985,12.985,0,0,1,1.8,1.131,1.75,1.75,0,0,1,.583,1.907l-1.956-.327a1.985,1.985,0,1,1-2.732,2.846,4.63,4.63,0,0,1-.178,1.907,1.551,1.551,0,0,1-1.423,1.067,2.291,2.291,0,0,1-1.017-.427l-5.108-3.166a9.426,9.426,0,0,1-3.678-3.557l-2.234-3.365a8.04,8.04,0,0,1-1.16-2.134c-.832-2.846,1.494-6,.285-8.686a11.67,11.67,0,0,0-1.273-1.864c-2.582-3.557-2.419-8.394-2.134-12.8.092-1.487.363-3.251,1.707-3.9a3.508,3.508,0,0,1,3.336.59,14.167,14.167,0,0,0,2.988,1.885c.711.242,1.494.27,2.205.526,1,.349,1.921,1.707,2.589,2.511A8.331,8.331,0,0,1,577.113,222.367Z" transform="translate(-260.44 -90.147)" fill="#fbbebe"/>
    <path id="Trazado_319" data-name="Trazado 319" d="M486.72,120.532a12.648,12.648,0,0,1-2.5,3.742,4.844,4.844,0,0,1-4.126,1.423c-1.579-.313-2.739-1.615-3.785-2.846-2.732-3.208-5.5-6.459-7.334-10.258-2.8-5.784-3.251-12.385-3.656-18.795a8.919,8.919,0,0,1,.6-4.845c1-1.842,3.13-2.71,5.094-3.443l10.849-4.055A4.2,4.2,0,0,1,484,81.065c1.7.285,2.326,2.333,2.789,3.991a24.9,24.9,0,0,0,4.055,8.252c2.433,3.244,7.889,7.612,4.773,11.66C491.849,109.819,489.459,115.055,486.72,120.532Z" transform="translate(-232.386 -52.245)" fill="#be6f72"/>
    <path id="Trazado_320" data-name="Trazado 320" d="M489.122,103.353c4.752,4.467,6.36,11.425,6.132,17.934s-2.035,12.855-3.066,19.286-1.238,13.3,1.558,19.207c.96,2.027,2.269,3.906,2.938,6.047a18.974,18.974,0,0,1,.562,6.495,18.547,18.547,0,0,1-1.295,6.715c-1.515,3.358-4.631,5.691-7.612,7.825-6.082,4.4-12.286,8.864-19.428,11.162a59.523,59.523,0,0,1-15.024,2.348,47.79,47.79,0,0,1-10.287-.292,27.936,27.936,0,0,1-15.615-8.266,8.748,8.748,0,0,1-1.771-2.44,10.139,10.139,0,0,1-.619-3.7q-.256-7.007.085-14.014a61.61,61.61,0,0,1,1.828-13.2c1.359-4.98,3.713-9.646,5.5-14.5,6.217-16.867,5.591-36.06,14.228-51.81,1.864-3.4,4.98-6.979,8.821-6.438a2.959,2.959,0,0,1,1.949.9,4.1,4.1,0,0,1,.711,2.191c.918,7.655,2.219,15.508,5.826,22.416,1.423,2.71,3.557,6.836,6.836,7.562s5.214-2.4,6.972-4.624a56.773,56.773,0,0,1,10.77-10.806Z" transform="translate(-220.909 -53.576)" fill="#fff"/>
    <path id="Trazado_321" data-name="Trazado 321" d="M535.145,92.518a14.172,14.172,0,0,1,2.7,1.892c2.134,2.02,2.917,5.115,2.9,8.046a62.526,62.526,0,0,1-1.138,8.722c-1.145,7.825-.171,15.835.285,23.76a11.5,11.5,0,0,1-.228,3.827c-.349,1.2-1.067,2.248-1.529,3.408-1.359,3.429-.334,7.341-1.131,10.941-.854,3.834-3.777,7.32-3.23,11.211.22,1.522.953,2.924,1.266,4.432s.043,3.329-1.259,4.14-3.194.221-4.745.669a14.624,14.624,0,0,0-1.835.825,9.017,9.017,0,0,1-7.619-.47,23.088,23.088,0,0,1-6.153-4.88c-2.71-2.774-5.335-5.812-6.523-9.5-1.736-5.35-.192-11.176,1.693-16.483s4.133-10.671,3.8-16.312c-.185-3.159-1.181-6.2-1.778-9.3a59.476,59.476,0,0,1-.79-13.018c.093-3.187.306-6.474,1.679-9.355A12.883,12.883,0,0,1,521.693,88.1C526.672,87.56,530.941,90.1,535.145,92.518Z" transform="translate(-244.189 -54.258)" fill="#333"/>
    <path id="Trazado_322" data-name="Trazado 322" d="M527.966,177.08a21.689,21.689,0,0,0,1.209,6.68c1.273-2.9,1.423-6.161,1.594-9.319.711-10.877,3.123-21.135,5.691-31.671-1.871,1.423-2.924,4.98-3.82,7.114a62.729,62.729,0,0,0-4.674,27.2Z" transform="translate(-250.462 -70.058)" opacity="0.1"/>
    <path id="Trazado_323" data-name="Trazado 323" d="M436.895,84.284c-3.429.9-6.4,2.938-9.725,4.268-3.45,1.423-7.164,2.027-10.785,2.9-8.38,2.035-16.8,5.812-21.854,12.8-3.728,5.143-5.271,11.5-7.825,17.322-2.134,4.887-4.98,9.469-6.552,14.555-2.056,6.637-1.821,13.751-1.316,20.68.413,5.691,1.039,11.446,3.621,16.49,1.352,2.646,3.215,5.015,4.567,7.662,1.622,3.18,2.476,6.687,3.827,9.959s3.336,6.545,6.474,8.252l5.193-3.038c7.747-4.532,15.494-9.07,23-13.993,6.545-4.268,13.146-9.17,16.632-16.184,3.087-6.2,3.393-13.438,2.6-20.317s-2.618-13.609-3.557-20.467a82.419,82.419,0,0,1,.533-25.973c.711-3.87,2.6-7.868,2.995-11.724C445.154,83.366,439.861,83.5,436.895,84.284Z" transform="translate(-207.345 -53.052)" fill="#333"/>
    <path id="Trazado_324" data-name="Trazado 324" d="M409.69,239.829c3.977,3.763,9.7,4.859,14.669,7.114a31.494,31.494,0,0,1,9.8,7.114c1.529,1.679,3.009,3.962,2.241,6.1-.647,1.835-2.632,2.774-4.453,3.457-2.262.854-4.788,1.608-7.043.747a25.29,25.29,0,0,1-3.607-2.234c-2.981-1.771-6.737-1.778-9.8-3.415-4.311-2.3-6.459-7.377-10.514-10.116-2.22-1.494-5.286-2.717-5.513-5.385a6.509,6.509,0,0,1,.6-2.8c.818-2.177,2.212-9.654,5.328-9.454C404.789,231.179,407.165,238.03,409.69,239.829Z" transform="translate(-212.246 -95.509)" fill="#fbbebe"/>
    <path id="Trazado_325" data-name="Trazado 325" d="M371.041,188.409c1.3,4.681,4.325,8.672,7.462,12.385,2.255,2.668,4.731,5.57,4.809,9.063.071,3.3-2.134,6.338-4.98,8.024a21.1,21.1,0,0,1-9.49,2.44,23.938,23.938,0,0,1-7.868-.548c-6.5-1.764-11.012-7.434-16.127-11.816-3.038-2.6-6.452-4.859-8.778-8.11s-3.308-7.918-1.017-11.2a16.2,16.2,0,0,1,2.846-2.846,47.563,47.563,0,0,0,9.81-11.773c1.053-1.786,2.063-3.721,3.834-4.795,2.54-1.544,5.8-.839,8.672-.085,3.123.818,11.923,2.419,12.535,6.4.249,1.636-1.778,4.183-2.084,5.94a15.735,15.735,0,0,0,.377,6.915Z" transform="translate(-194.433 -77.431)" fill="#fbbebe"/>
    <path id="Trazado_326" data-name="Trazado 326" d="M382.052,201.723a30.038,30.038,0,0,1,2.291,5.3c2.17,7.541-1.707,15.309-3.557,22.935-2.362,9.767-1.359,19.983-1.473,30.035-.05,4.6-.541,9.653-3.849,12.84a11.923,11.923,0,0,0-2.454,2.518,10.421,10.421,0,0,0-.79,2.355,12.136,12.136,0,0,1-17.585,7.242c-2.7-1.5-5.037-4.1-8.124-4.183a23.547,23.547,0,0,0-2.9.32c-3.073.306-6.082-.832-8.963-1.949a5.847,5.847,0,0,1-1.892-1.01c-.519-.477-.854-1.117-1.33-1.629-1.757-1.892-4.759-1.565-7.292-2.091a10.208,10.208,0,0,1-7.733-7.733,19.953,19.953,0,0,1,.349-7.448l1.906-11a101.258,101.258,0,0,0,1.658-12.214,51.22,51.22,0,0,0-1.181-13.808c-.839-3.7-2.091-7.32-2.547-11.09a27.1,27.1,0,0,1,4.98-19.072c.989-1.359,2.284-2.717,3.962-2.846a6.66,6.66,0,0,1,3.813,1.3q15.387,9.106,30.988,17.834a36.662,36.662,0,0,0,8.928,4c.953.242,2.319.142,2.454-.825a1.8,1.8,0,0,0-.277-1.046c-1.779-3.422-4.354-6.36-6.4-9.618s-3.628-7.114-3.023-10.9c.825-5.236,5.691-8.7,9.668-4.6C376.141,190.006,379.129,196,382.052,201.723Z" transform="translate(-189.36 -81.824)" fill="#fff"/>
    <path id="Trazado_327" data-name="Trazado 327" d="M356.281,298.206c8.345.534,16.874,1.1,24.6,4.3,2.483,1.024,5.115,2.348,7.726,1.714a10.33,10.33,0,0,0,3.557-1.906,81.375,81.375,0,0,0,9.091-7.754c-.285-1.558-2.4-1.771-3.977-1.757a23.767,23.767,0,0,1-11.069-2.661,18.656,18.656,0,0,0-3.557-1.658c-3.379-.932-6.822.847-10.215,1.714-5.022,1.28-10.315.534-15.444-.221l-13.844-2.042c-1.288-.185-2.739-.334-3.763.462a4.6,4.6,0,0,0-1.345,2.412c-1.693,5.691-.882,6.168,4.752,6.523Z" transform="translate(-195.445 -111.914)" fill="#fbbebe"/>
    <circle id="Elipse_82" data-name="Elipse 82" cx="22.764" cy="22.764" r="22.764" transform="translate(327.102 41.995)" opacity="0.1"/>
    <circle id="Elipse_83" data-name="Elipse 83" cx="22.764" cy="22.764" r="22.764" transform="translate(326.938 41.006)" fill="#fbbebe"/>
    <path id="Trazado_328" data-name="Trazado 328" d="M639.292,86.961c1.821,1.124,3.728,2.333,4.724,4.226a21.151,21.151,0,0,1,1.216,3.984c1.245,4.268,4.56,7.975,4.759,12.421.22,4.873-3.436,9.106-7.576,11.66a5.62,5.62,0,0,1-3.258,1.1,10.477,10.477,0,0,1-3.344-1.316c-4.674-2.077-9.9.555-14.854,1.764a26.662,26.662,0,0,1-15.508-.911,14.674,14.674,0,0,1-6.929-4.8c-1.672-2.312-2.269-5.549-.847-8.032.711-1.266,1.892-2.412,1.814-3.856a19.942,19.942,0,0,0-.711-2.5,5.759,5.759,0,0,1,1.209-3.841,55.6,55.6,0,0,1,12.307-13.922,8.8,8.8,0,0,1,4.93-2.39c3.742-.164,6.957,2.625,10.806,2.639C632.4,83.191,635.536,84.642,639.292,86.961Z" transform="translate(-270.375 -52.094)" fill="#333"/>
    <circle id="Elipse_84" data-name="Elipse 84" cx="23.476" cy="23.476" r="23.476" transform="translate(242.426 12.01)" opacity="0.1"/>
    <circle id="Elipse_85" data-name="Elipse 85" cx="23.476" cy="23.476" r="23.476" transform="translate(242.838 11.434)" fill="#be6f72"/>
    <path id="Trazado_329" data-name="Trazado 329" d="M513.238,88.73c3.315,1.857,7.405,1.665,11.1.818a14.939,14.939,0,0,0,5.833-2.461,7.036,7.036,0,0,0,2.938-5.407c0-2.383-1.565-4.532-1.757-6.915-.235-3,1.721-5.776,1.928-8.793s-1.281-5.734-2.732-8.323c-2.5-4.446-5.094-8.949-8.892-12.35s-9.063-5.57-14.043-4.425c-2.447.562-4.716,1.878-7.213,2.134-2.22.206-4.411-.462-6.623-.747s-4.7-.107-6.281,1.423c-.868.854-1.423,2.056-2.44,2.682a14.641,14.641,0,0,1-2.134.79c-2.568,1.032-3.742,3.927-4.652,6.531l-6.1,17.493c2.042,1.423,4.5,2.07,6.737,3.166s4.4,2.846,4.859,5.293c.349,1.857-.313,3.991.768,5.542.989,1.423,3,1.665,4.709,1.423s3.422-.832,5.129-.569c4.268.647,5.855,3.265,9.8,0S509.568,86.667,513.238,88.73Z" transform="translate(-234.383 -40.56)" fill="#333"/>
    <circle id="Elipse_86" data-name="Elipse 86" cx="21.342" cy="21.342" r="21.342" transform="translate(145.208 66.509)" opacity="0.1"/>
    <circle id="Elipse_87" data-name="Elipse 87" cx="21.342" cy="21.342" r="21.342" transform="translate(146.033 65.35)" fill="#fbbebe"/>
    <path id="Trazado_330" data-name="Trazado 330" d="M370.606,128.873a56.285,56.285,0,0,0-16.881-8.878c-3.9-1.266-8.138-2.134-12.094-.967-5.364,1.529-12.542,3.813-15.864,8.3a23.779,23.779,0,0,0-4.083,7.114c-1.579,5.307.669,10.962.519,16.5-.178,6.452-3.6,12.343-7.334,17.607s-4.489,12.8-6.694,18.88c-.754,2.084-1,4.98.946,6.025,1.707.946,3.77-.235,5.35-1.373l9.5-6.865a7.235,7.235,0,0,1,2.5-1.337c1.956-.455,3.87.768,5.506,1.928L351.9,199.89a6.111,6.111,0,0,0,.092-5.179c1.871.576,3.23,2.134,4.873,3.244s4.14,1.473,5.335-.078.292-3.635-1.039-4.887-3.08-2-4.382-3.287c-2.582-2.568-2.846-6.623-4.475-9.867-1.167-2.276-3.052-4.183-3.877-6.609-1.345-3.962.413-8.231,2.134-12.044,2.056-4.524,4.382-9.355,8.757-11.717,1.473-.8,3.1-1.266,4.61-1.992,3.756-1.8,8.444-6.047,10.279-9.853C375.813,134.244,373.337,130.978,370.606,128.873Z" transform="translate(-186.891 -63.047)" fill="#333"/>
    <path id="Trazado_331" data-name="Trazado 331" d="M337.324,231.947c2.042,1.3,4.347,2.134,6.353,3.493s3.763,3.422,3.82,5.84c.057,2.312-1.423,4.339-2.846,6.175L327.322,270.2l8.835,2.34c-1.423,1.963-1.786,4.467-2.525,6.772s-2.134,4.7-4.5,5.307c-2.134.548-4.368-.576-6.573-.448-1.629.1-3.166.868-4.795.932-2.1.078-4.048-1.024-5.8-2.191-3.9-2.611-7.768-6.353-7.74-11.048a16.708,16.708,0,0,1,.946-4.652c2.554-8.33,5.2-16.86,10.493-23.789a74.683,74.683,0,0,1,9.8-9.924,9.141,9.141,0,0,1,2.746-1.9c2.276-.854,4.759.2,7.114.882s5.321.783,6.68-1.231" transform="translate(-185.913 -95.594)" opacity="0.1"/>
    <path id="Trazado_332" data-name="Trazado 332" d="M336.276,229.957c2.042,1.295,4.347,2.134,6.353,3.493s3.763,3.422,3.827,5.833-1.423,4.347-2.846,6.182l-17.336,22.722,8.835,2.34c-1.423,1.963-1.786,4.46-2.525,6.772s-2.134,4.7-4.5,5.307c-2.134.548-4.368-.576-6.573-.448-1.629.092-3.166.868-4.795.925-2.1.078-4.048-1.024-5.8-2.191-3.9-2.6-7.768-6.353-7.733-11.041a16.363,16.363,0,0,1,.939-4.652c2.554-8.337,5.2-16.867,10.493-23.789a76.707,76.707,0,0,1,9.8-9.959,9.4,9.4,0,0,1,2.746-1.9c2.276-.854,4.759.2,7.114.889s5.321.783,6.68-1.231" transform="translate(-185.612 -95.006)" fill="#fff"/>
    <g id="Grupo_36" data-name="Grupo 36" transform="translate(326.502 44.99)" opacity="0.1">
      <path id="Trazado_333" data-name="Trazado 333" d="M599.262,121.053a14.659,14.659,0,0,0,6.929,4.8,26.542,26.542,0,0,0,15.508.911c4.98-1.209,10.18-3.841,14.854-1.764a10.456,10.456,0,0,0,3.336,1.323,5.691,5.691,0,0,0,3.265-1.1,16.831,16.831,0,0,0,6.794-7.42,1.831,1.831,0,0,0,.043.477c.221,4.873-3.436,9.106-7.576,11.66a5.62,5.62,0,0,1-3.258,1.1,10.477,10.477,0,0,1-3.344-1.316c-4.674-2.077-9.9.555-14.854,1.764a26.663,26.663,0,0,1-15.508-.911,14.674,14.674,0,0,1-6.929-4.8c-1.672-2.312-2.269-5.549-.847-8.032l.107-.178A8.7,8.7,0,0,0,599.262,121.053Z" transform="translate(-596.877 -107.771)" fill="#333"/>
      <path id="Trazado_334" data-name="Trazado 334" d="M600.957,105.194a4.991,4.991,0,0,1-1.238,2.945,4.5,4.5,0,0,1-.206-.711,5.486,5.486,0,0,1,1.074-3.628A4.733,4.733,0,0,1,600.957,105.194Z" transform="translate(-597.625 -103.8)"/>
    </g>
    <path id="Trazado_335" data-name="Trazado 335" d="M479.933,54.5l-6.1,17.486c2.042,1.423,4.5,2.077,6.737,3.166s4.4,2.846,4.859,5.293c.349,1.857-.313,3.991.768,5.549.989,1.423,3,1.658,4.709,1.423s3.422-.832,5.129-.569c4.268.647,5.855,3.265,9.8.036s5.378.6,9.049,2.668c3.315,1.864,7.405,1.672,11.1.818a14.939,14.939,0,0,0,5.833-2.454,9.084,9.084,0,0,0,.711-.647,7.926,7.926,0,0,1-2.39,2.959,14.94,14.94,0,0,1-5.833,2.461c-3.7.847-7.825,1.039-11.1-.818-3.671-2.063-5.179-5.826-9.049-2.668s-5.549.612-9.8,0c-1.707-.263-3.415.327-5.129.569s-3.721,0-4.709-1.423c-1.081-1.551-.42-3.685-.768-5.542-.455-2.447-2.625-4.2-4.859-5.293s-4.7-1.75-6.737-3.166l6.132-17.536c.711-1.928,1.494-4.012,2.917-5.385a23.888,23.888,0,0,0-1.266,3.073Z" transform="translate(-234.377 -43.695)" fill="#333" opacity="0.1"/>
    <g id="Grupo_37" data-name="Grupo 37" transform="translate(120.735 63.23)" opacity="0.1">
      <path id="Trazado_336" data-name="Trazado 336" d="M368.286,198.643c1.572.711,3.557.818,4.553-.512,1.117-1.423.292-3.628-1.039-4.887s-3.08-2-4.382-3.287c-2.582-2.561-2.846-6.616-4.475-9.86-1.167-2.284-3.052-4.19-3.877-6.616-1.345-3.955.413-8.231,2.134-12.037,2.056-4.524,4.382-9.355,8.757-11.716,1.473-.8,3.1-1.266,4.61-1.992,3.756-1.8,8.444-6.054,10.28-9.86,1.544-3.208-.633-6.324-3.223-8.437,1.259.818,2.49,1.679,3.685,2.6,2.739,2.134,5.207,5.371,3.557,8.736-1.835,3.806-6.523,8.053-10.279,9.853-1.508.711-3.137,1.2-4.61,1.992-4.375,2.362-6.7,7.192-8.757,11.717-1.729,3.813-3.486,8.081-2.134,12.044.825,2.426,2.71,4.332,3.877,6.609,1.65,3.244,1.892,7.3,4.475,9.867,1.3,1.288,3.052,2.027,4.382,3.287s2.134,3.436,1.039,4.887-3.7,1.152-5.335.078C370.421,200.358,369.418,199.376,368.286,198.643Z" transform="translate(-322.337 -129.44)"/>
      <path id="Trazado_337" data-name="Trazado 337" d="M310.432,214.484l9.5-6.858a7.256,7.256,0,0,1,2.5-1.345c1.956-.448,3.87.775,5.506,1.935L347.858,222.3a6.125,6.125,0,0,0,.092-5.186c1.828.569,3.159,2.091,4.745,3.159a5.317,5.317,0,0,0-.711-.263,6.111,6.111,0,0,1-.092,5.179L331.973,211.1c-1.636-1.16-3.557-2.383-5.506-1.928a7.235,7.235,0,0,0-2.5,1.337l-9.5,6.865c-1.579,1.138-3.642,2.319-5.35,1.373a3.123,3.123,0,0,1-1.487-2.746,10.308,10.308,0,0,0,2.8-1.522Z" transform="translate(-307.628 -151.59)"/>
    </g>
    <path id="Trazado_338" data-name="Trazado 338" d="M625.272,279.809S584.51,283.074,576.4,277.3l37.291-5.748Z" transform="translate(-264.465 -107.226)" fill="#e3e8f4"/>
    <path id="Trazado_339" data-name="Trazado 339" d="M625.272,279.809S584.51,283.074,576.4,277.3l37.291-5.748Z" transform="translate(-264.465 -107.226)" opacity="0.1"/>
    <path id="Trazado_340" data-name="Trazado 340" d="M622.862,277.154l-11.418-7.228s-34.061,9.789-43.394,5.748l9.5-13.324,33.748,6.58Z" transform="translate(-262.055 -104.57)" fill="#e3e8f4"/>
    <path id="Trazado_341" data-name="Trazado 341" d="M567.3,142.079a20.011,20.011,0,0,0-2.995,5.257c-.327,1-.491,2.049-.768,3.066a23.563,23.563,0,0,1-3.557,7.05c-3.507,5.1-7.889,10.023-8.771,16.148a27.234,27.234,0,0,0,.64,9.091,24.542,24.542,0,0,0,1.679,5.741c.9,1.949,2.248,3.664,3.279,5.549a39.4,39.4,0,0,1,2.376,5.748,28.2,28.2,0,0,0,2.91-4.268c.975-1.423,2.426-2.7,4.14-2.725,1.978,0,3.607,1.636,5.563,1.892a1.586,1.586,0,0,0,.911-.085c.711-.334.768-1.295.711-2.063-.562-5.371-3.635-10.671-2.184-15.878,1.337-4.816,6.118-7.825,8.629-12.143,1.821-3.137,2.362-6.836,2.845-10.436a64.668,64.668,0,0,0,.946-12.976c-.135-2.184-1.871-15.985-5.044-14.541-1.1.5-2.063,2.611-2.753,3.557l-2.846,4.034Z" transform="translate(-257.148 -65.333)" fill="#333"/>
    <path id="Trazado_342" data-name="Trazado 342" d="M295.069,232.138l-22.885,18.631-29.444-5.264,19.826-15.565Z" transform="translate(-70.059 -66.362)" fill="#e3e8f4"/>
    <path id="Trazado_343" data-name="Trazado 343" d="M296.229,230.508l-22.885,18.631L243.9,243.875l19.826-15.565Z" transform="translate(-70.393 -65.892)" opacity="0.1"/>
    <path id="Trazado_344" data-name="Trazado 344" d="M296,229.115l-22.885,18.624-29.451-5.257,19.833-15.572Z" transform="translate(-70.324 -65.488)" fill="#e3e8f4"/>
    <path id="Trazado_345" data-name="Trazado 345" d="M296.927,226.088l-22.892,18.631-29.444-5.264,19.833-15.565Z" transform="translate(-70.593 -64.616)" opacity="0.1"/>
    <path id="Trazado_346" data-name="Trazado 346" d="M296.689,224.7,273.8,243.329l-29.444-5.264L264.186,222.5Z" transform="translate(-70.526 -64.215)" fill="#e3e8f4"/>
    <g id="Grupo_42" data-name="Grupo 42">
      <path id="Trazado_347" data-name="Trazado 347" d="M876.98,623.849h0a3.685,3.685,0,0,1,5.286,3.023l1.273,16.511-7.555,1.366L872,632.813Z" transform="translate(-349.78 -208.798)" fill="#707070"/>
      <g transform="matrix(1, 0, 0, 1, 0, 0.01)" filter="url(#Trazado_348)">
        <path id="Trazado_348-2" data-name="Trazado 348" d="M458.76,468.078,343.139,526.753a8.046,8.046,0,0,0,.057,14.363l249.02,124.969a30.227,30.227,0,0,0,28.406-.711l104.887-59.145A8.046,8.046,0,0,0,725.032,592L465.867,468a8.046,8.046,0,0,0-7.107.078Z" transform="translate(-195.88 -163.7)" fill="#707070"/>
      </g>
      <path id="Trazado_349" data-name="Trazado 349" d="M342.245,536.56l-3.621,2.689-.285,12.876a5.35,5.35,0,0,0,2.9,4.88l253.274,129.97a3.77,3.77,0,0,0,5.5-3.351v-18.7Z" transform="translate(-195.757 -183.712)" fill="#707070"/>
      <path id="Trazado_350" data-name="Trazado 350" d="M458.756,447.1,343.135,505.765a8.046,8.046,0,0,0,.036,14.363L592.212,645.1a30.248,30.248,0,0,0,28.406-.711L725.5,585.233a8.046,8.046,0,0,0-.477-14.228L465.863,447.012a8.046,8.046,0,0,0-7.107.085Z" transform="translate(-195.871 -157.64)" fill="#e3e8f4"/>
      <path id="Trazado_351" data-name="Trazado 351" d="M351.495,421.86,224.1,486.546,443.057,596.028l131.378-66.685Z" transform="translate(-64.679 -121.754)" fill="#fff"/>
      <ellipse id="Elipse_88" data-name="Elipse 88" cx="13.438" cy="7.96" rx="13.438" ry="7.96" transform="translate(445.063 438.449)" fill="#afafaf"/>
      <circle id="Elipse_89" data-name="Elipse 89" cx="1.245" cy="1.245" r="1.245" transform="translate(212.17 319.513)" fill="#afafaf"/>
      <circle id="Elipse_90" data-name="Elipse 90" cx="1.494" cy="1.494" r="1.494" transform="translate(208.194 328.967)" fill="#afafaf"/>
      <line id="Línea_9" data-name="Línea 9" y1="6.964" x2="14.932" transform="translate(215.158 321.007)" fill="none" stroke="#afafaf" stroke-miterlimit="10" stroke-width="1"/>
      <rect id="Rectángulo_72" data-name="Rectángulo 72" width="74.283" height="25.61" rx="12.805" transform="translate(294.194 391.093) rotate(-30)" fill="#afafaf"/>
      <rect id="Rectángulo_73" data-name="Rectángulo 73" width="74.283" height="25.61" rx="12.805" transform="translate(331.897 410.302) rotate(-30)" fill="#afafaf"/>
      <rect id="Rectángulo_74" data-name="Rectángulo 74" width="74.283" height="25.61" rx="12.805" transform="translate(260.048 369.042) rotate(-30)" fill="#afafaf"/>
    </g>
  </g>
</svg>
