<svg xmlns="http://www.w3.org/2000/svg" xmlns:xlink="http://www.w3.org/1999/xlink" width="527.609" height="546.509" viewBox="0 0 527.609 546.509"><defs><filter id="a" x="250.63" y="23.593" width="276.979" height="500.978" filterUnits="userSpaceOnUse"><feOffset dy="15" input="SourceAlpha"/><feGaussianBlur stdDeviation="10" result="b"/><feFlood flood-color="#707070" flood-opacity="0.122"/><feComposite operator="in" in2="b"/><feComposite in="SourceGraphic"/></filter><linearGradient id="c" x1="0.499" y1="1" x2="0.499" gradientUnits="objectBoundingBox"><stop offset="0" stop-color="gray" stop-opacity="0.251"/><stop offset="0.54" stop-color="gray" stop-opacity="0.122"/><stop offset="1" stop-color="gray" stop-opacity="0.102"/></linearGradient></defs><g transform="translate(0)"><g transform="translate(277.643 38.593)" opacity="0.9"><rect width="6.486" height="53.454" rx="2.29" transform="translate(0 100.027)" fill="#fff"/><rect width="3.638" height="17.598" rx="1.819" transform="translate(218.392 58.154)" fill="#fff"/><rect width="4.099" height="30.629" rx="2.05" transform="translate(218.062 90.371)" fill="#fff"/><rect width="3.902" height="30.892" rx="1.951" transform="translate(218.194 131.717)" fill="#fff"/><g transform="matrix(1, 0, 0, 1, -277.64, -38.59)" filter="url(#a)"><rect width="216.979" height="440.978" rx="38.99" transform="translate(280.63 38.59)" fill="#fff"/></g><g transform="translate(90.547 12.752)"><rect width="30.299" height="6.149" rx="3.075" transform="translate(11.566 0.41)" fill="#e6e8ec"/><circle cx="3.492" cy="3.492" r="3.492" transform="translate(0)" fill="#e6e8ec"/></g></g><ellipse cx="68.578" cy="6.991" rx="68.578" ry="6.991" transform="translate(234.328 532.527)" fill="#afafaf" opacity="0.05"/><ellipse cx="68.578" cy="6.991" rx="68.578" ry="6.991" transform="translate(0 497.301)" fill="#afafaf" opacity="0.05"/><path d="M504.022,174.84h24.816v2.994a14.187,14.187,0,0,0,14.187,14.187h79.193a14.187,14.187,0,0,0,14.187-14.187V174.84h23.308a17.225,17.225,0,0,1,17.225,17.232V575.614a17.225,17.225,0,0,1-17.225,17.232H504.022a17.232,17.232,0,0,1-17.232-17.232V192.072A17.232,17.232,0,0,1,504.022,174.84Z" transform="translate(-192.734 -124.769)" fill="#f8f9fa"/><path d="M793.576,132.7s61.638-3.719,54.369,39.472c0,0,1.464,7.635-5.476,11.1,0,0-.11-3.2-6.318-2.116a28.14,28.14,0,0,1-6.7.322,13.909,13.909,0,0,1-8.192-3.375h0s-17.32-7.159-24.062-35.475c0,0-4.985-6.178-4.788-7.767l10.4,4.444s-3.55,7.5-.732,13.741c0,0,.337-13.47,2.335-13.177.41.059,5.41,2.6,5.41,2.6s-6.12,13.067-1.464,22.569c0,0-1.75-16.105,3.411-21.625l7.32,4.275s-7.145,13.5-2.306,24.516c0,0-1.237-16.9,3.843-23.477l6.632,5.176s-6.713,13.3-2.621,22.437c0,0,.542-19.663,4.063-21.149,0,0,5.805,5.124,6.691,7.218,0,0-4.6,9.663-1.75,14.758,0,0,1.75-13.1,3.184-13.177,0,0,5.783,8.682,6.383,14.641,0,0-.249-8.85-4.978-15.461,0,0,5.586.959,8.85,4.583,0,0-.9-6.135-10.249-6.676,0,0-4.78-6.588-6.061-6.984,0,0,9.334-.783,14.992,1.728,0,0-4.978-5.79-16.705-3.155l-6.544-5.351s12.284-1.676,17.5.176c0,0-6-5.124-19.267-1.391l-7.13-4.261s10.476-2.262,16.72-1.464c0,0-6.588-3.55-18.806.3l-5.124-2.291s7.679-1.508,9.927-1.75,2.365-.856,2.365-.856a26.61,26.61,0,0,0-14.516,1.654S793.393,133.381,793.576,132.7Z" transform="translate(-586.061 -113.456)" fill="#fff"/><path d="M747.767,106.477s27.818-1.676,24.568,17.84a4.761,4.761,0,0,1-2.474,5.015s-.051-1.464-2.855-.959a12.819,12.819,0,0,1-3.023.146,6.31,6.31,0,0,1-3.7-1.523h0s-7.826-3.236-10.871-16.032c0,0-2.255-2.789-2.2-3.507l4.7,2.006s-1.6,3.389-.337,6.208c0,0,.146-6.083,1.054-5.944.183,0,2.438,1.179,2.438,1.179s-2.76,5.9-.674,10.2c0,0-.791-7.277,1.537-9.773l3.309,1.933s-3.228,6.1-1.039,11.076c0,0-.564-7.635,1.735-10.607l3,2.343s-3.038,6.01-1.186,10.139c0,0,.242-8.887,1.83-9.561,0,0,2.628,2.313,3.023,3.265,0,0-2.072,4.392-.783,6.669,0,0,.791-5.922,1.464-5.952,0,0,2.613,3.924,2.884,6.588a14.246,14.246,0,0,0-2.247-6.984,7.841,7.841,0,0,1,4,2.072s-.4-2.774-4.641-3.016c0,0-2.16-2.979-2.738-3.162,0,0,4.217-.351,6.771.783,0,0-2.247-2.613-7.547-1.464l-2.928-2.416s5.549-.732,7.906.081c0,0-2.716-2.313-8.7-.63l-3.221-1.925s4.729-1.018,7.547-.652c0,0-2.972-1.6-8.492.132l-2.306-1.032s3.463-.681,4.48-.791,1.069-.388,1.069-.388a11.976,11.976,0,0,0-6.508.732S747.686,106.784,747.767,106.477Z" transform="translate(-477.032 -106.441)" fill="#fff"/><path d="M872.751,630.54s-6.332,8.287,2.928,20.79,16.888,23.06,13.8,30.856c0,0-13.967-23.22-25.336-23.55S860.248,644.507,872.751,630.54Z" transform="translate(-678.107 -246.875)" fill="#e95841"/><path d="M873.245,630.54a10.434,10.434,0,0,0-1.3,2.6c-11.091,13.03-17,25.2-6.332,25.5,9.927.285,21.844,18.045,24.692,22.525a8.384,8.384,0,0,1-.337,1.025s-13.967-23.22-25.336-23.55S860.741,644.507,873.245,630.54Z" transform="translate(-678.601 -246.875)" opacity="0.1"/><path d="M896.42,644.316c0,2.928.329,5.278.732,5.278s.732-2.365.732-5.278-.41-1.537-.813-1.537S896.42,641.388,896.42,644.316Z" transform="translate(-713.547 -250.066)" fill="#ffd037"/><path d="M898.672,648.987c2.562,1.391,4.788,2.24,4.985,1.881s-1.728-1.772-4.29-3.17-1.545-.373-1.742,0S896.11,647.589,898.672,648.987Z" transform="translate(-719.84 -251.282)" fill="#ffd037"/><path d="M834.66,630.54s6.332,8.287-2.928,20.79-16.888,23.06-13.806,30.856c0,0,13.967-23.22,25.336-23.55S847.163,644.507,834.66,630.54Z" transform="translate(-606.561 -246.875)" fill="#e95841"/><path d="M834.287,630.54a10.134,10.134,0,0,1,1.3,2.6c11.091,13.031,17,25.2,6.339,25.5-9.934.285-21.844,18.045-24.7,22.525a9.87,9.87,0,0,0,.337,1.025s13.967-23.22,25.336-23.55S846.79,644.507,834.287,630.54Z" transform="translate(-606.188 -246.875)" opacity="0.1"/><path d="M822.014,644.316c0,2.928-.329,5.278-.732,5.278s-.732-2.365-.732-5.278.41-1.537.813-1.537S822.014,641.388,822.014,644.316Z" transform="translate(-582.137 -250.066)" fill="#ffd037"/><path d="M817.878,648.987c-2.555,1.391-4.788,2.24-4.978,1.881s1.72-1.772,4.282-3.17,1.552-.373,1.742,0S820.411,647.589,817.878,648.987Z" transform="translate(-573.938 -251.282)" fill="#ffd037"/><path d="M889.173,696.107s-17.708-.549-23.045-4.348-27.239-8.338-28.55-2.24-26.61,30.314-6.588,30.475,46.456-3.119,51.778-6.361S889.173,696.107,889.173,696.107Z" transform="translate(-651.317 -261.879)" fill="#fff"/><path d="M830.613,721.366c19.992.161,46.456-3.118,51.778-6.361,4.063-2.467,5.673-11.332,6.215-15.424h.593s-1.12,14.282-6.449,17.525-31.785,6.523-51.778,6.362c-5.769-.051-7.767-2.1-7.657-5.124C824.12,720.18,826.316,721.329,830.613,721.366Z" transform="translate(-651.342 -265.374)" fill="#fff" opacity="0.2"/><rect width="57.122" height="57.122" transform="translate(317.635 313.645)" fill="#3a3768" opacity="0.3"/><rect width="57.122" height="57.122" transform="translate(401.82 238.244)" fill="#3a3768" opacity="0.3"/><rect width="57.122" height="57.122" transform="translate(396.33 387.757)" fill="#3a3768" opacity="0.3"/><rect width="57.122" height="57.122" transform="translate(409.075 97.991)" fill="#fff"/><path d="M564.808,265.79l-2.028,2.02a7.152,7.152,0,0,1,0,10.124l2.028,2.035a10.029,10.029,0,0,0,0-14.18Z" transform="translate(-116.093 -149.139)" fill="#e95841"/><path d="M558.343,259.849l-2,2a12.723,12.723,0,0,1,0,17.979l2,2a15.534,15.534,0,0,0,0-21.961Zm-9.517,7.482V258.18h-2.818l-8.433,7.028H526.331l-2.811,1.406v9.846l2.811,1.406,7.057,11.252H537.6l-2.635-11.252H537.6l8.433,5.629h2.818v-9.151a3.594,3.594,0,0,0,0-7.013Z" transform="translate(-105.573 -147.1)" fill="#e95841"/><rect width="57.122" height="57.122" transform="matrix(-0.742, -0.671, 0.671, -0.742, 333.115, 373.735)" fill="#fff"/><path d="M712.673,548.3l-4.143-3.763-22.693,25.014,4.173,3.777Zm-9.787,23.426-4.173-3.77-6.588,7.32,4.173,3.77Zm-8.741-15.49-4.173-3.777L679.6,563.929l4.165,3.77Zm-.593-11.918-4.173-3.777L673.34,558.263l4.173,3.777Z" transform="translate(-365.031 -222.759)" fill="#e95841"/><rect width="57.122" height="57.122" transform="translate(318.579 166.826)" fill="#fff"/><path d="M677.664,363.732,670,375.445a4.172,4.172,0,0,1,.952,2.665,4.224,4.224,0,0,1-8.44,0,4.65,4.65,0,0,1,.073-.783l-5.066-2.928a4.239,4.239,0,0,1-5,.63l-5.388,5.044V385.1a3.763,3.763,0,0,0,3.755,3.755h31.873a3.77,3.77,0,0,0,3.755-3.755V366.419L681.39,363a4.173,4.173,0,0,1-2.584.893,4.3,4.3,0,0,1-1.113-.154Z" transform="translate(-319.708 -175.187)" fill="#e95841"/><path d="M654.6,363.215a4.217,4.217,0,0,1,4.224,4.217,2.732,2.732,0,0,1-.037.549l5.285,2.928a4.15,4.15,0,0,1,2.672-.952,4.056,4.056,0,0,1,.908.1l7.687-11.9a4.217,4.217,0,1,1,7.657-2.445,4.389,4.389,0,0,1-.117,1l3.66,2.423v-7.042a3.763,3.763,0,0,0-3.755-3.748h-31.9a3.755,3.755,0,0,0-3.755,3.748v20.161l3.514-3.367a4.261,4.261,0,0,1-.264-1.464,4.217,4.217,0,0,1,4.217-4.2Z" transform="translate(-319.708 -171.258)" fill="#e95841"/><rect width="57.122" height="57.122" transform="translate(390.788 230.514)" fill="#fff"/><path d="M585.929,435.458,550.79,454.491a.732.732,0,0,0,.051,1.31l6,2.262a1.464,1.464,0,0,1,.791.732l4.656,9.59c.088.425.871.542.878.11l-.732-7.928a2.818,2.818,0,0,1,.644-1.6l18.213-17.847a.454.454,0,0,1,.4-.117.417.417,0,0,1,.227.666l-15.7,19.194a3.507,3.507,0,0,0-.615,1.581l-.937,6.845c.073.6.542.827.922.293l3.382-3.975a.732.732,0,0,1,1-.161l8.719,6.354a.732.732,0,0,0,1.105-.432l7.152-35.138a.732.732,0,0,0-1.025-.791Z" transform="translate(-149.317 -194.578)" fill="#e95841"/><path d="M1032.569,776.743c-3.323.432-6.771.732-9.956-.337-.49-.154-1.054-.49-.988-1a1.172,1.172,0,0,1,.227-.483,31.052,31.052,0,0,0,3.023-5.732.468.468,0,0,1,.183-.256.446.446,0,0,1,.322,0c1.464.381,2.738,1.332,4.2,1.735a6,6,0,0,0,2.284.176c.659-.073,1.567-.622,2.16-.556C1033.66,772.467,1032.825,774.525,1032.569,776.743Z" transform="translate(-941.342 -283.951)" fill="#e95841"/><path d="M1110.475,767.836c-2.2-1.464-4.465-3.089-5.761-5.41a.888.888,0,0,1-.154-.461.951.951,0,0,1,.183-.454,18.754,18.754,0,0,1,4.678-5.051,13.832,13.832,0,0,1,2.614,2.408c.549.578,2.072,1.53,2.086,2.394,0,.52-.578,1.083-.849,1.464-.366.542-.732,1.1-1.047,1.654A27.473,27.473,0,0,0,1110.475,767.836Z" transform="translate(-1082.152 -280.616)" fill="#e95841"/><path d="M995.1,784.751a2.2,2.2,0,0,0,.4,1.464,1.955,1.955,0,0,0,.842.49c4.656,1.662,10.014-.417,14.641,1.23.959.337,1.859.82,2.818,1.142a15.259,15.259,0,0,0,3.492.622c1.647.161,3.294.256,4.941.3a11.952,11.952,0,0,0,3.719-.322,4.5,4.5,0,0,0,2.855-2.262,2.2,2.2,0,0,0,.139-1.611,1.824,1.824,0,0,0-.3-.52,4.459,4.459,0,0,0-1.1-.886l-1.713-1.105a11.438,11.438,0,0,0-2.591-1.376c-.673-.22-1.4-.315-2.079-.512-2.408-.732-4.239-2.613-5.944-4.444l-2.328-2.482a2.277,2.277,0,0,0-.805-.644,2.2,2.2,0,0,0-1-.1,13.448,13.448,0,0,0-6.347,2.138,9.16,9.16,0,0,1-1.567.922,5.593,5.593,0,0,1-4.392-.549c-.6-.315-.469-.512-.732-1.076s-.864-.93-1.391-.41a1.529,1.529,0,0,0-.329.63,17.466,17.466,0,0,0-.315,5.176,2.3,2.3,0,0,1-.1.805,4.909,4.909,0,0,1-.454.732,1.145,1.145,0,0,0-.1.19,5.08,5.08,0,0,0-.264,2.46Z" transform="translate(-916.906 -285.239)" fill="#333"/><path d="M995.1,787.892a2.2,2.2,0,0,0,.4,1.464,1.955,1.955,0,0,0,.842.49c4.656,1.662,10.014-.417,14.641,1.23.959.337,1.859.82,2.818,1.142a15.259,15.259,0,0,0,3.492.622c1.647.161,3.294.256,4.941.3a11.951,11.951,0,0,0,3.719-.322,4.5,4.5,0,0,0,2.855-2.262,2.2,2.2,0,0,0,.139-1.611,1.82,1.82,0,0,0-.3-.52c-.278.571-.476,1.318-.644,1.589a3.25,3.25,0,0,1-2.2,1.574,5.571,5.571,0,0,1-1.984-.256c-4.217-1.047-8.7-1.061-12.738-2.643a30.429,30.429,0,0,0-4.173-1.6,33.161,33.161,0,0,0-4.51-.366c-2.379-.19-4.678-.908-7.028-1.281A5.08,5.08,0,0,0,995.1,787.892Z" transform="translate(-916.903 -288.381)" fill="#464353"/><path d="M1088.16,768.647a8.449,8.449,0,0,0,2.569,4.575,29.334,29.334,0,0,1,3.587,3.931c1.215,1.845,1.75,4.121,3.316,5.681a8.976,8.976,0,0,0,1.991,1.464,13.764,13.764,0,0,0,2.584,1.186,19.78,19.78,0,0,0,7.321.4,6.506,6.506,0,0,0,2.313-.454,6.708,6.708,0,0,0,.981-.593,4.657,4.657,0,0,0,1.464-1.515,1.523,1.523,0,0,0,.139-1.091,2.491,2.491,0,0,0-.732-1.069,16.537,16.537,0,0,0-1.764-1.589,10.477,10.477,0,0,1-2.3-2.021,6.591,6.591,0,0,1-.886-2.02,18.116,18.116,0,0,1-.644-3.843,12.1,12.1,0,0,0-.271-2.569c-.373-1.318-1.354-2.511-1.237-3.88a1,1,0,0,0-.051-.586.916.916,0,0,0-.461-.285,8.34,8.34,0,0,0-2.4-.549,2.767,2.767,0,0,0-2.2.871c-.344.41-.564.981-1.069,1.164a1.773,1.773,0,0,1-.732,0,6.227,6.227,0,0,1-3.485-1.076,4.392,4.392,0,0,1-1.464-3.2c0-.454.2-.93-.49-1.025-.534-.073-.952.483-1.223.849a11.948,11.948,0,0,0-2.35,4.282,1.184,1.184,0,0,0-.447-.088,1.911,1.911,0,0,0-1.6.82,3.163,3.163,0,0,0-.469,2.225Z" transform="translate(-1070.466 -281.712)" fill="#333"/><path d="M1088.405,770.511a8.449,8.449,0,0,0,2.57,4.575,29.33,29.33,0,0,1,3.587,3.931c1.215,1.845,1.75,4.121,3.316,5.681a8.978,8.978,0,0,0,1.991,1.464,13.757,13.757,0,0,0,2.584,1.186,19.779,19.779,0,0,0,7.32.4,6.508,6.508,0,0,0,2.313-.454,6.721,6.721,0,0,0,.981-.593,4.656,4.656,0,0,0,1.464-1.515,3.565,3.565,0,0,0-1.508-.359c-1.091.059-1.881,1.083-2.928,1.4-1.464.447-2.928-.6-4.458-.959-.981-.227-2.021-.161-2.979-.476a7.356,7.356,0,0,1-2.2-1.332,11.15,11.15,0,0,1-2.35-2.269,14.475,14.475,0,0,1-1.384-2.753,39.328,39.328,0,0,0-2.789-5.336,3.546,3.546,0,0,0-.571-.732c-.227-.212-.512-.366-.732-.556a5.823,5.823,0,0,1-1.771-3.228,5.405,5.405,0,0,0-.4-1.076,1.911,1.911,0,0,0-1.6.82A3.163,3.163,0,0,0,1088.405,770.511Z" transform="translate(-1070.712 -283.576)" fill="#464353"/><path d="M1001.369,553.45a10.628,10.628,0,0,0-2.987,3.492c-.732,1.376-4.751,12.064-4.517,13.594-1.318-1.332-6.545-1.552-7.855-2.877-.556-.556-3.565-3.338-4.012-3.982s-3.8-2.028-4.165-2.687c-1.369-2.452,9.707-11.713,8.294-14.172a.6.6,0,0,1-.117-.381.586.586,0,0,1,.183-.293,17.616,17.616,0,0,1,3.206-2.2,5.125,5.125,0,0,0,2.445-2.928,10.521,10.521,0,0,1,2.833,1.918q3.038,2.6,5.988,5.329c.776.732,2.255,1.662,2.613,2.679S1002.109,552.85,1001.369,553.45Z" transform="translate(-878.51 -222.888)" fill="#a1616a"/><path d="M1026.122,552.61a32.093,32.093,0,0,1,4.744,3.88,9.492,9.492,0,0,1,3.023,4.839c.139.732.117,1.508.234,2.262.49,3.28,3.338,5.688,4.59,8.785a15.01,15.01,0,0,1,.805,2.928,34.513,34.513,0,0,1,.571,5.754c0,1.874-1.8,3.162-2.474,4.912a29.782,29.782,0,0,0-1.193,5.322,64.836,64.836,0,0,1-2.994,9.883c-2.474,6.83-10.49,25.717-12.965,32.554-7.577-1.9-27.752-6.274-34.457-10.249-2.24-1.332,15.519-16.383,13.125-17.423a1.208,1.208,0,0,1-.666-.505,1.157,1.157,0,0,1,0-.732c2.386-10.461,9.875-19.033,13.265-29.282,1.179-3.536,3.294-6.552,4.9-9.919,1.464-3.045,2.233-6.405,3.968-9.3a6.216,6.216,0,0,1,1.266-1.589,7.768,7.768,0,0,1,1.405-.842C1024.233,553.379,1025.156,553.093,1026.122,552.61Z" transform="translate(-921.19 -225.993)" fill="#514e7f"/><circle cx="11.859" cy="11.859" r="11.859" transform="translate(110.598 305.651)" fill="#a1616a"/><path d="M1044.918,547.4a3.975,3.975,0,0,0-4.458-.637,2.2,2.2,0,0,0-1.325,2.138l-5.856.088a12.257,12.257,0,0,0-2.789.256,4.055,4.055,0,0,0-2.328,1.464c-.073.1-.154.205-.271.227a.468.468,0,0,1-.271-.1,5.161,5.161,0,0,0-2.928-.527,15.828,15.828,0,0,0-8.609,3.785,2.788,2.788,0,0,0-1.025,1.252c-.2.666,0,1.523-.483,1.977,0,5.527-1.9,10.673-3.162,16.054a7.114,7.114,0,0,1-1.779,2.555,10.249,10.249,0,0,0-1.9,2.84c-1.069,2.789.41,6.061-.637,8.865a14.279,14.279,0,0,1-2.021,3.184,8.206,8.206,0,0,0-1.72,4.114c-.044.673.044,1.347,0,2.028a12.361,12.361,0,0,1-.483,2.665c-.425,1.618-.878,3.236-1.347,4.846-.732,2.606-1.757,5.424-4.092,6.815,5.644.959,11.588,1.889,16.969-.066a8.784,8.784,0,0,0,2.115-1.061c1.94-1.384,2.877-3.755,3.712-5.988a28.144,28.144,0,0,0,2.079-7.73,8.843,8.843,0,0,1,.351-2.526c.549-1.464,2-2.335,3.331-3.141a16.025,16.025,0,0,0,4-3.118,6.222,6.222,0,0,0,1.625-4.685c-.1-.827-.425-1.625-.461-2.46a1.969,1.969,0,0,1,1.142-2.028c4.107-1.245,6.069-6.105,6.984-10.3a32.868,32.868,0,0,0,.527-6.588l.051-4.239a5.623,5.623,0,0,0,1.845-4.055,4.546,4.546,0,0,1,0-1.34,3.753,3.753,0,0,1,.937-1.464,12.373,12.373,0,0,0,2.277-3.1Z" transform="translate(-934.525 -224.314)" fill="#464353"/><path d="M993.619,565.01a31.351,31.351,0,0,0,.132,3.982c.117.5.315.974.461,1.464a8.639,8.639,0,0,1-.549,5.578,31,31,0,0,1-2.848,4.941,7.525,7.525,0,0,0-.915,1.706,8.839,8.839,0,0,0-.351,1.955,59.514,59.514,0,0,1-1.4,7.862,15.446,15.446,0,0,1-2.767,6.318,1.919,1.919,0,0,1-1.142.776,2.064,2.064,0,0,1-.974-.2l-3.031-1.149a2.116,2.116,0,0,1-.732-.381,1.838,1.838,0,0,1-.425-1.186,17.43,17.43,0,0,1,1.332-7.181c2.46-6.984,5.725-13.711,7.321-20.937.447-2.02.681-5.124,2.152-6.7.608-.659.4-.381,1.127,0a9.174,9.174,0,0,1,1.061.564A3.477,3.477,0,0,1,993.619,565.01Z" transform="translate(-870.591 -228.364)" fill="#464353"/><path d="M1059.24,625.68" transform="translate(-994.095 -245.573)" fill="#464353"/><path d="M1005.9,576.888q-1.208,6.391-2.467,12.789l-11.771-3.089a8.245,8.245,0,0,1,1.018-3.521c1.076-2.694,1.1-5.688,1.969-8.455.659-2.108,1.8-4.048,2.416-6.171.359-1.23.534-2.518.886-3.755a28.67,28.67,0,0,1,1.384-3.58,22.8,22.8,0,0,1,2.569-4.766c1.508.564,3.111,1.215,3.968,2.57a5.463,5.463,0,0,1,.732,2.533c.2,2.65-.732,5.307-.432,7.928a23.429,23.429,0,0,1-.271,7.518Z" transform="translate(-892.005 -226.993)" fill="#e95841"/><path d="M1079.267,652.715c-.659,2.518.3,5.124,1.076,7.628a59.228,59.228,0,0,1,2.4,11.486,9.516,9.516,0,0,0,.593,2.928,27.333,27.333,0,0,0,1.427,2.343c1.186,2.094,1.157,4.656.9,7.05-.168,1.581-.425,3.155-.732,4.714-.388,1.9-.864,3.887-.307,5.739-.93-.2-1.567,1-1.53,1.955s.373,1.984-.08,2.826c-1.157.417-1.171,2.006-1.135,3.228a27.227,27.227,0,0,1-.8,6.325q-2.621,12.584-5.563,25.1c-4.239,1.318-9.187,2.687-13.228.864a2.6,2.6,0,0,1-1.676-1.684,3.03,3.03,0,0,1,.161-1.3l1.918-6.969a12.833,12.833,0,0,0,.688-5.124c-.19-1.3-.732-2.687-.117-3.821a11.012,11.012,0,0,1,.805-1.069c1.01-1.464.483-3.433.4-5.219a4.087,4.087,0,0,1,.088-1.193,6.26,6.26,0,0,1,.564-1.31,20.008,20.008,0,0,0,2.2-9.956,2.446,2.446,0,0,1,.176-1.3,2.987,2.987,0,0,0,.322-.527,1.412,1.412,0,0,0-.1-.959,8.33,8.33,0,0,0,1.545-1.464,2.2,2.2,0,0,1-.366-3.382,1.127,1.127,0,0,1-.542-1.94c.249-.176.571-.249.732-.5.271-.366.051-.886-.168-1.281l-1.171-2.116c-.871-1.567-1.069-3.506-2.006-5.036a37.791,37.791,0,0,1-3.089-7.05l-3.338-9.3-2.269,1.969a7.108,7.108,0,0,0-1.867,2.13,8.991,8.991,0,0,0-.6,2.548c-.835,5.051-4.019,9.429-5.2,14.414a9.717,9.717,0,0,1-1.069,3.221,6.963,6.963,0,0,0-.615.922,4.853,4.853,0,0,0-.256,1.53,7.13,7.13,0,0,1-3.009,5.124c-1.113.732-2.526,1.3-3.111,2.511a4.953,4.953,0,0,1-.512,1.069c-.542.651-1.713.732-1.947,1.545-.124.461.117,1-.146,1.406a1.282,1.282,0,0,1-.549.41l-3.272,1.64c-3.66,1.823-5.505,6-8.206,9.07a18.835,18.835,0,0,0-2.452,3.25c-1.164,2.079-1.706,4.692-3.66,6.032a5.684,5.684,0,0,0-1.42,1.054c-.622.813-.4,1.955-.447,2.979s-.842,2.24-1.815,1.933a7.064,7.064,0,0,1,0,3.785,19.077,19.077,0,0,1-11.566-4.685,4.564,4.564,0,0,1-1.881-3.155,1.221,1.221,0,0,1,.139-.63,1.712,1.712,0,0,1,.732-.556c3.053-1.654,3.975-5.49,5.505-8.609,1.354-2.745,3.345-5.124,5.036-7.672,3.66-5.49,6.105-12.13,11.6-15.761,1.208-.8,2.613-1.508,3.214-2.826a22.54,22.54,0,0,0,.644-2.343,1.969,1.969,0,0,1,1.72-1.464,10.444,10.444,0,0,1-.4-3.66,4.55,4.55,0,0,1,.183-1.574,7.437,7.437,0,0,1,.805-1.552,15.043,15.043,0,0,0,2.072-8.052,12.967,12.967,0,0,1,.139-4.326c.22-.732.6-1.34.871-2.02a12.6,12.6,0,0,0,.63-3.77l.3-4.824a23.082,23.082,0,0,1,.622-4.766c1.018-3.741,1.991-19.414,5.439-21.178s9.334,10.293,13.177,10.534a17.57,17.57,0,0,1,5.036.966,24.411,24.411,0,0,1,6.83,4.531l7.115,5.973a25.933,25.933,0,0,0,4.414,3.185Z" transform="translate(-979.811 -246.02)" fill="#333"/><path d="M985.243,520.947a8.946,8.946,0,0,0-6.9-3.367,16.1,16.1,0,0,0-7.628,1.918,9.837,9.837,0,0,1-2.2.915c-1.259.256-2.65-.088-3.785.512-1.508.8-1.793,2.833-1.662,4.531s.447,3.558-.454,5.014a13.873,13.873,0,0,0-.871,1.3,4.348,4.348,0,0,0,.081,2.789,22.394,22.394,0,0,0,1.464-1.837,1.7,1.7,0,0,1,2.072-.542c.644.432.644,1.23.673,1.94s.22,1.567.893,1.8a1.464,1.464,0,0,0,1.464-.586c1.149-1.406.688-3.66,1.823-5.066.651-.805,1.728-1.193,2.328-2.035.469-.659.586-1.515,1-2.2s1.369-1.237,2.013-.732a2.738,2.738,0,0,1,.534.732,3.082,3.082,0,0,0,3.66,1.1,6.42,6.42,0,0,1,1.589-.681,1.954,1.954,0,0,1,1.808.981,3.9,3.9,0,0,1,.476,2.094c0,.988-.176,2.072.4,2.877a2.972,2.972,0,0,0,.849.732,2.513,2.513,0,0,0,2.782.286,2.094,2.094,0,0,0,.622-1.947,16.027,16.027,0,0,0-.593-2.057c-.439-1.552.132-3.3-.351-4.766A15,15,0,0,0,985.243,520.947Z" transform="translate(-851.651 -216.607)" fill="#464353"/><path d="M997.051,562.7a1.83,1.83,0,0,1-.11,1.091,1.771,1.771,0,0,1-.593.571,12.283,12.283,0,0,1-5.593,1.808,1.685,1.685,0,0,0-.732.2,1.384,1.384,0,0,0-.329,1.559,4.152,4.152,0,0,1,.351,1.654c-.146,1.047-1.384,1.523-2.438,1.654a5.651,5.651,0,0,1-4.239-.82,6.537,6.537,0,0,1-1.75-2.628c-2.877-6.588-3.887-13.909-6.8-20.5a4.165,4.165,0,0,1-.439-1.369,1.361,1.361,0,0,1,.542-1.266c.542-.337,1.384-.146,1.75-.666.183-.271.161-.63.322-.908.337-.6,1.215-.527,1.823-.849.469-.256.8-.732,1.318-.871a1.684,1.684,0,0,1,1.376.593c1.706,1.6,2.606,3.858,3.558,6a71.2,71.2,0,0,0,5.124,9.451c-.227-.351,1.083-3.023,1.6-3.126.893-.183,2.05,1.391,2.533,1.984A12.561,12.561,0,0,1,997.051,562.7Z" transform="translate(-869.814 -222.978)" fill="#e95841"/><rect width="57.122" height="57.122" transform="translate(64.127 349.091)" fill="#fff"/><path d="M1014.48,606.766v-7.5h18.726v33.747H996.64V606.766Zm11.237,22.5h3.741v-3.748h-3.741Zm0-7.5h3.741v-3.748h-3.741Zm0-7.5h3.741v-3.755h-3.741Zm0-7.5h3.741v-3.755h-3.741Zm-7.489,22.5h3.733v-3.748h-3.741Zm0-7.5h3.733v-3.748h-3.741Zm0-7.5h3.733v-3.755h-3.741Zm0-7.5h3.733v-3.755h-3.741Zm-17.847,22.5h14.1v-3.748h-3.741v-3.748h3.741v-3.748h-3.741v-3.755h3.741v-3.748h-14.1Zm3.28-14.992h3.741v3.755h-3.741Zm0,7.5h3.741v3.755h-3.741Z" transform="translate(-922.235 -238.496)" fill="#e95841"/><path d="M1064.6,625.234a23.069,23.069,0,0,1,2.709,2.84,5.659,5.659,0,0,1,1.244,3.66,1.883,1.883,0,0,1-.351,1.069.915.915,0,0,1-1.018.315,1.467,1.467,0,0,1-.5-.447,23.421,23.421,0,0,0-1.684-1.83c-.22-.212-.5-.439-.791-.359a.835.835,0,0,0-.344.227,2.329,2.329,0,0,0-.732,1.105,2.62,2.62,0,0,0,.776,2.13,5.521,5.521,0,0,1,1.31,1.94.826.826,0,0,1,0,.622,1.016,1.016,0,0,1-.388.337,5.651,5.651,0,0,1-4.736.307c-1.018-.4-1.9-1.105-2.928-1.464a7.042,7.042,0,0,1-1.3-.483,2.665,2.665,0,0,1-1.149-1.713,7.319,7.319,0,0,1-.081-2.116,24.155,24.155,0,0,1,1.764-7.979.952.952,0,0,1,.286-.425,1,1,0,0,1,.483-.139c1.281-.132,3.389-.791,4.626-.315a3.16,3.16,0,0,1,1.091.974C1063.176,623.748,1064.6,624.9,1064.6,625.234Z" transform="translate(-1000.008 -244.68)" fill="#a1616a"/><path d="M1044.744,607.579c0-1.23,1.523-4.18-.886-4.392,0-1.3,1.852-2.123,1.515-3.5-.117-.469-.49-.842-.549-1.31-.154-1.34,2.262-2.064,1.867-3.353-.146-.49-.681-.791-.8-1.288-.271-1.157,1.8-1.676,1.838-2.862,0-.4-.22-.783-.2-1.179,0-.505.439-.886.681-1.318.622-1.12.322-2.855,1.464-3.426-.732.059-1.017-1.061-.7-1.75s.952-1.281.952-2.042a3.25,3.25,0,0,1,0-.842c.212-.732,1.413-.783,1.611-1.515a7.792,7.792,0,0,0,0-.827c.073-.571.659-.922,1.208-1.091a4.8,4.8,0,0,0,1.611-.571c.351-.271.732-.732,1.135-.476.139.081.212.242.322.366.447.52,1.3.293,1.874-.1a7.751,7.751,0,0,0,2.87-5.168c.366-1.991.344-4.048.783-6.025a13.837,13.837,0,0,1,.534-1.8,9.322,9.322,0,0,0,.849-1.8c.088-1.149-2.3-.366-3.206-.249a14.232,14.232,0,0,0-2.606.49,27.566,27.566,0,0,0-2.657,1.164c-3.66,1.6-7.994,1.8-10.907,4.487-.959.886-1.764,2.042-3,2.438a15.328,15.328,0,0,0-1.684.439c-1.384.652-1.6,2.482-2.35,3.807a8.159,8.159,0,0,0-.622,1.1,4.326,4.326,0,0,0-.2,1.406l-.1,3.477a128.452,128.452,0,0,0,.278,17.452,14.405,14.405,0,0,1-.066,5.71c-.146.5-.359.974-.483,1.464a9.973,9.973,0,0,0-.19,1.808l-.081,2.247a.542.542,0,0,0,.718.666c3.14-.278,6.3-2.05,9.268-.981" transform="translate(-979.716 -228.16)" fill="#464353"/><path d="M982.425,611.913a.966.966,0,0,1,.351.293,2.5,2.5,0,0,1,0,2.972,1,1,0,0,0-.176.293.864.864,0,0,0,.088.5,1.647,1.647,0,0,1-.227,1.845c-.227.19-.534.285-.681.534-.256.425.1.966.044,1.464-.073.652-.842.974-1.464,1.054a1.559,1.559,0,0,1-1.428-.381,1.186,1.186,0,0,1,0-1.3,3.469,3.469,0,0,1,.966-.966,1.464,1.464,0,0,1-1.384-1.34,2.079,2.079,0,0,1,.835-1.823c.132-.11.293-.22.329-.4s-.139-.417-.3-.586c-.732-.732-1.3-2.526.081-2.928a3.389,3.389,0,0,1,1.464.066c.351.11.351.322.622.469S982.117,611.759,982.425,611.913Z" transform="translate(-859.024 -241.666)" fill="#a1616a"/><path d="M991.71,543.14a2.415,2.415,0,0,1,1.859.937,5.351,5.351,0,0,1,.776,2.489,21.821,21.821,0,0,0,2.928,7.95" transform="translate(-882.694 -223.456)" opacity="0.1"/><path d="M995.32,545.88a2.84,2.84,0,0,1,2.43,1.464,8.124,8.124,0,0,1,.615,2.482,13.486,13.486,0,0,0,2.438,5.2" transform="translate(-888.866 -224.19)" opacity="0.1"/><path d="M628.509,761.665c.593-2.511.952-4.707.952-4.707a9.752,9.752,0,0,1,1.091-4.78v-.688h0v-5.051a16.7,16.7,0,0,0-1.274-2.643c-.908-1.581,0-7.394,0-7.394s3.367-8.192,2.555-13.389,6.911-23.081,6.911-23.081a22.8,22.8,0,0,0-.732-5.124,3.7,3.7,0,0,1-.1-1.069.8.8,0,0,1,0-.132v.044c.117-3.426,2.826-9.853,2.826-9.853l-.366-12.24s-1.728-7.225,1.091-16.918c.988-3.382,1.618-6.083,2.02-8.177.044-.234.088-.461.124-.681-5.805-.886-10.249-1.625-10.249-1.625s3.367-14.092,5.644-16.559,4.092-10.212,4.092-10.212,1.186-9.956-.732-12.862-2.2-7.928-2.2-7.928-4.392-3.17-4.912-4.583a23.206,23.206,0,0,1-1.464-6.252c0-1.676.549-3.17.366-4.055s1.274-4.224.542-5.812a4.254,4.254,0,0,1-.285-1.53.1.1,0,0,1,0-.044h0a21.756,21.756,0,0,1,.388-4.136,11.713,11.713,0,0,1,4.319-2.313l.1-.373.249-.988a3.33,3.33,0,0,1,.432-.256v-1.83l-.681-3.221c-1.347-5.586,6.12-6.42,6.12-6.42a3.938,3.938,0,0,1,2.116-1.859c1.464-.527.249,8.419-.454,8.99a29.111,29.111,0,0,0-2.928,4.612h0l-.132.227a2.981,2.981,0,0,1,.344.359l-.286,1.94-.044.3a7.971,7.971,0,0,1,1.193,2.028,4.327,4.327,0,0,0-1.091,3.177,9.956,9.956,0,0,1-.454,3.872c.081-.1,1.039-1.135,2-.878s3.66,1.054,3.66,1.054,2.006.351,1.823.791,1.362,2.379,1.362,2.379l5.38-5.124c.059-.154.11-.307.161-.461a12.292,12.292,0,0,0,.461-2.2,11.96,11.96,0,0,1-1.713-.549,3.712,3.712,0,0,1-1.464-.952,5.812,5.812,0,0,1-.864-2.321,32.212,32.212,0,0,0-2-4.451,14.48,14.48,0,0,1-1.039-7.943,5.284,5.284,0,0,1,.82-2.342c.878-1.208,2.474-1.7,3.66-2.665s1.9-2.43,3.258-3.155a6.42,6.42,0,0,1,4.085-.351,21.83,21.83,0,0,1,7.621,2.767,3.918,3.918,0,0,0,2.555.842,3.448,3.448,0,0,0,1.837-1.347.358.358,0,0,0,0-.08l.066-.066a9.64,9.64,0,0,1,.835,4.026v.864a1.679,1.679,0,0,0,0,.19h0a1.287,1.287,0,0,0,.044.285,2.072,2.072,0,0,0,.5.732,3.243,3.243,0,0,1,.439.6.647.647,0,0,0-.073-.22,3.177,3.177,0,0,1,.564,1.691,1.684,1.684,0,0,1-.41,1.215,5.856,5.856,0,0,1-.871.732,10.253,10.253,0,0,1,.154,1.786,10.41,10.41,0,0,1-5.066,8.88l-.183.461a12.8,12.8,0,0,0-.974,5.856.989.989,0,0,0,.066.432l.19.22h0s8.887.088,10.981-1.808,5.278,4.627,5.278,4.627,3.184.622,3.821,0,4.392-.088,4.392-.088a8.053,8.053,0,0,1,5.549-2.02,16.306,16.306,0,0,1,4.078-2.269h0l.1-.037h0a4.552,4.552,0,0,1,2.006-.249s4.392-3.616,5.637-5.549,7.32-9.129,7.372-9.165v-.344l.073-1.047a4.1,4.1,0,0,0,.542.051,1.272,1.272,0,0,1,.124-.366,19.76,19.76,0,0,1,1.288-2.928s0-1.318-.388-1.647.161-5.176.161-5.176,3.938-9.2,7.46-2.335c0,0,6.669,4.444,1.076,9.626,0,0-2.2,1.076-2.548,1.933-.212.556-.966,2.116-1.464,3.148l-.227.461.066.051-.088.864v.337c1.054.593,1.764,1.186,1.6,1.64a9.635,9.635,0,0,0-.637,2.379S719,578.9,717.994,583.046c0,0-20.746,12.328-27.569,13.213l1.179,6.164a48.754,48.754,0,0,1,.271,5.022c-.088,1.318.82,7.32.82,7.32s1.186,8.785,2.2,10.036.82,6.523.82,6.523a43.992,43.992,0,0,0,1.362,7.482,19.012,19.012,0,0,1,.271,7.489s3.463,7.928-4.824,2.555c0,0-4.063-.249-8.785-.41v2.408c.059,4.539.088,10.8-.117,15.534-.366,8.367-2.928,24.89-2.928,24.89v8.316a11.635,11.635,0,0,1,.234,2.379,15.416,15.416,0,0,1-2.24,8.331l-.637,5.549a22.984,22.984,0,0,0-1.523,5.856,2.879,2.879,0,0,0,.066.527,3.933,3.933,0,0,1,.073.849c.081,2.518-1.464,8.55-1.464,8.55s-.1,6.076-1,6.427c-.776.3,1.039,3.507,1.581,4.392a1.471,1.471,0,0,0,.037-.176c.066.117.11.183.11.183a4.27,4.27,0,0,1,.285,1.537,2.2,2.2,0,0,1-1.01,2.138c-1.728,1.061-2.657,1.94-1.193,2.291a14.513,14.513,0,0,1,1.6.337c0-.066.059-.139.081-.2a.981.981,0,0,1,.571,1.018,4.5,4.5,0,0,1-.549,2.057,21.965,21.965,0,0,1-2.46,4.495l-.732-.081a3.456,3.456,0,0,0,.41.732,2.834,2.834,0,0,0,1.025.908,3.278,3.278,0,0,0,1.245.432,3.47,3.47,0,0,1,2.577,1.252c.908,1.171,1.464,2.774-.315,4.18l-6.508,2.24s-11.193,1.464-10.6-1.054.952-4.707.952-4.707a9.934,9.934,0,0,1,.915-4.458,4.4,4.4,0,0,1,.4-.659l-.4-.044s-.82-5.549-1.911-6.588c-.256-.242-.315-.432-.249-.578-.117-.3.168-.476.534-.578l.081.22a5.5,5.5,0,0,1,1.083-.117s.366-2.928-.813-3.968a1.12,1.12,0,0,1-.234-.864,4.978,4.978,0,0,1,.125-1.186l.044.073a42.28,42.28,0,0,1,2.613-6.83s.088-2.643-.637-3.7.088-14.355.088-14.355-.271-6.427.549-9.421-1-6.523-1-6.523v-.234s.044-.4.11-1.018v.066c.183-1.706.527-4.788.783-6.208.366-2.028-.088-11.713-.088-11.713l-1.64-4.136-2.928,7.13-3.089,9.517a8.088,8.088,0,0,0-1.574,4.041v.3a4.78,4.78,0,0,1,0,.637,5.68,5.68,0,0,1-.944,3.389s-.82,4.495-2.094,5.637a5.074,5.074,0,0,0-1.274,3.345s-1.545,6.523-2.277,7.664c-.615.966-.644,3.616-.637,4.392h0v.242s-.212,2.328-.205,4.29v.681a6.824,6.824,0,0,0,.19,1.581v-.234a16.3,16.3,0,0,1,.469,4.063c.044,2.343-.315,5.124-1.735,6.742-2.46,2.818-4,2.467-4,2.467s1.186,3.521,2.643,4.231a.888.888,0,0,1,.154.1.408.408,0,0,1,.037-.205,1.72,1.72,0,0,1,.425,1.318,9.428,9.428,0,0,1-1.8,5.219,2.884,2.884,0,0,1-1.23.732l.227.139a5.134,5.134,0,0,0,.505.242,2.386,2.386,0,0,0,.732.19,3.47,3.47,0,0,1,2.577,1.252c.908,1.171,1.464,2.774-.315,4.18L639,762.719S627.945,764.212,628.509,761.665Z" transform="translate(-351.795 -224.285)" fill="url(#c)"/><path d="M711.944,841.681l6.3-2.24c1.735-1.406,1.179-3.009.3-4.18a3.316,3.316,0,0,0-2.489-1.252,3.082,3.082,0,0,1-1.208-.432,2.856,2.856,0,0,1-1-.908,4.634,4.634,0,0,1-.732-2.438s-6.918-2.02-8.785,0a5.167,5.167,0,0,0-.842,1.23,10.248,10.248,0,0,0-.879,4.458s-.351,2.2-.922,4.707S711.944,841.681,711.944,841.681Z" transform="translate(-392.479 -300.142)" fill="#333"/><path d="M754.062,837.479l6.3-2.24c1.742-1.406,1.186-3.009.307-4.173a3.309,3.309,0,0,0-2.5-1.259,2.279,2.279,0,0,1-.732-.19,3.713,3.713,0,0,1-.483-.242c-1.764-.966-1.72-3.345-1.72-3.345s-6.911-2.028-8.785,0a4.894,4.894,0,0,0-.659.9,10.057,10.057,0,0,0-1.062,4.787s-.351,2.2-.922,4.707S754.062,837.479,754.062,837.479Z" transform="translate(-465.424 -299.016)" fill="#333"/><path d="M710.062,830.231a5.169,5.169,0,0,0-.842,1.23h0l10.366,1.2a4.634,4.634,0,0,1-.732-2.438S711.951,828.21,710.062,830.231Z" transform="translate(-398.21 -300.142)" opacity="0.1"/><path d="M749.31,826.885v1.94c1.61,2.657,9.407,2.079,11.669.732a3.705,3.705,0,0,1-.483-.242c-1.764-.966-1.72-3.345-1.72-3.345s-6.911-2.028-8.785,0A4.9,4.9,0,0,0,749.31,826.885Z" transform="translate(-468.951 -299)" opacity="0.1"/><path d="M695.4,778.446a17.286,17.286,0,0,1,1.237,2.643v6.962c1.757,2.928,10.922,1.94,12.152.351s2.555-5.725,1.149-6.427-2.555-4.231-2.555-4.231,1.464.351,3.873-2.467,1.669-9.07,1.23-10.571,0-6.515,0-6.515-.088-3.521.615-4.67,2.2-7.664,2.2-7.664a5.2,5.2,0,0,1,1.23-3.345c1.23-1.149,2.028-5.637,2.028-5.637a5.776,5.776,0,0,0,.878-3.785c-.264-2.2,1.5-4.583,1.5-4.583l2.994-9.517,2.818-7.138,1.581,4.136s.447,9.692.088,11.713-.878,7.394-.878,7.394,1.764,3.529.966,6.523-.527,9.421-.527,9.421-.791,13.3-.088,14.363.615,3.66.615,3.66-3.609,7.752-2.46,8.785.791,3.968.791,3.968-2.467,0-1.413,1.054,1.852,6.588,1.852,6.588l10.666,1.347a22.555,22.555,0,0,0,2.386-4.495c1.406-3.258-.264-2.928-1.684-3.258s-.52-1.23,1.157-2.291.732-3.433.732-3.433-2.555-4.319-1.676-4.67.974-6.427.974-6.427,1.757-7.225,1.318-9.158,1.413-6.588,1.413-6.588l.615-5.549a15.256,15.256,0,0,0,1.9-10.5v-8.572s2.467-16.559,2.826-24.89c.22-5.359.161-12.672.088-17.24-.044-2.555-.088-4.253-.088-4.253l-38.066-3.96a31.536,31.536,0,0,1-.7,5.651c-.388,2.086-1,4.795-1.947,8.177a37.188,37.188,0,0,0-1.061,16.91l.351,12.24s-3.345,8.192-2.643,10.981a23.254,23.254,0,0,1,.732,5.124s-7.489,17.884-6.7,23.081-2.474,13.353-2.474,13.353S694.522,776.894,695.4,778.446Z" transform="translate(-416.278 -258.927)" fill="#333"/><path d="M748.772,752.875,737.22,751.33S743.75,758.021,748.772,752.875Z" transform="translate(-447.893 -279.241)" opacity="0.05"/><path d="M748.566,735.87s-.4,4.092,2.108,5.637C750.674,741.507,746.186,740.8,748.566,735.87Z" transform="translate(-457.592 -275.098)" opacity="0.1"/><path d="M731.121,718.06s9.678,7.972,13.177,7.32S731.121,718.06,731.121,718.06Z" transform="translate(-439.437 -270.326)" opacity="0.1"/><path d="M707.252,758.55s7.32,1.676,7.569,4.627S707.252,758.55,707.252,758.55Z" transform="translate(-392.011 -281.176)" opacity="0.1"/><path d="M710.674,808.72s10.388,1.94,7.438,3.265a50.368,50.368,0,0,1-7.8,2.372S706.97,814.532,710.674,808.72Z" transform="translate(-397.051 -294.619)" opacity="0.05"/><g transform="translate(278.731 420.224)" opacity="0.05"><path d="M706.826,815.448a2.057,2.057,0,0,0,.952-1.508l.1.19s.974,2.372-.732,3.433c-.19.117-.373.242-.542.359-.307-.059-.644-.1-.959-.183C704.257,817.417,705.15,816.531,706.826,815.448Z" transform="translate(-662.395 -716.241)"/><path d="M724.617,814.415c-.286-.263-.271-.944-.1-1.815a4.912,4.912,0,0,1,.593,2.555,1.956,1.956,0,0,0-.49-.739Z" transform="translate(-693.575 -715.882)"/><path d="M721.954,755.22a12.124,12.124,0,0,1,.732,3.236,12.8,12.8,0,0,0-.805-2.2A6.54,6.54,0,0,1,721.954,755.22Z" transform="translate(-689.309 -700.507)"/><path d="M755.226,748.546a4.187,4.187,0,0,1-.1-.966c.132.659.22,1.274.286,1.808C755.358,749.11,755.3,748.832,755.226,748.546Z" transform="translate(-746.379 -698.46)"/><path d="M722.479,797.285a5.545,5.545,0,0,1-.263-1.954,6.45,6.45,0,0,1,.505,2.467A2.37,2.37,0,0,0,722.479,797.285Z" transform="translate(-689.585 -711.255)"/><path d="M705.4,820.68a35.224,35.224,0,0,1,1.208,5.41l10.651,1.237a22.07,22.07,0,0,0,2.386-4.495,7.843,7.843,0,0,0,.3-.776c.637.293.893.952.051,2.928a21.811,21.811,0,0,1-2.386,4.487l-10.644-1.237s-.8-5.549-1.852-6.588C704.594,821.083,704.923,820.819,705.4,820.68Z" transform="translate(-674.686 -718.047)"/><path d="M696.449,767.293s-.088,6.083-.966,6.435h0c-.447-1-.732-1.955-.344-2.116.878-.351.966-6.427.966-6.427s1.764-7.225,1.318-9.165,1.413-6.588,1.413-6.588l.615-5.549a15.286,15.286,0,0,0,1.94-10.483v-8.558s2.467-16.559,2.818-24.926c.227-5.359.161-12.672.088-17.24v-2.2h.3s.044,1.691.088,4.253c.073,4.561.139,11.881-.088,17.24-.351,8.367-2.818,24.926-2.818,24.926v8.543a15.234,15.234,0,0,1-1.984,10.571l-.615,5.549s-1.852,4.663-1.406,6.588S696.449,767.293,696.449,767.293Z" transform="translate(-651.666 -680.48)"/><path d="M758.066,824.977a10.248,10.248,0,0,0,1.684-4.187c1.091.981-.161,4.795-1.332,6.3s-10.4,2.555-12.159-.359v-1.676C748.644,827.422,756.894,826.478,758.066,824.977Z" transform="translate(-744.636 -718.077)"/><path d="M765.78,812.88a17.607,17.607,0,0,1,1.23,2.643v1.237c-.2-.454-.483-1.054-.878-1.764a5.336,5.336,0,0,1-.388-2.2Z" transform="translate(-765.74 -715.936)"/><path d="M743.855,810.046a16.968,16.968,0,0,1-.871-2.094s1.464.351,3.88-2.467c1.728-2.05,1.823-5.922,1.581-8.455.439,1.5,1.149,7.752-1.23,10.571C745.656,809.453,744.492,809.929,743.855,810.046Z" transform="translate(-730.967 -711.71)"/><path d="M722.9,770.41a48.4,48.4,0,0,0-.176,5.219c-.059-.344-.124-.622-.176-.82-.447-1.464,0-6.515,0-6.515s-.088-3.528.615-4.67,2.2-7.665,2.2-7.665a5.2,5.2,0,0,1,1.23-3.345c1.23-1.149,2.028-5.637,2.028-5.637a5.777,5.777,0,0,0,.886-3.785c-.271-2.2,1.464-4.583,1.464-4.583l2.994-9.517L736.816,722l1.589,4.136s0,.52.051,1.34l-1.288-3.36-2.818,7.13-2.994,9.517s-1.757,2.379-1.464,4.575a5.791,5.791,0,0,1-.915,3.748s-.791,4.487-2.021,5.637a5.228,5.228,0,0,0-1.237,3.345s-1.464,6.515-2.2,7.664S722.9,770.41,722.9,770.41Z" transform="translate(-705.422 -691.605)"/></g><path d="M742.015,563.738l.659,3.221-.037,1.464v1.054l3.66.381.41-.732h0a31.15,31.15,0,0,1,2.855-4.612c.681-.571,1.889-9.517.439-8.982a3.836,3.836,0,0,0-2.05,1.852S740.712,558.145,742.015,563.738Z" transform="translate(-453.201 -226.77)" fill="#ffcdd3"/><path d="M747.33,574.008l3.66.381.41-.732h0a3.236,3.236,0,0,0-4.055-.666Z" transform="translate(-457.923 -231.337)" opacity="0.1"/><path d="M747.02,575.867l4.839,1.127.1-.732.278-1.94a3.331,3.331,0,0,0-4.693-.644l-.241.988Z" transform="translate(-458.535 -231.454)" fill="#dce6f2"/><path d="M630.881,561.575l5.168,2.782.469-.981c.5-1.032,1.23-2.584,1.464-3.14.307-.857,2.467-1.94,2.467-1.94,5.417-5.176-1.032-9.619-1.032-9.619C636,541.8,632.191,551,632.191,551s-.527,4.853-.154,5.176.373,1.654.373,1.654a20.121,20.121,0,0,0-1.252,2.928C630.961,561.275,630.881,561.575,630.881,561.575Z" transform="translate(-263.891 -224.256)" fill="#ffcdd3"/><path d="M639.21,566.931l5.168,2.782.469-.981c-.732-.608-3.316-2.709-4.165-2.613a6.063,6.063,0,0,1-1.23,0C639.29,566.631,639.21,566.931,639.21,566.931Z" transform="translate(-272.22 -229.612)" opacity="0.1"/><path d="M639.42,568.627l5.812,2.862.117-1.252.081-.857s-3.367-2.892-4.392-2.782a5.4,5.4,0,0,1-1.523,0l-.066,1.047Z" transform="translate(-272.957 -229.741)" fill="#dce6f2"/><path d="M705.484,588.738s25.351,2.862,20.614,1.325c-3.3-1.076-4.612-3.17-4.89-5.5a13.39,13.39,0,0,1,.944-5.856,25.448,25.448,0,0,1,2.269-4.583s-19.377-10.659-15.5-.966a15.194,15.194,0,0,1,1.1,4.59,12.942,12.942,0,0,1-.49,4.641A13.843,13.843,0,0,1,705.484,588.738Z" transform="translate(-402.578 -230.409)" fill="#ffcdd3"/><path d="M709.092,573.153a15.2,15.2,0,0,1,1.1,4.59c1.83,1.53,3.829,1.464,6.4,1.464,1.977,0,4.165.483,5.739-.469a25.45,25.45,0,0,1,2.269-4.583S705.219,563.461,709.092,573.153Z" transform="translate(-402.752 -230.409)" opacity="0.1"/><circle cx="10.483" cy="10.483" r="10.483" transform="translate(303.697 328.476)" fill="#ffcdd3"/><path d="M705.484,593.205s25.351,2.862,20.614,1.325c-3.3-1.076-4.612-3.17-4.89-5.5-1.259-1.369-3.792-2.357-5.424-2.877a7.563,7.563,0,0,0-4.59-.073,6.116,6.116,0,0,0-1.669.732A13.845,13.845,0,0,1,705.484,593.205Z" transform="translate(-402.578 -234.876)" opacity="0.1"/><path d="M747.4,576.418l4.839,1.127.1-.732a4.275,4.275,0,0,0-4.656-1.6Z" transform="translate(-458.915 -232.005)" opacity="0.1"/><path d="M639.53,569.011l5.813,2.862.117-1.252a42.775,42.775,0,0,0-5.856-2.591Z" transform="translate(-273.067 -230.125)" opacity="0.1"/><path d="M695.1,681.121c9.817,1.545,23.792,3.565,26.01,2.892,1.837-.564,7.708-.505,12.826-.329-.044-2.555-.088-4.253-.088-4.253l-38.066-3.96a31.534,31.534,0,0,1-.681,5.651Z" transform="translate(-402.223 -258.914)" opacity="0.1"/><path d="M637.436,650.11s32.327,5.549,35.8,4.487,21.281.1,21.281.1c8.016,5.366,4.663-2.555,4.663-2.555a19.1,19.1,0,0,0-.264-7.489,45.865,45.865,0,0,1-1.318-7.489s.176-5.285-.791-6.515-2.116-10.044-2.116-10.044-.886-5.988-.8-7.32-.264-5.015-.264-5.015l-1.142-6.171c6.588-.878,26.69-13.213,26.69-13.213.966-4.136,8.455-13.828,8.455-13.828a10.193,10.193,0,0,1,.615-2.379c.527-1.405-7.4-4.224-7.4-4.224s-5.9,7.225-7.13,9.158-5.461,5.549-5.461,5.549a4.268,4.268,0,0,0-1.94.256h-.1a15.62,15.62,0,0,0-3.938,2.262A7.635,7.635,0,0,0,696.9,587.7s-3.616-.527-4.231.088-3.66,0-3.66,0-3.089-6.515-5.124-4.627-10.622,1.808-10.622,1.808c-1.149-1.523-3.931-2.613-5.681-3.177a7.562,7.562,0,0,0-4.59-.073,5.678,5.678,0,0,0-1.815.878l-5.212,5.124s-1.464-1.94-1.325-2.379-1.764-.791-1.764-.791-2.555-.791-3.521-1.061-1.859.791-1.933.878a10.314,10.314,0,0,0,.439-3.872,4.392,4.392,0,0,1,1.054-3.17c-3.111-7.526-10.073-1.157-10.073-1.157s-.791,4.136-.088,5.725-.732,4.934-.527,5.813-.351,2.379-.351,4.048a24.085,24.085,0,0,0,1.406,6.259c.534,1.406,4.758,4.575,4.758,4.575s.264,5.022,2.116,7.928.732,12.862.732,12.862-1.757,7.752-3.96,10.249S637.436,650.11,637.436,650.11Z" transform="translate(-354.346 -230.238)" fill="#333"/><path d="M691.364,598.892s.966-2.928,1.852-3.177a20.839,20.839,0,0,0,2.555-1.142l-.571-1.083s-3.309.908-3.836,1.874S691.364,598.892,691.364,598.892Z" transform="translate(-361.153 -236.947)" opacity="0.1"/><path d="M662.06,591.239c.176.886,8.009,1.676,8.009,1.676l-3.96-3.975h0l-.1.037h0A15.624,15.624,0,0,0,662.06,591.239Z" transform="translate(-314.17 -235.728)" opacity="0.1"/><circle cx="0.703" cy="0.703" r="0.703" transform="translate(369.896 342.722)" fill="#575988"/><circle cx="0.703" cy="0.703" r="0.703" transform="translate(368.995 344.135)" fill="#575988"/><circle cx="0.703" cy="0.703" r="0.703" transform="translate(368.11 345.43)" fill="#575988"/><circle cx="0.703" cy="0.703" r="0.703" transform="translate(367.187 346.843)" fill="#575988"/><circle cx="0.571" cy="0.571" r="0.571" transform="translate(284.29 346.894)" fill="#575988"/><circle cx="0.571" cy="0.571" r="0.571" transform="translate(284.202 348.197)" fill="#575988"/><circle cx="0.571" cy="0.571" r="0.571" transform="translate(284.129 349.493)" fill="#575988"/><path d="M732.4,633.47c.081-.1-19.765,24.97-35.189,10.483C697.21,643.953,721.572,647.254,732.4,633.47Z" transform="translate(-402.232 -247.66)" opacity="0.1"/><path d="M694.756,651.28s-11.881.322-13.126,3.741v3.558a2.277,2.277,0,0,0,2.2,0c1.2-.644,8.382-4.3,10.915-2.54Z" transform="translate(-353.183 -252.432)" opacity="0.1"/><path d="M694.485,651.28s-11.361.307-12.555,3.565v3.4a2.2,2.2,0,0,0,2.116,0c1.149-.622,8.053-4.1,10.439-2.423Z" transform="translate(-353.131 -252.432)" fill="#e95841"/><path d="M702.313,616a38.272,38.272,0,0,1-4.6,7.9,30.856,30.856,0,0,1-7.218,6.969S702.115,617.662,702.313,616Z" transform="translate(-367.225 -242.979)" opacity="0.1"/><path d="M692.266,597.18s-1.984,8.558-7.086,11.464Z" transform="translate(-353.292 -237.936)" opacity="0.1"/><path d="M687.345,598.359c.051-.161,1.764,6.764-6.588,10.6C680.757,608.959,684.285,607.758,687.345,598.359Z" transform="translate(-345.311 -238.251)" opacity="0.1"/><path d="M757.167,590.518c.132,0-4.114,2.709-5.271,3.96C751.9,594.478,754.656,590.342,757.167,590.518Z" transform="translate(-467.035 -236.149)" opacity="0.1"/><path d="M719.961,573.779a2.233,2.233,0,0,1-.812,1.42,2.291,2.291,0,0,1-.988.22c-3.2.2-6.523.337-9.517-.893a3.543,3.543,0,0,1-1.464-.959,5.7,5.7,0,0,1-.776-2.306,35.957,35.957,0,0,0-1.94-4.451,14.955,14.955,0,0,1-1.032-7.994,5.351,5.351,0,0,1,.8-2.343c.849-1.208,2.394-1.7,3.514-2.665s1.845-2.438,3.148-3.162a6.12,6.12,0,0,1,3.953-.351,20.886,20.886,0,0,1,7.379,2.774,3.654,3.654,0,0,0,2.467.842,3.39,3.39,0,0,0,1.815-1.391,9.75,9.75,0,0,1,.783,4.561,1.35,1.35,0,0,0,.49,1.42c.791.915,1.281,2.365.505,3.287-.344.4-.864.622-1.193,1.032-.593.732-.388,1.794-.373,2.738a1.464,1.464,0,0,1-.234.93,1.362,1.362,0,0,1-1.3.307,3.542,3.542,0,0,0-1.376-.132,2.32,2.32,0,0,0-1.2.922A16.736,16.736,0,0,0,719.961,573.779Z" transform="translate(-402.949 -225.325)" fill="#2d293d"/><g transform="translate(303.829 327.085)" opacity="0.1"><path d="M703.315,575.964a3.463,3.463,0,0,0,1.464.952c2.928,1.237,6.281,1.091,9.473.893a2.151,2.151,0,0,0,.988-.22,2.2,2.2,0,0,0,.82-1.413,16.339,16.339,0,0,1,2.672-6.2,2.284,2.284,0,0,1,1.2-.922,3.544,3.544,0,0,1,1.376.132,1.362,1.362,0,0,0,1.3-.307,1.42,1.42,0,0,0,.227-.93c0-.944-.212-2.006.381-2.738.329-.41.849-.63,1.193-1.032a2.064,2.064,0,0,0,.2-2.108,2.411,2.411,0,0,1,.154,2.811c-.344.4-.864.622-1.193,1.032-.593.732-.388,1.794-.373,2.738a1.464,1.464,0,0,1-.234.93,1.354,1.354,0,0,1-1.3.307,3.544,3.544,0,0,0-1.376-.132,2.32,2.32,0,0,0-1.2.922,16.623,16.623,0,0,0-2.672,6.2,2.233,2.233,0,0,1-.813,1.42,2.291,2.291,0,0,1-.988.22c-3.2.2-6.523.337-9.517-.893a3.593,3.593,0,0,1-1.464-.959,2.788,2.788,0,0,1-.454-.849A.527.527,0,0,0,703.315,575.964Z" transform="translate(-703.176 -555.613)"/><path d="M705.919,558.33a1.464,1.464,0,0,1-.322-.534,2.2,2.2,0,0,1,0-.688,9.663,9.663,0,0,0-.49-3.792l.059-.066a9.664,9.664,0,0,1,.783,4.561A3.084,3.084,0,0,0,705.919,558.33Z" transform="translate(-685.414 -553.25)"/></g><path d="M726.895,591.034s-13.1,1.735-14.275-.234" transform="translate(-408.008 -236.226)" opacity="0.1"/><path d="M756.272,583.72s-7.269,0-8.872,2.738" transform="translate(-462.846 -234.329)" opacity="0.1"/></g></svg>