<svg xmlns="http://www.w3.org/2000/svg" width="17.564" height="38.87" viewBox="0 0 17.564 38.87"><g transform="translate(0 0)"><g transform="translate(0 0)"><path d="M9.175,107.058a21.313,21.313,0,0,1-4.883-.546,9.387,9.387,0,0,1-1.4-.432l1.129,1.928.441,6.025c0,.675,2.146,1.223,4.792,1.223s4.792-.547,4.792-1.223l.35-6.09,1.068-1.868a9.29,9.29,0,0,1-1.409.438A21.313,21.313,0,0,1,9.175,107.058Zm6.329-19.6a47.6,47.6,0,0,1-6.246.362,47.6,47.6,0,0,1-6.246-.362,11.7,11.7,0,0,1-1.947-.405,2.817,2.817,0,0,1-.479-.2l1.036,9.531q.072-.246.161-.491a9.317,9.317,0,0,1,.422-.982A8.694,8.694,0,0,1,2.725,94a7.009,7.009,0,0,1,.6-.786,4.789,4.789,0,0,1,.653-.618,3.106,3.106,0,0,1,.676-.4,1.714,1.714,0,0,1,.676-.146,1.458,1.458,0,0,1,.746.211,2.14,2.14,0,0,1,.674.683.546.546,0,0,1,.091.213,1.163,1.163,0,0,1,.019.2.542.542,0,0,1-.108.357.324.324,0,0,1-.256.131.328.328,0,0,1-.252-.143,2.711,2.711,0,0,1-.261-.409.989.989,0,0,0-.3-.349.63.63,0,0,0-.354-.108,1.094,1.094,0,0,0-.634.246,3.682,3.682,0,0,0-.668.65,7.124,7.124,0,0,0-.634.924,9.644,9.644,0,0,0-.536,1.064A7.6,7.6,0,0,0,2.488,96.8a3.819,3.819,0,0,0-.138.951,2.276,2.276,0,0,0,.019.289.974.974,0,0,0,.072.269.54.54,0,0,0,.144.2.343.343,0,0,0,.231.078.779.779,0,0,0,.356-.105,2.677,2.677,0,0,0,.413-.276,5.19,5.19,0,0,0,.43-.387q.216-.216.4-.437t.331-.424a2.509,2.509,0,0,0,.216-.354l.394-1.18a.555.555,0,0,1,.189-.271.417.417,0,0,1,.24-.08.371.371,0,0,1,.119.02.29.29,0,0,1,.18.173.418.418,0,0,1,.028.158,2.294,2.294,0,0,1-.042.452,3.591,3.591,0,0,1-.108.412q-.066.2-.146.4t-.157.424a.964.964,0,0,0-.062.158q-.044.133-.108.334t-.138.449q-.074.249-.153.507t-.151.507q-.072.248-.129.449l-.1.336c-.025.09-.041.144-.047.161a1.046,1.046,0,0,1-.068.178,1.177,1.177,0,0,1-.11.186.677.677,0,0,1-.14.146.258.258,0,0,1-.157.058.221.221,0,0,1-.2-.09.631.631,0,0,1-.061-.331v-.07a.713.713,0,0,1,0-.075,1.781,1.781,0,0,1,.064-.3q.059-.221.142-.5t.178-.578q.1-.3.172-.535-.225.251-.488.5a5.258,5.258,0,0,1-.538.447,3.192,3.192,0,0,1-.555.324,1.314,1.314,0,0,1-.538.126.963.963,0,0,1-.511-.131c-.026-.016-.05-.033-.074-.051l.576,6.042c.15.376,2.974,1.3,6.7,1.3s6.55-.925,6.7-1.3l.828-7.183-.2.184a8.68,8.68,0,0,1-.672.57,3.031,3.031,0,0,1-.617.369,1.6,1.6,0,0,1-.644.131.78.78,0,0,1-.5-.141.468.468,0,0,1-.176-.387v-.038a.255.255,0,0,1,0-.043.913.913,0,0,1,.131-.346,3.983,3.983,0,0,1,.275-.407q.161-.211.343-.427t.337-.409a3.953,3.953,0,0,0,.256-.354.532.532,0,0,0,.1-.261.118.118,0,0,0-.042-.1.222.222,0,0,0-.14-.035.8.8,0,0,0-.35.088,1.738,1.738,0,0,0-.356.236,3.226,3.226,0,0,0-.343.339,5,5,0,0,0-.314.4q-.146.206-.267.414t-.206.384l-.072.156q-.047.1-.1.226t-.117.258q-.061.133-.112.251l-.091.211q-.041.093-.057.128t-.07.171q-.049.126-.112.294l-.134.354-.131.351-.108.291c-.031.084-.051.141-.06.171a1.832,1.832,0,0,1-.1.246,1.014,1.014,0,0,1-.131.2.6.6,0,0,1-.17.14.433.433,0,0,1-.214.053.418.418,0,0,1-.252-.073.327.327,0,0,1-.1-.279.876.876,0,0,1,.025-.206,1.835,1.835,0,0,1,.064-.208c.025-.069.052-.136.078-.2s.052-.128.074-.188q.229-.5.466-1.007t.456-1c.03-.069.058-.136.088-.2l-.026.026a5.626,5.626,0,0,1-.549.47,2.911,2.911,0,0,1-.543.324,1.28,1.28,0,0,1-.524.12.676.676,0,0,1-.29-.055.484.484,0,0,1-.187-.151.6.6,0,0,1-.1-.226c-.007-.03-.011-.061-.015-.092-.05.039-.1.076-.15.112a3.043,3.043,0,0,1-.517.3,1.144,1.144,0,0,1-.458.113.433.433,0,0,1-.331-.136.669.669,0,0,1-.127-.462,2.532,2.532,0,0,1,.068-.537,2.745,2.745,0,0,1-.275.4,2.416,2.416,0,0,1-.377.367,1.886,1.886,0,0,1-.475.269,1.557,1.557,0,0,1-.572.1,1.023,1.023,0,0,1-.269-.035.564.564,0,0,1-.227-.121.6.6,0,0,1-.157-.228.943.943,0,0,1-.059-.359s.006-.054.017-.153a3.273,3.273,0,0,1,.108-.467q.091-.319.282-.826T7.23,96a.678.678,0,0,1,.205-.274.427.427,0,0,1,.252-.083.465.465,0,0,1,.123.018.4.4,0,0,1,.119.055.3.3,0,0,1,.089.1.259.259,0,0,1,.034.133.349.349,0,0,1-.013.1,1.144,1.144,0,0,1-.091.223q-.07.138-.163.316t-.2.384q-.1.206-.193.427a4.26,4.26,0,0,0-.153.449,1.936,1.936,0,0,0-.072.444.331.331,0,0,0,.042.166.148.148,0,0,0,.14.075.885.885,0,0,0,.526-.181,2.336,2.336,0,0,0,.462-.449,4.314,4.314,0,0,0,.384-.578q.172-.309.286-.565a2.864,2.864,0,0,0,.142-.367,3.646,3.646,0,0,1,.134-.362,1.114,1.114,0,0,1,.165-.276.293.293,0,0,1,.233-.11.289.289,0,0,1,.242.116.439.439,0,0,1,.089.276.786.786,0,0,1-.057.249q-.057.158-.144.362t-.189.434q-.1.231-.189.47a4.653,4.653,0,0,0-.144.467,1.749,1.749,0,0,0-.057.424.162.162,0,0,0,.186.181.813.813,0,0,0,.326-.09,2.232,2.232,0,0,0,.409-.254c.036-.027.072-.055.107-.085a3.486,3.486,0,0,1,.141-.454q.148-.392.3-.778l.28-.708,1.284-3.239a.542.542,0,0,1,.205-.276.491.491,0,0,1,.261-.08.378.378,0,0,1,.239.085.331.331,0,0,1,.108.276.565.565,0,0,1-.036.191,2.309,2.309,0,0,1-.091.216q-.106.236-.252.577t-.314.743q-.168.4-.343.836l-.343.846q-.167.412-.314.781t-.252.64a2.82,2.82,0,0,0-.091.269.989.989,0,0,0-.044.274.245.245,0,0,0,.025.12.1.1,0,0,0,.1.045.549.549,0,0,0,.223-.063,2.274,2.274,0,0,0,.288-.166q.155-.1.322-.236t.333-.276q.166-.143.316-.286t.269-.264a.19.19,0,0,1,.065-.043c.048-.143.091-.282.13-.419q.034-.09.093-.256a3.521,3.521,0,0,1,.136-.326,1.4,1.4,0,0,1,.172-.279.268.268,0,0,1,.206-.118.334.334,0,0,1,.246.078.314.314,0,0,1,.076.229.83.83,0,0,1-.008.1c-.006.044-.013.09-.021.138s-.018.095-.028.138a.633.633,0,0,1-.028.1q.157-.171.339-.339a3.487,3.487,0,0,1,.377-.3,2.18,2.18,0,0,1,.4-.221,1.047,1.047,0,0,1,.407-.085.985.985,0,0,1,.278.04.8.8,0,0,1,.246.118.617.617,0,0,1,.176.2.539.539,0,0,1,.068.274,1.083,1.083,0,0,1-.1.439,3.182,3.182,0,0,1-.261.469q-.157.236-.339.46t-.341.407q-.159.184-.267.311a.469.469,0,0,0-.112.173.132.132,0,0,0,.038.1.177.177,0,0,0,.127.038.489.489,0,0,0,.212-.08,3.613,3.613,0,0,0,.392-.279q.252-.2.64-.532c.177-.153.385-.334.619-.541L17.93,86.85a2.808,2.808,0,0,1-.479.2A11.7,11.7,0,0,1,15.5,87.454ZM9.251,84.99C4.4,84.99.474,85.532.474,86.2s3.93,1.211,8.777,1.211,8.777-.542,8.777-1.211S14.1,84.99,9.251,84.99Zm3.5,1.564c0,.157-.467.284-1.043.284s-1.043-.127-1.043-.284.467-.284,1.043-.284S12.755,86.4,12.755,86.554Z" transform="translate(-0.474 -76.386)" fill="#707070" fill-rule="evenodd"/><path d="M103.557,9.745a.046.046,0,0,0-.008.025c0,.1.376.184.84.184s.84-.082.84-.184l1.1-4.447,4.361-4.6,0,0c.092-.1-.1-.428-.406-.7s-.646-.371-.751-.265l0,0-4.653,4.9Z" transform="translate(-93.151 0.298)" fill="#707070" fill-rule="evenodd"/></g></g></svg>