<svg xmlns="http://www.w3.org/2000/svg" width="27.741" height="39.077" viewBox="0 0 27.741 39.077"><g transform="translate(2.545 0)"><path d="M119.387,20.312h1.766v1.745h1.615V20.312h1.766v5.283h-1.766V23.826h-1.615v1.769h-1.766Z" transform="translate(-119.387 -20.312)" fill="#707070"/><path d="M192.283,22.064h-1.555V20.312H195.6v1.752h-1.555v3.531h-1.766V22.064Z" transform="translate(-184.814 -20.312)" fill="#707070"/><path d="M258.879,20.312h1.841l1.132,1.856,1.131-1.856h1.842v5.283h-1.758V22.976l-1.215,1.878h-.03l-1.216-1.878v2.618h-1.728Z" transform="translate(-247.315 -20.312)" fill="#707070"/><path d="M341.219,20.312h1.766v3.537h2.483v1.746h-4.25Z" transform="translate(-322.829 -20.312)" fill="#707070"/></g><path d="M97.969,124.806h4.587v-3.558H97.651Zm-9.283-12.824,2.526,28.33,11.337,3.147,11.348-3.146,2.529-28.331Zm23.047,26.528-9.176,2.544v-3.606l-.006,0-7.118-1.976-.5-5.579h3.488l.258,2.894,3.87,1.045,0,0v-5.552H94.791l-.937-10.507h8.7V114.3h11.338Z" transform="translate(-88.686 -104.383)" fill="#707070"/><path d="M260.277,153.908H256v5.552l3.874-1.046ZM256,139.926V143.4h8.7l-.311,3.475H256v3.558h8.075l-.953,10.668L256,163.075v3.606l9.176-2.544,2.161-24.211H256Z" transform="translate(-242.13 -130.01)" fill="#707070" opacity="0.8"/><g transform="translate(5.168 13.391)" opacity="0.2"><path d="M159.727,181.841h-8.7l.937,10.507h7.765v-3.475H155.14l-.318-3.558h4.905Z" transform="translate(-151.025 -181.841)" fill="#707070"/><path d="M171.691,332l0,0-3.87-1.045-.258-2.894H164.07l.5,5.579,7.118,1.976.006,0Z" transform="translate(-162.989 -315.939)" fill="#707070"/></g></svg>