<svg xmlns="http://www.w3.org/2000/svg" width="31.3" height="31.3" viewBox="0 0 31.3 31.3"><path d="M31.3,31.3H0V0H31.3V31.3ZM21.026,24.454h0l-2.4,1.387a5.59,5.59,0,0,0,5.358,3c2.961,0,4.874-1.608,4.874-4.1,0-2.465-1.433-3.561-3.908-4.622l-.735-.315c-.358-.155-.609-.274-.814-.385a2.856,2.856,0,0,1-.562-.381,1.274,1.274,0,0,1-.326-.445,1.441,1.441,0,0,1-.105-.575,1.262,1.262,0,0,1,.1-.5,1.162,1.162,0,0,1,.282-.4,1.3,1.3,0,0,1,.444-.266,1.711,1.711,0,0,1,.583-.1,2.212,2.212,0,0,1,.579.07,1.649,1.649,0,0,1,.492.222,2.026,2.026,0,0,1,.429.391,3.652,3.652,0,0,1,.39.578L28,16.555A4.336,4.336,0,0,0,23.82,14.2c-2.536,0-4.307,1.6-4.307,3.887,0,2.576,1.7,3.653,3.53,4.433l.735.315a7.716,7.716,0,0,1,1.576.819,1.338,1.338,0,0,1,.567,1.135,1.238,1.238,0,0,1-.14.581,1.358,1.358,0,0,1-.4.459,1.955,1.955,0,0,1-.629.3,2.994,2.994,0,0,1-.826.108,3.405,3.405,0,0,1-.976-.134,2.811,2.811,0,0,1-.781-.373,3.3,3.3,0,0,1-.627-.566,5.228,5.228,0,0,1-.515-.713Zm-10.4.252-2.4,1.45a4.546,4.546,0,0,0,4.412,2.689,5.663,5.663,0,0,0,1.785-.264,3.706,3.706,0,0,0,1.387-.81,4.415,4.415,0,0,0,1.219-3.359V14.37H14.092v10a3.192,3.192,0,0,1-.11.909,1.326,1.326,0,0,1-.315.567,1.519,1.519,0,0,1-1.15.373,1.688,1.688,0,0,1-.656-.121,1.585,1.585,0,0,1-.494-.328,2.825,2.825,0,0,1-.392-.482c-.122-.183-.239-.388-.349-.582Z" transform="translate(0 0)" fill="#707070"/></svg>