<svg xmlns="http://www.w3.org/2000/svg" width="41.538" height="31.136" viewBox="0 0 41.538 31.136"><path d="M29.37,23.934c-.132-.094-.11-.4.324-1.341A5.064,5.064,0,0,1,30.927,21a2.267,2.267,0,0,1-1.557,2.933ZM23.822,25.2c-.177.092-.339.151-.414.106-.055-.033.073-.155.073-.155s.9-.969,1.256-1.41c.206-.257.446-.561.707-.9q0,.051,0,.1a3.016,3.016,0,0,1-1.624,2.26Zm-7.2-3.437c-.417,1.016-1.289,3.615-1.82,3.476-.456-.12-.733-2.1-.091-4.04a9.009,9.009,0,0,1,1.42-2.6c.653-.731,1.372-.969,1.547-.673C17.9,18.3,16.881,21.125,16.62,21.762ZM7.9,27.689c-1.2,1.305-2.868,1.8-3.585,1.383-.774-.449-.467-2.371,1-3.756a19.005,19.005,0,0,1,2.817-2.1l.742-.446.081-.046v0l.185-.111A5.19,5.19,0,0,1,7.9,27.689ZM35.748,18.3a8.541,8.541,0,0,0-3.763.876,7.876,7.876,0,0,1-.841-1.95,5.179,5.179,0,0,1-.073-1.638,14.319,14.319,0,0,1,.491-1.765c-.006-.074-.091-.431-.928-.437s-1.554.161-1.638.382a8.271,8.271,0,0,0-.346,1.238,29.722,29.722,0,0,1-2.538,4.884,5.085,5.085,0,0,1-.574-1.426,5.182,5.182,0,0,1-.073-1.638,14.326,14.326,0,0,1,.491-1.765c-.006-.074-.091-.431-.928-.437s-1.554.161-1.638.382-.174.738-.346,1.238-2.2,5.017-2.73,6.188c-.271.6-.506,1.076-.672,1.4v0l-.028.059c-.142.279-.227.433-.227.433l0,.006c-.113.2-.234.395-.294.395a2.623,2.623,0,0,1,.018-1.292c.3-1.567,1.026-4.011,1.019-4.095,0-.043.135-.469-.473-.692a.754.754,0,0,0-.855.146c-.052,0-.091.127-.091.127s.658-2.748-1.256-2.748c-1.2,0-2.855,1.309-3.672,2.5-.515.281-1.619.883-2.789,1.526l-1.343.739-.089-.1c-2.321-2.476-6.612-4.228-6.43-7.557.066-1.21.487-4.4,8.244-8.262,6.355-3.167,11.442-2.3,12.321-.364,1.256,2.759-2.719,7.887-9.318,8.626-2.514.282-3.838-.693-4.168-1.056-.347-.382-.4-.4-.528-.328-.211.117-.077.454,0,.655a3.91,3.91,0,0,0,2.384,1.875,12.638,12.638,0,0,0,7.735-.764c4-1.547,7.121-5.849,6.2-9.445-.933-3.658-7-4.86-12.737-2.821A28.839,28.839,0,0,0,3.5,7C.337,9.956-.167,12.53.041,13.605c.738,3.821,6,6.31,8.114,8.154l-.291.16c-1.057.523-5.072,2.624-6.076,4.844-1.139,2.518.181,4.325,1.056,4.568A6.479,6.479,0,0,0,9.825,28.5a7.02,7.02,0,0,0,.626-6.452L10.424,22l.827-.488c.538-.316,1.066-.611,1.525-.86a10.253,10.253,0,0,0-.542,2.762,5.747,5.747,0,0,0,1.238,4,1.357,1.357,0,0,0,1,.328c.892,0,1.3-.742,1.747-1.62.55-1.076,1.037-2.33,1.037-2.33s-.612,3.385,1.056,3.385c.608,0,1.219-.788,1.491-1.19V26l.047-.079c.063-.1.1-.158.1-.158l0-.017c.244-.424.786-1.391,1.6-2.986,1.05-2.06,2.056-4.641,2.056-4.641a13.79,13.79,0,0,0,.4,1.674,15.653,15.653,0,0,0,.866,1.943c-.243.338-.393.532-.393.532l0,.01c-.195.258-.413.537-.641.809A23.456,23.456,0,0,0,21.9,25.526a.666.666,0,0,0,.182.892,1.632,1.632,0,0,0,1.019.164,4.646,4.646,0,0,0,1.527-.347,5.138,5.138,0,0,0,1.312-.69,2.92,2.92,0,0,0,1.256-2.584,5.241,5.241,0,0,0-.477-1.826l.222-.321a34.69,34.69,0,0,0,2.275-3.931,13.787,13.787,0,0,0,.4,1.674,11.687,11.687,0,0,0,.737,1.669,7.137,7.137,0,0,0-2.211,2.862c-.48,1.38-.1,2.005.6,2.148a2.169,2.169,0,0,0,1.109-.225,5.14,5.14,0,0,0,1.4-.721A3.146,3.146,0,0,0,32.8,21.722a4.816,4.816,0,0,0-.351-1.518,7.935,7.935,0,0,1,4.027-.465c3.613.422,4.321,2.678,4.186,3.622a2.383,2.383,0,0,1-1.147,1.62c-.253.157-.331.211-.309.328.031.169.148.163.364.126a2.817,2.817,0,0,0,1.966-2.511c.087-2.212-2.033-4.643-5.787-4.623Z" transform="translate(0 -0.406)" fill="#707070"/></svg>