<svg xmlns="http://www.w3.org/2000/svg" width="194.012" height="91.7" viewBox="0 0 194.012 91.7"><g transform="translate(84.241 27.699)"><path d="M116.95,72.522a14.15,14.15,0,0,1-5.03-2.971,3.4,3.4,0,0,1-1.3-2.559,2.74,2.74,0,0,1,.815-1.98,2.628,2.628,0,0,1,1.963-.847,2.525,2.525,0,0,1,1.629.579,14.1,14.1,0,0,0,3.74,2.322,11.629,11.629,0,0,0,4.313.723,8.569,8.569,0,0,0,4.623-1.207,3.5,3.5,0,0,0,1.964-3,3.849,3.849,0,0,0-1.919-3.406,16.165,16.165,0,0,0-6.085-1.862q-10.516-1.5-10.517-9.817a8.967,8.967,0,0,1,1.58-5.293,10,10,0,0,1,4.309-3.43,15.141,15.141,0,0,1,6.085-1.183,17.271,17.271,0,0,1,5.692.916,13.737,13.737,0,0,1,4.417,2.426,3.234,3.234,0,0,1,1.389,2.56,2.741,2.741,0,0,1-.815,1.98,2.575,2.575,0,0,1-1.919.846,2.087,2.087,0,0,1-1.3-.435,12.631,12.631,0,0,0-3.475-1.862,11.431,11.431,0,0,0-4-.847,8.2,8.2,0,0,0-4.671,1.134,3.625,3.625,0,0,0,.049,6.114,16.005,16.005,0,0,0,5.344,1.743,27.594,27.594,0,0,1,6.585,1.862,8.433,8.433,0,0,1,3.715,3.094,9.643,9.643,0,0,1,1.246,5.2,8.733,8.733,0,0,1-1.7,5.342,10.943,10.943,0,0,1-4.529,3.529,15.057,15.057,0,0,1-6.085,1.233,19.859,19.859,0,0,1-6.12-.906Z" transform="translate(-110.625 -37.128)" fill="#707070" fill-rule="evenodd"/><path d="M171.347,63.732a3.036,3.036,0,0,1-2.012.723H153.523a7.346,7.346,0,0,0,7.282,6.074,10.216,10.216,0,0,0,3.067-.361,7.939,7.939,0,0,0,1.746-.772l.889-.554a3.627,3.627,0,0,1,1.629-.436,2.456,2.456,0,0,1,2.439,2.416,3.024,3.024,0,0,1-1.339,2.366,11.424,11.424,0,0,1-3.612,1.931,14.737,14.737,0,0,1-11.572-.916,11.755,11.755,0,0,1-4.623-4.678,13.7,13.7,0,0,1-1.63-6.693,14.921,14.921,0,0,1,1.723-7.3,12.3,12.3,0,0,1,4.554-4.807,11.7,11.7,0,0,1,6.036-1.669,11.115,11.115,0,0,1,6,1.738,12.958,12.958,0,0,1,4.48,4.688,12.694,12.694,0,0,1,1.679,6.381,2.485,2.485,0,0,1-.928,1.867Zm-17.775-4.11h12.544v-.336a5.014,5.014,0,0,0-1.963-3.466,6.186,6.186,0,0,0-4.024-1.45q-5.55,0-6.557,5.272Z" transform="translate(-119.461 -39.616)" fill="#707070" fill-rule="evenodd"/><path d="M206.643,51.979q1.871,2.926,1.87,8.094V72.45a2.877,2.877,0,1,1-5.752,0V60.073a7.014,7.014,0,0,0-1.1-4.183,4.362,4.362,0,0,0-3.784-1.525,5.808,5.808,0,0,0-4.357,1.619,5.607,5.607,0,0,0-1.595,4.094V72.455a2.877,2.877,0,1,1-5.752,0V52.489a2.878,2.878,0,1,1,5.752,0v.822a11.6,11.6,0,0,1,3.376-3,8.7,8.7,0,0,1,4.574-1.258Q204.764,49.053,206.643,51.979Z" transform="translate(-128.582 -39.616)" fill="#707070" fill-rule="evenodd"/><path d="M245.993,37.52a2.9,2.9,0,0,1,.815,2.128V69.521a2.913,2.913,0,0,1-.815,2.1,2.741,2.741,0,0,1-2.06.846,2.7,2.7,0,0,1-2.037-.822,3.05,3.05,0,0,1-.839-2.079,10.348,10.348,0,0,1-7.523,3.381,10.885,10.885,0,0,1-5.987-1.717,11.986,11.986,0,0,1-4.24-4.763,14.964,14.964,0,0,1-1.556-6.931,15.314,15.314,0,0,1,1.531-6.931,11.843,11.843,0,0,1,4.191-4.787,10.606,10.606,0,0,1,5.889-1.718,11.046,11.046,0,0,1,4.314.851,11.329,11.329,0,0,1,3.4,2.149V39.633a2.91,2.91,0,0,1,.8-2.114,2.74,2.74,0,0,1,2.061-.847A2.783,2.783,0,0,1,245.993,37.52Zm-6.659,27.818A8.577,8.577,0,0,0,241.3,59.56a8.668,8.668,0,0,0-1.964-5.8,6.665,6.665,0,0,0-10.109,0,9.521,9.521,0,0,0,0,11.58,6.723,6.723,0,0,0,10.109-.015Z" transform="translate(-137.039 -36.671)" fill="#707070" fill-rule="evenodd"/></g><path d="M34.924,57.994C28.5,56.754,21.961,55.848,15.567,54.51c-.671-.142-1.36-.3-2.067-.475A17.548,17.548,0,0,1,3.925,26.082,121.237,121.237,0,0,1,13.271,15.6q-.8.8-1.579,1.62A144.766,144.766,0,0,1,23.936,5.885c-1.31-1.61-3.116-3.259-3.06-4.3A1.3,1.3,0,0,1,22.246.335l.05,0q10.106.9,20.182,2.121a2.453,2.453,0,0,1,2.046,2.6,7,7,0,0,1-.019,1.209l-.962,7.856c-.389,3.638-.725,7.283-1.167,10.915-.1.651-.3.7-.5.86a1.377,1.377,0,0,1-1.851-.219l-2.365-2.91c-3.59,2.984-8.857,7.987-12.867,12.078l.107.021.027-.03c7.044,1.35,14.237,2.219,21.188,3.89l.415.1A17.51,17.51,0,0,1,55.613,67.4q-1.1,1.234-2.21,2.467-1.91,2.1-3.895,4.13a19.449,19.449,0,0,1-1.682,1.714A140.426,140.426,0,0,1,30.965,90.193a11.04,11.04,0,0,1-15.754-3.841A10.926,10.926,0,0,1,18.2,72.866,128.1,128.1,0,0,0,34.907,57.994a.031.031,0,0,0,.017,0Zm2.118.425c-.213.242-1.317,1.5-1.711,1.91A138.948,138.948,0,0,1,19.269,74.456a8.88,8.88,0,0,0,.183,14.029c3.388,2.539,8.163,1.866,11.746-.857A164.03,164.03,0,0,0,48.944,71.55a6.63,6.63,0,0,0,1.217-6.836,8.867,8.867,0,0,0-4.645-4.168c-1.289-.377-2.624-.757-3.966-1.111-1.5-.369-3-.7-4.507-1.015ZM13.449,32c.127.049.256.093.389.134,2.854.83,5.628,1.594,8.541,2.178,0,0,5.705-5.592,9.008-8.621q2.468-2.262,5.046-4.4s1.733-.841,2.71.265l1.484,1.826,1.013-9.482q.483-3.935.964-7.869c.11-.9.571-.387-.043-1.461a.65.65,0,0,0-.358-.222L23.566,2.4l1.856,2.282c1.41,1.888-1.951,4.036-4.456,6.262-3.044,2.706-7.153,6.688-9.93,9.661a7.645,7.645,0,0,0-.276,9.382A8.861,8.861,0,0,0,13.449,32ZM11.523,17.394q-.313.328-.625.659a8.885,8.885,0,0,0-.63.742Q10.833,18.119,11.523,17.394Z" transform="translate(-0.115 -0.335)" fill="#707070" fill-rule="evenodd"/></svg>