<svg xmlns="http://www.w3.org/2000/svg" width="290.508" height="60.263" viewBox="0 0 290.508 60.263"><g transform="translate(0 0)"><path d="M39.5,35.04,29.349,52.384a2.059,2.059,0,0,1-3.553,0L10.3,25.892a10.306,10.306,0,0,1,8.9-15.511,10.343,10.343,0,0,1,8.9,5.1L39.5,34.986a.053.053,0,0,1,0,.054M86.243,11.271A18.727,18.727,0,0,0,69.824,1.76a19,19,0,0,0-16.336,9.369L44.553,26.4a.053.053,0,0,1-.092,0l-8.935-15.27A19,19,0,0,0,19.19,1.76,18.927,18.927,0,0,0,2.854,30.245L18.227,56.519a10.935,10.935,0,0,0,9.9,5.491,10.571,10.571,0,0,0,8.661-5.272L60.929,15.482a10.342,10.342,0,0,1,8.9-5.1,10.306,10.306,0,0,1,8.9,15.511l-15.5,26.492a2.06,2.06,0,0,1-3.554,0l-8.832-15.1-4.962,8.59L52.1,56.519A10.934,10.934,0,0,0,62,62.01a10.569,10.569,0,0,0,8.661-5.272l15.5-26.492a18.726,18.726,0,0,0,.083-18.974" transform="translate(-0.232 -1.76)" fill="#707070"/><g transform="translate(105.962 10.607)"><path d="M243.479,5.713A3,3,0,0,1,244.5,8.034a3.819,3.819,0,0,1-.15,1l-9.831,28.945a2.627,2.627,0,0,1-1.048,1.347,3.235,3.235,0,0,1-1.647.549,3.145,3.145,0,0,1-1.7-.5,3.331,3.331,0,0,1-1.248-1.447L221.8,21.807l-7.136,16.119a3.337,3.337,0,0,1-1.247,1.447,3.147,3.147,0,0,1-1.7.5,3.235,3.235,0,0,1-1.647-.549,2.629,2.629,0,0,1-1.048-1.347L199.189,9.032a3.82,3.82,0,0,1-.15-1,2.994,2.994,0,0,1,1.023-2.321,3.311,3.311,0,0,1,2.271-.923,3.2,3.2,0,0,1,1.8.524,2.668,2.668,0,0,1,1.1,1.422l7.436,22.557,6.488-15.57A3.354,3.354,0,0,1,220.3,12.3a2.635,2.635,0,0,1,1.7-.474,2.541,2.541,0,0,1,1.672.474,3.441,3.441,0,0,1,1.123,1.423l6.138,15.421,7.386-22.407a2.635,2.635,0,0,1,1.123-1.422,3.323,3.323,0,0,1,1.822-.524,3.257,3.257,0,0,1,2.221.923" transform="translate(-199.039 -2.943)" fill="#707070"/><path d="M322.6,35.867h13.074v-.349a5.16,5.16,0,0,0-2.046-3.593,6.477,6.477,0,0,0-4.192-1.5q-5.79,0-6.837,5.44m18.514,4.242a3.175,3.175,0,0,1-2.1.749H322.554a7.527,7.527,0,0,0,2.745,4.616,7.67,7.67,0,0,0,4.841,1.671,10.731,10.731,0,0,0,3.194-.374,8.32,8.32,0,0,0,1.821-.8q.673-.423.924-.574a3.8,3.8,0,0,1,1.7-.449,2.449,2.449,0,0,1,1.8.749,2.392,2.392,0,0,1,.749,1.747,3.115,3.115,0,0,1-1.4,2.445,11.907,11.907,0,0,1-3.743,1.946,15.469,15.469,0,0,1-12.052-.948,12.188,12.188,0,0,1-4.816-4.816,14.044,14.044,0,0,1-1.7-6.912,15.3,15.3,0,0,1,1.8-7.536,12.755,12.755,0,0,1,4.741-4.966,12.254,12.254,0,0,1,6.288-1.722,11.661,11.661,0,0,1,6.213,1.8,13.446,13.446,0,0,1,4.666,4.841,13.014,13.014,0,0,1,1.747,6.587,2.563,2.563,0,0,1-.948,1.947" transform="translate(-270.603 -15.207)" fill="#707070"/><path d="M394.616,38.93a14.773,14.773,0,0,1-5.24-3.044,3.5,3.5,0,0,1-1.347-2.645,2.813,2.813,0,0,1,.848-2.021,2.751,2.751,0,0,1,2.046-.873,2.643,2.643,0,0,1,1.7.6,14.684,14.684,0,0,0,3.893,2.4A12.208,12.208,0,0,0,401,34.09a8.986,8.986,0,0,0,4.816-1.248,3.614,3.614,0,0,0,2.021-3.094,3.969,3.969,0,0,0-2-3.518,16.915,16.915,0,0,0-6.338-1.921q-10.929-1.6-10.929-10.181a9.2,9.2,0,0,1,1.647-5.465,10.4,10.4,0,0,1,4.492-3.543A15.887,15.887,0,0,1,401.053,3.9a18.148,18.148,0,0,1,5.914.948,14.36,14.36,0,0,1,4.616,2.5,3.332,3.332,0,0,1,1.448,2.645,2.815,2.815,0,0,1-.849,2.021,2.7,2.7,0,0,1-2,.873,2.19,2.19,0,0,1-1.347-.449,13.192,13.192,0,0,0-3.618-1.921,12.009,12.009,0,0,0-4.167-.873,8.591,8.591,0,0,0-4.865,1.172,3.567,3.567,0,0,0-1.722,3.069,3.575,3.575,0,0,0,1.772,3.244,16.788,16.788,0,0,0,5.564,1.8,28.893,28.893,0,0,1,6.862,1.921,8.765,8.765,0,0,1,3.868,3.194,9.813,9.813,0,0,1,1.3,5.365,8.961,8.961,0,0,1-1.772,5.514,11.389,11.389,0,0,1-4.716,3.643A15.8,15.8,0,0,1,401,39.829a20.86,20.86,0,0,1-6.388-.9" transform="translate(-314.07 -2.4)" fill="#707070"/><path d="M466.321,35.867H479.4v-.349a5.161,5.161,0,0,0-2.046-3.593,6.477,6.477,0,0,0-4.192-1.5q-5.79,0-6.837,5.44m18.515,4.242a3.177,3.177,0,0,1-2.1.749H466.271a7.524,7.524,0,0,0,2.745,4.616,7.669,7.669,0,0,0,4.841,1.671,10.729,10.729,0,0,0,3.194-.374,8.3,8.3,0,0,0,1.821-.8c.449-.282.756-.474.924-.574a3.8,3.8,0,0,1,1.7-.449,2.45,2.45,0,0,1,1.8.749,2.393,2.393,0,0,1,.749,1.747,3.115,3.115,0,0,1-1.4,2.445,11.91,11.91,0,0,1-3.743,1.946,15.469,15.469,0,0,1-12.052-.948,12.185,12.185,0,0,1-4.816-4.816,14.043,14.043,0,0,1-1.7-6.912,15.3,15.3,0,0,1,1.8-7.536,12.752,12.752,0,0,1,4.741-4.966,12.254,12.254,0,0,1,6.288-1.722,11.66,11.66,0,0,1,6.213,1.8,13.443,13.443,0,0,1,4.666,4.841,13.018,13.018,0,0,1,1.747,6.587,2.565,2.565,0,0,1-.948,1.947" transform="translate(-358.079 -15.207)" fill="#707070"/><path d="M556.242,27.958q1.946,3.02,1.946,8.359V49.093a2.992,2.992,0,0,1-.849,2.171,3.073,3.073,0,0,1-4.292,0,2.99,2.99,0,0,1-.848-2.171V36.317A7.189,7.189,0,0,0,551.052,32q-1.148-1.573-3.942-1.572a6.084,6.084,0,0,0-4.541,1.672,5.764,5.764,0,0,0-1.647,4.217V49.093a2.991,2.991,0,0,1-.849,2.171,3.073,3.073,0,0,1-4.292,0,2.991,2.991,0,0,1-.848-2.171V28.482a2.992,2.992,0,0,1,.848-2.171,3.073,3.073,0,0,1,4.292,0,2.993,2.993,0,0,1,.849,2.171v.848a12.058,12.058,0,0,1,3.519-3.094,9.117,9.117,0,0,1,4.766-1.3q5.09,0,7.037,3.019" transform="translate(-403.486 -15.207)" fill="#707070"/><path d="M622.237,29.64a8.8,8.8,0,0,0,2.046-5.964,8.9,8.9,0,0,0-2.046-5.989,6.983,6.983,0,0,0-10.53,0,8.892,8.892,0,0,0-2.046,5.989,8.871,8.871,0,0,0,2.021,5.964,6.59,6.59,0,0,0,5.265,2.37,6.663,6.663,0,0,0,5.29-2.37M629.174.919a2.975,2.975,0,0,1,.849,2.2V33.956a2.993,2.993,0,0,1-.849,2.171,2.867,2.867,0,0,1-2.146.873,2.824,2.824,0,0,1-2.121-.848,3.135,3.135,0,0,1-.873-2.146A10.82,10.82,0,0,1,616.2,37.5a11.41,11.41,0,0,1-6.238-1.772,12.406,12.406,0,0,1-4.417-4.916,15.331,15.331,0,0,1-1.622-7.136,15.692,15.692,0,0,1,1.6-7.161,12.272,12.272,0,0,1,4.367-4.941A11.117,11.117,0,0,1,616,9.8a11.566,11.566,0,0,1,4.491.873,11.811,11.811,0,0,1,3.543,2.22V3.115a2.992,2.992,0,0,1,.848-2.171,2.867,2.867,0,0,1,2.146-.873,2.913,2.913,0,0,1,2.146.848" transform="translate(-445.477 -0.071)" fill="#707070"/></g></g></svg>