<svg xmlns="http://www.w3.org/2000/svg" width="31.3" height="31.3" viewBox="0 0 31.3 31.3"><path d="M16.317.667a15.65,15.65,0,1,0,15.65,15.65A15.65,15.65,0,0,0,16.317.667m0,.939a14.638,14.638,0,0,1,8.224,2.512,14.756,14.756,0,0,1,5.331,6.473,14.691,14.691,0,0,1-1.356,13.95,14.756,14.756,0,0,1-6.473,5.331,14.691,14.691,0,0,1-13.95-1.356,14.756,14.756,0,0,1-5.331-6.473A14.691,14.691,0,0,1,4.118,8.092a14.756,14.756,0,0,1,6.473-5.331,14.618,14.618,0,0,1,5.726-1.156" transform="translate(-0.667 -0.667)" fill="#707070"/><path d="M80.708,63.007a10.012,10.012,0,0,1,.088,1.341,12.311,12.311,0,0,1-.992,4.671L75.82,80.535a13.043,13.043,0,0,0,4.888-17.529M69.493,70.4l-3.914,11.37a13.047,13.047,0,0,0,8.016-.208,1.189,1.189,0,0,1-.094-.18Zm8.575-1.8a6.868,6.868,0,0,0-1.075-3.6,6.106,6.106,0,0,1-1.281-3.059,2.258,2.258,0,0,1,2.19-2.315c.058,0,.113.007.169.011a13.039,13.039,0,0,0-19.7,2.454c.306.01.595.016.839.016,1.364,0,3.476-.166,3.476-.166a.539.539,0,0,1,.083,1.075s-.707.083-1.492.124l4.749,14.126,2.854-8.559-2.032-5.567c-.7-.041-1.368-.124-1.368-.124a.539.539,0,0,1,.083-1.075s2.153.166,3.435.166c1.364,0,3.476-.166,3.476-.166a.539.539,0,0,1,.083,1.075s-.707.083-1.493.124l4.713,14.019L77.12,72.9a15.037,15.037,0,0,0,.948-4.3m-21.846.658A13.042,13.042,0,0,0,63.572,81L57.351,63.956a12.99,12.99,0,0,0-1.129,5.307" transform="translate(-53.614 -53.614)" fill="#707070"/></svg>