<svg xmlns="http://www.w3.org/2000/svg" width="195.197" height="49.656" viewBox="0 0 195.197 49.656"><path d="M153.56,13.979,162.291.428h8.876v.787L154.861,14.7l-1.3-.718h0Zm41.635,25.838a8.9,8.9,0,0,0-2.186-5.7,13.794,13.794,0,0,0-5.06-3.211q-1.253-.51-6.126-2.215c-4.567-1.681-5.7-2.558-5.7-4.629,0-2.484,2.393-4.3,5.631-4.3a7.91,7.91,0,0,1,7.321,4.429,38.41,38.41,0,0,1,2.316,4.9h1.412c-.283-4.564-.355-5.7-.5-10.328h-1.2l-2.175,2.484a8.993,8.993,0,0,0-7.393-3.29c-6.188,0-11.181,4.364-11.181,9.863,0,4.156,2.815,7.437,7.806,9.248l6.688,2.415c3.3,1.212,4.572,2.351,4.572,4.228,0,2.683-2.4,4.429-6.057,4.429a10.36,10.36,0,0,1-9.495-5.974,44.308,44.308,0,0,1-2.11-4.827H170.3c.069,2.752.069,4.827.069,6.242,0,1.273,0,3.152-.069,5.7h1.262l2.88-3.42a10.787,10.787,0,0,0,9.075,4.157c6.546,0,11.683-4.431,11.683-10.2h0Zm-27,9.458h0V47.527l-4.788.072V27.272c0-3.02.066-7.173.214-9.053a28.58,28.58,0,0,1-5.486.4c-2.254.062-5.136.062-8.733.131V20.5l4.93-.067V47.6l-5.206-.072v1.748c4.287-.067,7.46-.067,9.639-.067,2.11,0,5.206,0,9.43.067h0Zm-20.726-6.908c-.072,2.881-.843,4.363-2.393,4.363a1.923,1.923,0,0,1-1.9-1.683,13.247,13.247,0,0,1-.141-2.883c.21-11.869.21-12.133.21-12.67a25.443,25.443,0,0,0-.139-3.555,9.078,9.078,0,0,0-1.616-4.165c-1.979-2.482-5.632-3.819-10.558-3.819-7.739,0-13.368,3.217-13.368,7.577a3.421,3.421,0,0,0,.9,2.66,3.221,3.221,0,0,0,2.548,1.027,3.272,3.272,0,0,0,2.547-.922,3.47,3.47,0,0,0,1.044-2.561,6.583,6.583,0,0,0-1.895-4.431,13.776,13.776,0,0,1,6.4-1.479c2.82,0,4.368.739,4.926,2.284a19.055,19.055,0,0,1,.491,5.162c0,1.01-.071,2.28-.071,3.823a62.047,62.047,0,0,0-6.259,1.212c-4.224,1-6.829,2.014-8.8,3.418a7.305,7.305,0,0,0-3.092,6.107c0,4.757,3.937,8.246,9.217,8.246a10.46,10.46,0,0,0,9.15-4.9c.982,3.153,3.584,4.9,7.1,4.9,4.783,0,7.244-2.616,7.321-7.65Zm-13.089-2.15c-.073,4.092-1.9,6.575-5.067,6.575-2.741,0-4.291-2.149-4.291-5.976,0-3.547,1.122-5.625,3.656-6.636,1.9-.8,2.188-.873,5.771-1.546ZM113.062,4.069c-2.821-1.545-5.842-2.208-10.626-2.144-9.637.135-11.115.135-15.127.135-2.319-.067-5.483-.067-11.462-.135v1.8l6.823-.058V47.524l-6.895-.067v1.818c5.7-.067,9.992-.067,12.8-.067s7.106,0,12.806.067V47.458l-7.946.067V28.08a44.373,44.373,0,0,0,4.918.2c6.542,0,10.9-1.01,14.782-3.5A12.446,12.446,0,0,0,118.972,14.2a11.1,11.1,0,0,0-5.909-10.13ZM96.106,26.6a25.029,25.029,0,0,1-2.673-.128V3.67c5.13,0,6.611.131,8.437.734a7.668,7.668,0,0,1,3.024,1.948c1.9,1.941,2.821,4.626,2.821,8.183,0,8.112-3.8,12.064-11.6,12.064ZM62.788,49.272h0V47.524l-4.85.072V12.131c0-2.75.066-4.355.066-6.5,0-1.881.075-2.55.141-4.293a33.287,33.287,0,0,1-4.224.4c-2.67.131-5.631.2-8.794.2h-1.2V3.679l5-.072V47.6l-5.072-.072v1.748c4.154-.067,7.318-.067,9.361-.067,2.111,0,5.273,0,9.564.067h0Zm-19.73-16.7H41.376a49.909,49.909,0,0,1-4.161,8.656,10.945,10.945,0,0,1-5.267,4.759c-2.4,1.01-4.437,1.2-10.983,1.2H17.8V25.33a36.628,36.628,0,0,1,5.912.263,7.135,7.135,0,0,1,2.675.94,8.073,8.073,0,0,1,3.1,3.558c.285.666.706,1.474,1.053,2.48h1.415c-.082-3.686-.145-6.443-.145-8.318,0-1.808.064-4.493.145-8.117H30.533a16.29,16.29,0,0,1-1.9,3.9,6.283,6.283,0,0,1-1.894,1.877,11.188,11.188,0,0,1-6.053,1.543c-.705,0-1.692.062-2.891.062V3.8c5.424,0,6.828.07,9.22.2,3.027.2,4.931.873,6.471,2.351a23.264,23.264,0,0,1,3.8,5.36,45.672,45.672,0,0,1,2.259,5.1h1.613L40.667,8.7l-.491-6.774c-9.569.069-16.886.135-21.951.135-4.784,0-9.079-.067-18.225-.135v1.8L6.888,3.67V47.524L0,47.458v1.818c9.356-.067,13.718-.138,18.714-.138,5.482,0,13.37.072,23.5.138.208-7.514.355-9.331.843-16.7h0Z" transform="translate(0 -0.428)" fill="#707070" fill-rule="evenodd"/></svg>