<svg xmlns="http://www.w3.org/2000/svg" width="284.881" height="124.885" viewBox="0 0 284.881 124.885"><path d="M48.168,115.127l-.945-.018-.889-.053-.875-.106-.869-.144-.856-.159-.82-.232-.815-.25-.785-.283-.748-.305-.715-.355-.711-.393-.694-.408-.64-.483-.624-.461-.586-.5-.586-.571-.534-.57-.519-.6-.481-.623-.443-.661-.429-.673-.375-.715-.356-.728-.3-.748-.3-.785-.235-.8-.229-.838-.177-.855-.125-.851-.09-.893-.074-.891-.017-.94.017-.908.057-.856.068-.891.141-.855.164-.834.178-.8.211-.8.267-.785.288-.748.316-.731.358-.709.373-.7.429-.661.446-.656.459-.586.52-.607.533-.551.553-.518.588-.515.607-.463.674-.429.66-.393.692-.356.734-.338.748-.3.782-.248.8-.215.838-.214.853-.125.891-.108.889-.07.926-.014.586.014.59.019.6.069.623.074.6.09.627.107.6.123.607.141.623.161.6.177.607.179.588.2.588.195.55.212.553.23.533.215L54.9,88.367,53.99,88l-.906-.36-.946-.338-.942-.266-.482-.123-.481-.091-.5-.106-.478-.074-.5-.069-.483-.039L47.8,86.5h-1.1l-.553.057-.551.084-.535.09-.516.125-.48.179-.463.179-.483.21-.429.235-.41.248-.389.283-.4.305-.373.318-.335.338-.322.376-.322.356-.286.408-.265.41-.248.428-.231.443-.215.446-.2.465-.178.5-.16.48-.125.5-.145.5L38,94.989l-.09.518-.056.533-.051.536-.017.533-.018.55.018.641.017.643.07.658.071.588.089.623.125.588.141.572.18.551.178.569.2.518.249.516.231.5.265.464.319.459.305.446.338.392.355.412.393.373.406.356.429.338.446.3.465.305.481.265.516.215.533.212.553.18.57.158.6.141.623.107.641.072.677.036.675.019.429-.019h.426l.428-.036.389-.056.43-.068.408-.056.413-.069.425-.106.391-.091.412-.141.389-.107.41-.141.783-.305.764-.357,1.532,4.633-.516.266-.535.214-.5.233-.533.195-.57.2-.516.177-.571.161-.552.158-.551.123-.553.108-.588.107-.55.074-.553.068-.59.039-.55.051Z" transform="translate(-0.077 9.383)" fill="#707070" fill-rule="evenodd"/><path d="M65.712,113.774h-.674l-.677-.051-.641-.074-.621-.107-.627-.141-.6-.141-.57-.215-.57-.215-.533-.248-.537-.268-.514-.283-.5-.338-.463-.338-.445-.375-.41-.372-.41-.429-.375-.409-.355-.446-.355-.48-.3-.5-.305-.5-.266-.533-.231-.553-.234-.553-.192-.584-.18-.572-.141-.6-.125-.623-.09-.643-.071-.641-.037-.637v-1.34l.037-.674.071-.637.09-.627L53.983,98l.141-.586.18-.6.192-.59.234-.551.231-.535.266-.533.305-.5.3-.5.355-.463.355-.445.375-.446.41-.389.41-.409.445-.356.463-.358.5-.3.514-.285.537-.266.533-.252.57-.23.57-.2.6-.158.627-.123.621-.108.641-.09.677-.053.674-.018.7.018.677.053.641.09.641.108.6.123.588.158.607.18.553.231.551.228.516.268.516.322.482.3.463.338.445.375.426.372.412.41.373.446.372.446.339.463.3.48.285.516.268.533.248.536.231.567.195.57.18.586.123.608.141.623.09.643.071.637.037.674.019.665-.018.677-.037.658-.071.637-.09.627-.141.623-.123.62-.18.59-.195.57-.231.584-.248.535-.268.518-.285.514-.3.5-.339.461-.372.446-.373.428-.412.41-.426.372-.445.392-.463.322-.482.322-.516.3-.516.266-.551.25-.553.195-.607.215-.588.141-.6.141-.641.107-.641.074-.677.051Zm0-20.1h-.389l-.375.037-.356.053-.338.088-.338.087-.3.108-.319.144-.268.144-.266.177-.268.179-.231.211-.231.215-.2.231-.2.23-.174.249-.178.268-.16.285-.161.285-.123.305-.141.3-.107.322-.09.3-.09.322-.084.322-.127.673-.088.678-.057.7-.017.691.017.678.057.7.088.694.127.658.084.322.09.338.09.3.107.305.141.319.123.287.161.281.16.269.178.266.174.248.2.254.2.211.231.231.231.195.268.177.266.165.268.14.319.141.3.108.338.089.338.088.356.053.375.037h.8l.373-.037.358-.053.338-.088.319-.089.322-.108.3-.141.272-.14.266-.165.268-.177.248-.195.231-.231.2-.211.195-.254.177-.248.178-.266.16-.269.145-.281.141-.287.123-.319.125-.305.09-.3.09-.338.088-.322.123-.658.09-.694.053-.7.017-.678-.017-.691-.053-.661-.09-.7-.123-.655-.088-.341-.09-.319-.09-.319-.125-.322-.123-.285-.141-.322-.145-.285-.16-.266-.178-.268-.177-.269-.195-.23-.2-.231-.231-.215-.25-.208-.268-.178-.266-.177-.272-.144-.3-.145-.322-.108-.319-.087-.338-.088-.358-.053-.373-.037Z" transform="translate(4.1 10.769)" fill="#707070" fill-rule="evenodd"/><path d="M92.317,113.262V97.877l-.018-.266-.017-.25-.053-.249-.037-.23-.072-.231-.069-.215L92,96.22l-.085-.211-.127-.18-.1-.192-.107-.18-.144-.158-.125-.164-.123-.141-.161-.161-.341-.248-.354-.214-.392-.215-.426-.141-.446-.125-.5-.09-.48-.05-.516-.037-.623.037-.624.05-.623.125-.586.108-.624.16-.6.178-.608.2-.57.21.018.125.036.271.037.317v.3l.018,17.468H77.039V94.46l-.017-.5-.051-.537-.037-.551-.071-.553-.107-.891-.074-.356,1.284-.445,1.335-.446L80,89.989l.678-.195.694-.214.711-.178.7-.141.711-.144.674-.127.713-.125.694-.087.7-.055.674-.053.678-.018.552.018.534.02.533.033.516.034.5.056.513.088.5.053.463.125.463.107.446.125.443.144.429.177.41.179.375.2.393.231.373.215.338.265.318.268.322.3.285.322.269.338.267.356.211.393.212.411.2.406.161.464.123.482.108.5L98,95.49l.055.553.036.589.017.6v16.026Z" transform="translate(8.405 10.768)" fill="#707070" fill-rule="evenodd"/><path d="M107.567,115.07h-.428l-.391-.017-.392-.02-.373-.053-.375-.07-.355-.053-.356-.071-.355-.09-.34-.107-.3-.125-.32-.125-.287-.158-.283-.147-.285-.157-.267-.195-.252-.215-.248-.2-.211-.215-.2-.248-.215-.249-.191-.267-.164-.283-.141-.288-.141-.318-.127-.322-.125-.338-.087-.356-.091-.373-.036-.392-.051-.389-.02-.412-.017-.427v-13.3L97.4,94.967V90.39l2.743-.141v-6.7h5.768v6.589h6.747v5.023H105.91v13.065l.057.252.034.214.05.215.09.175.09.18.125.141.123.123.145.145.158.09.2.088.215.071.195.036.231.053.248.017h.268l.551-.017.535-.074.567-.087.519-.141.534-.125.514-.18.539-.158.513-.2,1.6,4.683-.8.267-.783.248-.8.215-.8.214-.8.179-.8.107-.408.034-.426.056-.412.017Z" transform="translate(12.279 9.814)" fill="#707070" fill-rule="evenodd"/><path d="M126.914,94.155l-.319-.087-.355-.09-.4-.089-.41-.052-.445-.071-.407-.053-.428-.037h-.963l-.533.017-.553.057-.551.088-.537.087-.55.09-.536.123-.529.161.033.179.033.3v18.484h-5.784V94.923l-.017-.5-.053-.57-.057-.6-.084-.57-.09-.533-.074-.43-.051-.285-.017-.1,1.318-.537,1.335-.5.673-.23.678-.215.694-.212.678-.177.693-.178.694-.16.674-.127.715-.125.711-.087.694-.055.713-.053.711-.018.573.018.547.02.59.051.57.072.571.051.55.09.537.125.482.107Z" transform="translate(15.242 10.768)" fill="#707070" fill-rule="evenodd"/><path d="M138.078,113.774h-.694l-.66-.051-.645-.074-.637-.107-.626-.141-.586-.141-.6-.215-.554-.215-.529-.248-.537-.268-.5-.283-.5-.338-.463-.338-.44-.375-.428-.372-.394-.429-.373-.409-.355-.446-.34-.48-.338-.5-.281-.5-.272-.533-.248-.553-.215-.553-.2-.584-.159-.572-.158-.6-.11-.623-.088-.643-.07-.641-.034-.637-.039-.677.039-.664.034-.674.07-.637.088-.627.11-.623.158-.586.159-.6.2-.59.215-.551.248-.535.272-.533.281-.5.338-.5.34-.463.355-.445.373-.446.394-.389.428-.409.44-.356.463-.358.5-.3.5-.285.537-.266.529-.252.554-.23.6-.2.586-.158.626-.123.637-.108.645-.09.66-.053.694-.018.671.018.661.053.661.09.626.108.621.123.6.158.569.18.588.231.535.228.531.268.486.322.5.3.463.338.446.375.446.372.389.41.394.446.356.446.338.463.322.48.281.516.266.533.248.536.215.567.215.57.141.586.164.608.108.623.123.643.051.637.039.674.017.664-.017.677-.039.658-.051.637-.123.627-.108.623-.164.62-.141.59-.215.57-.215.584-.248.535-.266.518-.281.514-.338.5-.322.461-.356.446-.394.428-.389.41-.446.372-.446.392-.463.322-.5.322-.486.3-.531.266-.535.25-.588.195-.569.215-.6.141-.621.141-.626.107-.661.074-.661.051h-.671Zm0-20.1h-.4l-.389.037-.355.053-.356.088-.305.087-.338.108-.283.144-.287.144-.266.177-.248.178-.254.211-.209.215-.2.231-.215.23-.2.249-.158.268-.18.285-.123.285-.123.305-.141.281-.108.342-.107.3-.084.322-.075.322-.14.673-.09.678-.039.7-.018.691.018.678.039.7.09.694.14.658.075.322.084.338.107.3.108.305.141.319.123.287.123.281.18.269.158.266.2.248.215.254.2.211.209.231.254.195.248.177.266.165.287.14.283.141.338.108.305.089.356.088.355.053.389.037h.767l.389-.037.338-.053.356-.088.338-.089.322-.108.287-.141.283-.14.265-.165.249-.177.248-.195.221-.231.209-.211.215-.254.18-.248.174-.266.146-.269.159-.281.14-.287.108-.319.107-.305.108-.3.09-.322.09-.338.123-.658.084-.694.056-.7V100.6l-.056-.678-.084-.7-.123-.655-.09-.341-.09-.319-.108-.319-.107-.322-.108-.285-.14-.322-.159-.285-.146-.266-.174-.268-.18-.269-.215-.23-.209-.231-.221-.215-.248-.211-.249-.178-.265-.177-.283-.144-.287-.144-.322-.108-.338-.087-.356-.088-.338-.053-.389-.037h-.372Z" transform="translate(17.628 10.769)" fill="#707070" fill-rule="evenodd"/><path d="M155.064,79.626h-5.751V114.95h5.751Z" transform="translate(21.987 9.08)" fill="#707070" fill-rule="evenodd"/><path d="M164.875,113.775h-.535l-.514-.013-.519-.038-.5-.053-.514-.07-.519-.09-.5-.089-.52-.085-.994-.231-.982-.272-.942-.285-.908-.335,1.67-4.54.643.267.717.266.729.248.761.215.75.177.728.141.374.074.356.017.354.018.362.017h.338l.338-.017.323-.034.315-.053.339-.09.283-.088.287-.107.266-.145.254-.141.248-.214.158-.2.18-.248.141-.286.108-.3.072-.338.018-.375-.04-.373-.085-.355-.14-.339-.2-.322-.254-.285-.265-.231-.305-.248-.355-.25-.407-.212-.4-.215-.439-.215-.446-.195-.965-.411-.977-.443-.479-.215-.484-.249-.48-.268-.464-.267-.463-.3-.429-.32-.423-.356-.379-.373-.356-.426-.3-.445-.288-.483-.248-.514-.175-.569-.165-.624-.066-.661-.04-.7.023-.481.051-.443.057-.412.084-.406.141-.376.125-.372.18-.356.215-.342.191-.338.248-.3.237-.287.266-.266.287-.268.3-.248.305-.232.338-.214.338-.2.317-.192.36-.163.356-.179.373-.14.355-.125.389-.107.379-.125.373-.09.406-.09.377-.051.374-.056.372-.034.356-.033.373-.02.355-.018.5.018.464.02.463.033.5.034.462.074.446.07.463.088.446.056.446.125.428.107.406.108.428.141.373.123.412.161.356.123.355.178-1.619,4.469-.627-.2-.654-.231-.661-.177-.694-.141-.711-.161-.66-.087-.66-.091-.661-.017h-.265l-.266.017-.281.017-.248.055-.272.056-.231.068-.23.107-.215.125-.2.125-.215.164-.14.175-.141.2-.108.233-.09.234-.05.3-.018.305.018.355.125.336.123.305.2.265.248.268.323.231.32.215.356.2.407.209.411.2.481.18.462.174,1,.375,1.011.393.518.23.52.215.48.266.5.271.48.316.445.339.43.374.389.389.4.43.316.48.287.518.248.589.2.621.158.661.09.73.051.781-.034.483-.039.481-.068.462-.108.412-.14.426-.123.373-.182.393-.192.355-.23.356-.231.3-.248.3-.29.3-.3.268-.3.231-.344.248-.334.231-.355.2-.355.195-.374.178-.377.161-.389.123-.412.141-.389.125-.428.09-.424.09-.4.09-.429.068-.428.039-.407.051-.43.02-.423.013Z" transform="translate(23.413 10.768)" fill="#707070" fill-rule="evenodd"/><path d="M11.3,81.195l-.537.178-.584.178-.643.2-.675.191-.711.2-.677.182-.715.174-.694.18L5,77.474l.461-.053.465-.088.48-.127.463-.088.463-.1.445-.123.426-.128.393-.126.285-.1.3-.144.271-.108.266-.141L9.93,76l.231-.161.215-.161.178-.161.177-.157.18-.182L11.07,75l.123-.212.144-.2.108-.212.107-.23.088-.215.178-.483.107-.5.123-.553.057-.572.051-.622.034-.64v-.658l.039-.711V44.66h5.962V68.251l-.017,1.212-.037,1.119-.071,1.1-.107,1.035-.09.513L17.8,73.7l-.11.5-.125.445-.123.463-.141.408-.141.43-.18.426-.214.392-.195.393-.231.373-.249.357-.271.339-.283.316-.322.342-.336.3-.355.3-.376.284-.392.269-.443.25-.446.231-.5.248-.5.231Z" transform="translate(-5 2.541)" fill="#707070" fill-rule="evenodd"/><path d="M31.212,76.544h-.674l-.677-.033-.641-.09-.643-.123-.6-.123-.607-.161-.588-.2-.567-.192-.537-.254-.516-.283-.514-.3-.5-.305-.463-.356-.445-.355-.429-.393-.393-.41-.373-.425-.375-.466-.336-.463-.324-.48-.283-.518L20.46,70.1l-.252-.553-.215-.553-.195-.584-.178-.57-.141-.623-.123-.621-.09-.626-.074-.641-.033-.64V63.351l.034-.677.074-.641.09-.626.123-.621.141-.607.178-.588.195-.584.215-.553.252-.553.265-.516.283-.516.324-.48.336-.463.375-.465.373-.426.393-.426.429-.375.445-.373.463-.338.5-.305.514-.319.516-.266.537-.25.567-.215.588-.178.607-.178.6-.141.643-.107.641-.074.677-.033.674-.017.677.017.658.033.68.074.6.107.623.141.6.178.588.178.572.215.533.25.533.266.516.285.483.322.463.356.444.355.428.393.389.406.4.412.373.48.336.465.3.48.285.516.268.514.248.553.211.551.215.59.18.586.125.607.141.62.09.643.053.641.053.641.017.693-.017.679-.053.64-.053.659-.09.626-.141.621-.123.607-.18.586-.215.59-.211.551-.248.553-.268.514-.285.516-.305.48-.336.465-.373.48-.4.412-.389.407-.429.392-.444.356-.463.338-.483.338-.516.285-.533.266-.533.254-.572.212-.588.177-.6.161-.623.123-.6.123-.68.09-.658.033h-.677Zm0-20.087h-.389l-.376.039-.355.051-.338.09-.339.09-.3.1-.322.127-.265.16-.268.174-.268.18-.212.192-.248.215-.2.234-.2.248-.174.248-.18.271-.161.266-.158.283-.123.305-.141.3-.107.305-.09.336-.09.3-.09.342L25.674,62l-.088.677-.037.694-.017.7.017.674.037.694.088.658.141.677.09.338.09.32.09.322.107.305.141.3.123.285.158.285.161.266.18.268.174.269.2.211.2.248.248.2.212.215.268.177.268.177.265.141.322.127.3.123.339.087.338.071.355.057.375.033.389.018.375-.018.393-.033.375-.057.338-.071.319-.087.322-.123.283-.127.288-.141.265-.177.266-.177.234-.215.231-.2.215-.248.192-.211.18-.269.178-.268.16-.265.144-.285.141-.285.123-.3.123-.305.09-.322.088-.32.071-.338.144-.677.088-.658.037-.694.037-.674-.037-.7-.037-.677-.088-.674-.144-.677-.071-.322-.088-.319-.09-.338-.123-.305-.123-.284-.141-.322-.144-.285-.16-.265-.178-.272-.18-.266-.192-.248L34.9,57.9l-.231-.234-.234-.192-.266-.18L33.9,57.12l-.288-.16-.283-.127-.322-.1-.319-.09-.338-.09-.375-.051-.393-.039Z" transform="translate(-2.352 3.809)" fill="#707070" fill-rule="evenodd"/><path d="M58,77.7V62.5l-.02-.461-.05-.462-.075-.449-.14-.424-.161-.377-.195-.356-.215-.336-.248-.305-.285-.265-.305-.248-.322-.2-.355-.161-.389-.125-.393-.107-.429-.074h-.8l-.355.023-.376.051-.355.05-.356.074-.372.091-.358.107-.356.107-.713.265-.694.32-.641.338-.621.322V77.7H42.667l-.018-35.311H48.42v12.34l.852-.355.856-.322L51,53.79l.889-.215.463-.123L52.8,53.4l.466-.088.445-.07.481-.057.443-.017.463-.017.462-.018.483.018.5.017L57,53.22l.462.053.427.09.426.088.392.123.412.125.373.161.355.177.358.18.336.192.3.234.285.231.287.249.266.265.248.271.25.3.2.325.226.338.18.316.178.358.144.393.141.375.107.389.108.426.087.429.09.446.051.463.04.459.017.465.034.516V77.7Z" transform="translate(2.041 2.117)" fill="#707070" fill-rule="evenodd"/><path d="M79.925,76.008V60.925l-.019-.534-.07-.513-.034-.215-.074-.25-.07-.2-.071-.231-.09-.191-.107-.2-.1-.178-.108-.178-.14-.177L78.91,57.9l-.145-.16-.14-.125-.159-.141-.18-.127-.177-.125-.182-.1-.406-.2-.41-.161-.445-.108-.463-.09-.5-.068-.535-.017-.622.017-.623.068-.586.108-.624.144-.6.144-.623.178-.588.211-.589.2.019.107.053.271.017.336.018.3V76.008H64.648V57.2l-.034-.462-.02-.553-.07-.551L64.47,55.1l-.125-.889-.036-.372,1.281-.449,1.338-.426,1.367-.41,1.391-.373.711-.16.675-.145.713-.123.694-.107.694-.088.68-.074.691-.033h1.227l.537.017.534.017.5.057.519.033.516.071.48.089.481.108.465.125.463.123.443.141.428.144.389.212.413.2.372.2.358.249.356.248.318.285.305.285.3.3.272.358.248.356.211.389.231.392.18.446.141.446.16.478.1.5.09.534.074.553.051.586V76.008Z" transform="translate(6.091 3.812)" fill="#707070" fill-rule="evenodd"/><path d="M93.1,76.544h-.536l-.516-.018-.516-.053-.5-.037-.519-.07-.514-.07-.5-.09-.513-.108-1-.211-.982-.265-.959-.323-.907-.338,1.691-4.5.658.266.693.265.731.25.764.195.751.195.728.147.373.051.358.034.355.019.356.02.336-.02h.341l.319-.053.338-.034.319-.089.287-.09.286-.108.265-.141.268-.141.211-.214.215-.195.144-.272.161-.265.087-.3.074-.338.018-.374-.018-.412-.09-.355-.161-.3-.177-.323-.252-.281-.283-.269-.305-.248-.355-.214-.375-.231-.424-.214-.428-.2L92.941,66l-.922-.413-.98-.423-.5-.252-.481-.23-.5-.248-.465-.29-.444-.3-.443-.322-.392-.36-.413-.388-.355-.393-.3-.463-.286-.462-.23-.537-.195-.585-.145-.605-.087-.661-.02-.711V57.9l.053-.426.053-.428.125-.393.107-.389.16-.4.142-.318.214-.356.215-.322.215-.3.248-.305L87.585,54l.281-.248.305-.249.3-.25.34-.2.338-.191.322-.215.356-.141.355-.18.376-.141.355-.123.392-.128.373-.107.392-.088.391-.089.375-.071.375-.033.748-.09.711-.018.5.018h.463l.48.033.483.057.462.033.461.09.445.07.446.088.872.235.838.231.373.14.411.125.354.158.355.164-1.654,4.487-.586-.231-.661-.2-.656-.195-.694-.165-.715-.123-.658-.1-.66-.074-.658-.018h-.265l-.272.018-.265.017-.268.057-.266.051-.23.072-.231.084-.215.108-.2.144-.212.144-.144.178-.144.211-.1.215-.088.268-.056.265-.017.322.056.358.084.317.125.322.2.267.268.265.285.233.336.214.358.215.41.177.443.2.446.178.465.18,1,.389,1.016.392.516.233.514.23.482.248.514.288.463.319.449.32.445.356.407.41.338.446.338.478.285.518.266.57.214.607.127.694.09.711.051.8-.033.481-.037.462-.071.445-.107.446-.144.41-.125.389-.174.375-.2.356-.23.338-.252.339-.231.285-.283.287-.3.266-.3.265-.338.235-.338.214-.356.229-.356.177-.375.18-.372.141-.393.161-.412.14-.389.108-.43.107-.426.09-.428.071-.389.07-.426.034-.412.057-.426.015-.426.018Z" transform="translate(9.988 3.809)" fill="#707070" fill-rule="evenodd"/><path d="M114.141,76.561l-.678-.018-.658-.033-.661-.09-.623-.09-.623-.141-.6-.177-.588-.177-.556-.212-.551-.254-.533-.266-.516-.319-.463-.305-.483-.356-.445-.355-.426-.375-.389-.426-.4-.425-.355-.466-.353-.463-.305-.48-.285-.518-.268-.516-.248-.553-.212-.553-.215-.584-.18-.57-.123-.623-.141-.621-.09-.626-.05-.641-.057-.64-.017-.678.017-.658.057-.677.05-.641.09-.626.141-.621.123-.607.18-.588.215-.584.212-.553.248-.533.268-.537.285-.516.305-.48.353-.463.355-.465.4-.426.389-.41.426-.392.445-.356.483-.355.463-.305.516-.3.533-.283.551-.25.556-.195.588-.2.6-.161.623-.158.623-.09.661-.09.658-.033.678-.017.693.017.658.033.641.074.643.107.623.141.588.178.586.178.567.215.537.25.533.266.5.285.5.322.463.356.445.355.428.393.393.406.41.412.336.48.342.465.317.477.305.516.268.514.248.553.215.551.215.59.14.585.16.608.107.62.123.643.053.641.053.641v1.372l-.053.64-.053.659-.123.626-.107.621-.16.607-.141.586-.215.59-.215.551-.248.553-.268.514-.305.516-.316.48-.342.466-.336.48-.41.412-.393.407-.428.392-.445.356-.463.338-.5.338-.5.285-.533.266-.537.254-.567.212-.586.177-.588.177-.623.141-.643.09-.641.09-.658.033Zm0-20.1h-.375l-.393.039-.358.051-.355.09-.319.09-.319.1-.285.127-.288.16-.266.174-.248.18-.252.192-.211.234-.234.215-.174.248-.2.248-.158.271-.18.266-.123.283-.123.305-.144.3-.107.305-.108.336-.084.3-.074.342-.141.674-.09.677-.037.694-.017.7.017.674.037.694.09.658.141.677.074.338.084.32.108.322.107.305.107.3.144.285.141.285.161.266.178.268.18.269.192.211.234.248.211.2.252.215.248.177.266.177.288.141.285.127.319.123.319.087.355.071.358.057.393.033.375.018.389-.018.392-.033.339-.057.355-.071.322-.087.336-.123.288-.127.283-.141.268-.177.252-.177.248-.215.211-.2.2-.248.2-.211.211-.269.144-.268.178-.266.141-.285.123-.285.144-.3.1-.305.09-.322.09-.32.09-.338.141-.677.088-.658.037-.694.018-.674-.018-.7-.037-.677-.088-.674-.141-.677-.09-.322-.09-.319-.09-.338-.1-.305-.144-.283-.123-.322-.141-.285-.178-.265-.144-.272-.211-.266-.2-.248-.2-.215-.211-.234-.248-.192-.252-.18-.268-.174-.283-.16-.288-.127-.336-.1-.322-.09-.355-.09-.339-.051-.392-.039Z" transform="translate(13.149 3.81)" fill="#707070" fill-rule="evenodd"/><path d="M140.949,76.011V60.928l-.039-.534-.051-.513-.056-.215-.068-.25-.056-.2-.085-.231-.09-.191-.09-.2-.123-.178-.108-.178-.125-.177-.147-.161-.123-.16-.158-.125-.158-.141-.18-.127-.18-.125-.176-.1-.389-.2-.429-.161-.446-.108-.463-.09-.52-.068-.5-.017-.622.017-.626.068-.6.108-.627.144-.621.144-.6.178-.586.211-.588.2.018.107.033.271.033.336.018.3V76.011h-5.745v-18.8l-.017-.462-.055-.553-.037-.551-.074-.537-.1-.889-.07-.372,1.3-.449,1.315-.426,1.371-.41,1.389-.373.694-.16.716-.145.694-.141.694-.089.694-.088.693-.074.694-.033.655-.018.553.018h.537l.535.033.514.057.513.033.485.071.514.089.463.108.463.125.445.123.446.141.43.18.4.176.413.2.373.2.355.249.338.267.339.266.3.285.284.3.264.358.272.356.232.389.2.392.192.446.164.446.125.478.123.5.108.534.068.553.017.586.017.607V76.011Z" transform="translate(17.5 3.809)" fill="#707070" fill-rule="evenodd"/><path d="M237.978,16.512l-.48-.461-.48-.465-.48-.48-.5-.463-1.321.623-1.264.678-1.264.658-1.225.694-1.18.713-1.174.729-1.123.748-1.1.767-1.072.8-1.033.8-.994.818-.982.836-.96.855-.909.889-.891.891-.836.909.215,1.441.174,1.459.182,1.479.159,1.462.123,1.459.107,1.5.123,1.512.051,1.479.074,1.318.017,1.278.04,1.3v1.246l-.04,1.265-.017,1.21-.033,1.227-.057,1.231-.068,1.191-.09,1.178-.107,1.176-.108,1.156-.123,1.141L219.2,55.9l-.164,1.1-.176,1.1-.18,1.1-.191,1.086-.2,1.067-.23,1.035-.233,1.047-.248,1.02-.271,1.029-.266.979-.281,1-.323.98-.3.961-.339.923-.338.961-.355.909-.355.908-.373.889.586.963.586.928.661.922.637.927.677.871.718.891.762.871.744.874.807.82.819.819.869.82.874.782.909.783.96.748.947.73.994.73.586-.305.553-.336.553-.3.588-.339.531-.355.552-.356.536-.356.537-.357-.768-.906-.734-.909-.711-.908-.654-.96-.678-.928-.627-.976-.586-.98-.586-.978-.553-1-.531-1-.52-1.033-.48-1.015-.445-1.051-.43-1.049-.389-1.07-.389-1.049-.339-1.069-.338-1.1-.287-1.086-.266-1.1-.248-1.086-.231-1.14-.2-1.1-.158-1.14-.123-1.157-.108-1.121-.09-1.16-.074-1.154-.018-1.178v-1.16l.018-1.173.033-1.192.09-1.267.148-1.262.157-1.248.2-1.246.215-1.211.249-1.229.281-1.23.338-1.174.356-1.193.373-1.157.429-1.178.446-1.137.48-1.142.52-1.121.529-1.086.571-1.121.609-1.069.621-1.067.639-1.035.7-1.047.711-1,.729-1.013.767-.979.785-.979.8-.946.852-.941.875-.929.869-.872.926-.888.932-.875.959-.833Z" transform="translate(34.153 -3.072)" fill="#707070" fill-rule="evenodd"/><path d="M227.358,9.713l-.586-.319-.6-.322-.622-.3-.609-.322-1.281.607-1.248.621-1.224.64-1.2.661-1.192.694-1.157.713-1.139.731-1.141.761.233.749.214.783.215.766.215.785.191.785.18.783.192.782.182.8,1.246-1.371,1.264-1.372,1.3-1.334,1.276-1.318,1.32-1.284,1.332-1.262,1.3-1.227Z" transform="translate(34.338 -4.23)" fill="#707070" fill-rule="evenodd"/><path d="M215.623,81.688l.711-.16.717-.16.671-.142.7-.214.694-.176.693-.2.673-.21.677-.233-1.117-1.246-1.09-1.264-1.084-1.335L216.8,75.009l-1.067-1.367-1.016-1.409-.994-1.442-.982-1.441-.5.855-.5.819-.519.82-.52.8-.531.782-.553.764-.553.767-.547.749.786.783.851.766.87.781.891.768.875.731.942.728.925.715Z" transform="translate(33.06 7.158)" fill="#707070" fill-rule="evenodd"/><path d="M245.442,33.962l-.858.731-.818.785-.745.821-.767.818-.339.426-.355.429-.323.443-.338.43-.3.463-.322.443-.283.446-.287.463-.271.462-.265.5-.249.463-.248.48-.254.5-.209.48-.2.516-.2.52-.174.5-.176.516-.18.516-.164.537-.141.531-.123.535-.107.534-.125.516-.09.6-.09.586-.051.573-.051.6-.039.573-.033.586v1.175l.033.57.039.586.051.57.051.59.072.567.108.553.09.586.141.567.123.553.165.59.158.553.18.551.174.553.2.566.233.554.209.552.253.534.233.552.263.534.266.531.305.537.287.533.3.535.339.518.711-1.248.66-1.3.322-.639.305-.643.3-.656.287-.678.266-.658.265-.694.266-.656.236-.7.231-.693.209-.711.237-.681.191-.707.182-.715.174-.748.182-.693.157-.751.125-.711.141-.73.107-.749.108-.728.09-.748.09-.748.068-.748.074-.768.033-.744.04-.785.015-.748.018-.782-.018-1.318-.072-1.3-.09-1.318-.125-1.284-.174-1.3-.215-1.268-.23-1.244Z" transform="translate(38.249 0.541)" fill="#707070" fill-rule="evenodd"/><path d="M234.1,50.02l.089-.8.1-.836.114-.782.14-.838.141-.8.158-.82.18-.8.176-.819.2-.8.231-.8.215-.8.248-.821.265-.8.272-.764.281-.8.323-.781.305-.785.338-.764.315-.785.356-.766.4-.747.373-.748.429-.751.389-.728.446-.731.446-.713.463-.709.462-.694.5-.68.514-.674.5-.66.553-.637-.356-.664-.322-.637-.356-.624-.372-.623-1.033.586-1,.6-1,.609-.959.659-.926.656-.908.678-.876.677-.868.731-.818.748-.8.745-.783.785-.745.764-.734.8-.694.836-.655.838-.627.872-.627.889-.586.875-.531.922-.5.909-.5.945-.464.963-.429.959-.373,1-.355,1-.338,1-.282,1.049-.254,1.053-.208,1.03-.2,1.086-.142,1.069-.129,1.123-.068.979-.021.942-.018.979.039.979.051.979.107.961.108.98.164.942.174.961.215.963.248.925.271.964.283.922.338.945.356.908.373.907.412.912.429.889.446.871.5.891.514.856.536.851.519.821.586.836.6.8.621.8.643.785.66.781.688.748.694.728.735.731.728.693.462-.443.446-.445.445-.463.446-.463.446-.463.43-.482.406-.48.428-.5-.361-.677-.35-.709-.322-.715-.322-.711-.3-.715-.305-.728L236.46,70l-.249-.751-.263-.728-.233-.748-.231-.766-.2-.748-.2-.767-.174-.764-.182-.785-.159-.782-.123-.764-.14-.8-.108-.8-.107-.8-.074-.8-.091-.8-.05-.821-.034-.815-.021-.82V54.259l.021-.838.034-.852.05-.839.075-.871Z" transform="translate(35.797 -1.504)" fill="#707070" fill-rule="evenodd"/><path d="M183.053,15.393l-.716.713-.712.711-.693.749-.661.767-.677.748-.621.8-.621.8-.594.819-.6.838-.552.838-.547.871-.52.852-.513.875-.487.909-.48.908-.423.922-.445.928-.413.926-.371.963-.379.963-.338.976-.334.979-.287,1-.266,1-.266,1.016-.214,1.03-.231,1.015-.18,1.053-.158,1.03-.125,1.069-.113,1.053-.084,1.066.677-.677.694-.694.637-.748.643-.748.622-.785.626-.8.6-.8.552-.836.589-.856.535-.855.531-.889.48-.908.485-.909.5-.925.446-.942.445-.946.424-.942.4-.979.373-.979.373-.979.338-.978.344-1,.3-1,.322-1.014.265-1,.266-1,.214-1.015.233-1,.214-1.014.182-.995.158-1Z" transform="translate(25.749 -2.932)" fill="#707070" fill-rule="evenodd"/><path d="M191.834,9.8l-.5.285-.515.319-.518.3-.5.339-.43,1.868-.428,1.834-.446,1.8-.445,1.764-.479,1.707-.463,1.694L186.6,23.35l-.52,1.617-.531,1.586L185,28.1l-.553,1.516-.588,1.475-.586,1.459-.61,1.409-.62,1.388L181.42,36.7l-.643,1.335-.677,1.3-.661,1.267-.694,1.244-.671,1.211-.717,1.211-.711,1.157-.728,1.16-.75,1.1-.751,1.087-.762,1.086-.762,1.049L172.1,51.96l-.8,1-.8,1-.824.961.147.852.123.821.158.855.18.836.182.82.191.836.214.8.233.819,1.694-1.121,1.6-1.16,1.514-1.262,1.4-1.3,1.372-1.388,1.281-1.445,1.2-1.477,1.135-1.549,1.073-1.586.976-1.656.925-1.657.858-1.707.8-1.745.716-1.746.661-1.778.62-1.8.532-1.8.485-1.834.445-1.817.373-1.817.338-1.815.283-1.8.231-1.8.2-1.741L191.957,21l.108-1.707L192.1,17.6l.04-1.637-.04-1.62-.033-1.566-.09-1.532Z" transform="translate(25.796 -3.978)" fill="#707070" fill-rule="evenodd"/><path d="M223.844,40.654l-.074-1.194-.05-1.193-.091-1.194-.09-1.191-.123-1.174-.107-1.178-.125-1.174-.158-1.16-.164-1.157-.141-1.156-.176-1.157-.214-1.14-.2-1.121-.2-1.143-.249-1.137-.215-1.1-.248-1.105-.266-1.1-.269-1.1-.266-1.069-.282-1.086-.287-1.067-.322-1.066-.334-1.069-.3-1.033-.355-1.053-.338-1.047-.356-1.018-.373-1L217.1,7.232l-.378-1-.413-1-.637-.09-.643-.07-.671-.071-.643-.053.338,3.169.3,3.186.265,3.172.2,3.151.158,3.133.09,3.118L215.118,27v3.062l-.09,3.065-.14,3.024-.174,3.008-.266,2.958-.305,2.92-.377,2.921-.481,2.864-.5,2.816-.6,2.778-.66,2.742-.751,2.706-.8,2.653-.887,2.563-.946,2.564-1.05,2.493-1.118,2.42-1.213,2.368-1.281,2.313L202.087,81.5l-1.462,2.191-1.529,2.1-1.642,2.065-1.744,1.975-1.817,1.889.7.248.654.248.694.214.677.235.694.192.694.2.712.18.683.176.705.16.717.144.729.142.71.123.751.107.728.108.735.087.728.09,1.14-1.053,1.1-1.066,1.072-1.1,1.049-1.156,1.01-1.194.982-1.248.966-1.261.9-1.338.891-1.352.834-1.409.818-1.441.785-1.5.768-1.526.694-1.57.677-1.638.627-1.635.6-1.693.547-1.747.5-1.781.485-1.832.413-1.851.406-1.925.338-1.959.305-1.975.248-2.031.209-2.083.164-2.1.107-2.173.075-2.207.015-2.243-.015-2.3Z" transform="translate(30.324 -4.884)" fill="#707070" fill-rule="evenodd"/><path d="M208.71,4.9l-.643.033L207.428,5l-.66.068-.622.09.069,2.119.017,2.19v2.264l-.017,2.365-.09,2.387-.085,2.456-.163,2.511-.2,2.546-.232,2.585-.3,2.619-.323,2.652-.406,2.67-.446,2.653-.519,2.686-.571,2.692-.637,2.67-.694,2.672-.784,2.67-.842,2.619-.9,2.6-1,2.567-1.067,2.526L195.8,63.33l-1.246,2.421-1.338,2.368L191.812,70.4l-1.5,2.241-1.6,2.139-1.694,2.065-1.795,1.979-1.89,1.865-2.01,1.784.762.711.8.694.807.66.813.64.823.624.836.623.87.586.891.571,2.563-1.834,2.426-2,2.24-2.03,2.1-2.154,1.942-2.261,1.8-2.3,1.671-2.4,1.5-2.473,1.383-2.511,1.253-2.562,1.117-2.659,1-2.686.87-2.706.767-2.76.643-2.776.531-2.833.445-2.811.323-2.85.23-2.868.125-2.846.068-2.833-.033-2.85-.126-2.827-.2-2.813-.265-2.776-.338-2.743-.389-2.71-.463-2.686-.537-2.619-.586-2.563-.622-2.511Z" transform="translate(27.974 -4.895)" fill="#707070" fill-rule="evenodd"/><path d="M200.247,6.452l-.57.18-.574.178-.548.195-.536.195-.141,2.139-.163,2.153-.194,2.156-.23,2.156-.271,2.153-.284,2.156-.338,2.151-.355,2.156-.389,2.137-.446,2.139-.5,2.135-.5,2.1-.586,2.119-.6,2.067-.643,2.082-.678,2.049-.767,2.03-.78,1.994-.84,1.975-.887,1.959-.926,1.905L186.5,53l-1.049,1.871-1.09,1.815L183.2,58.5l-1.224,1.727-1.265,1.71-1.338,1.672L178,65.229,176.56,66.8l-1.506,1.531-1.592,1.493.428.82.445.8.464.8.5.785.48.785.514.744.5.748.532.749,2.139-1.369,1.992-1.48,1.924-1.585,1.818-1.654,1.709-1.764,1.6-1.868,1.518-1.905,1.405-2.032,1.3-2.065,1.23-2.135,1.141-2.19,1.034-2.246.941-2.294.858-2.334.779-2.35.693-2.4.588-2.421.537-2.438.446-2.457.389-2.458.287-2.475.192-2.455.164-2.442.051-2.457V22.353l-.051-2.365-.147-2.387-.191-2.315-.272-2.28-.332-2.243-.374-2.189Z" transform="translate(26.503 -4.604)" fill="#707070" fill-rule="evenodd"/></svg>