<svg xmlns="http://www.w3.org/2000/svg" width="361.137" height="71.562" viewBox="0 0 361.137 71.562"><g transform="translate(0 0)"><g transform="translate(124.665)"><path d="M40.523,54.8c-.187.261-.336.485-.523.746l.112.075Z" transform="translate(-35.969 -44.387)" fill="#707070"/><path d="M84.186,48.97,79.081,59.437l9.527,4.647,5.105-10.466Z" transform="translate(-60.464 -40.733)" fill="#707070" fill-rule="evenodd"/><path d="M109.366,30.946A24.132,24.132,0,0,0,99.289,27.4L96.9,32.289l9.555,4.665Z" transform="translate(-71.632 -27.213)" fill="#707070"/><path d="M140.441,52.279a24.515,24.515,0,0,0-7.017-9.779L130.7,48.1l9.517,4.665Z" transform="translate(-92.817 -36.678)" fill="#707070"/><path d="M119.211,66.686l-5.105,10.466,9.527,4.647,5.105-10.467-9.527-4.647Z" transform="translate(-82.416 -51.836)" fill="#707070" fill-rule="evenodd"/><path d="M145.2,92.788l4.479,2.165a24.606,24.606,0,0,0,1.6-8.659,29.6,29.6,0,0,0-.261-3.658l-.709-.336L145.2,92.788Z" transform="translate(-101.905 -61.623)" fill="#707070"/><path d="M29.2,78.992a24.521,24.521,0,0,0,3.173,11.272c.336.6.672,1.157,1.045,1.754l.672,1.157,9.331-19.11L33.9,69.4Z" transform="translate(-29.2 -53.537)" fill="#707070"/><path d="M57.665,87.6,47.7,108.016l3.135,5.487,4.852,2.351L67.22,92.265Z" transform="translate(-40.795 -64.945)" fill="#707070"/><path d="M100.217,103.3l-5.105,10.466,9.527,4.647,5.105-10.467Z" transform="translate(-70.511 -74.783)" fill="#707070" fill-rule="evenodd"/><path d="M82.392,139.849l-5.105,10.466,9.527,4.647L91.919,144.5Z" transform="translate(-59.339 -97.692)" fill="#707070" fill-rule="evenodd"/><path d="M71.3,179.389l6.382,11.122,4.292-8.883L72.457,177Z" transform="translate(-55.587 -120.977)" fill="#707070"/><path d="M97.665,192.7,93,202.217a2.424,2.424,0,0,0,2.986-1.082l4.18-7.241Z" transform="translate(-69.188 -130.817)" fill="#707070"/><path d="M125.574,121.963l.187-.3-4.4-2.165L109.6,143.648l2.725,1.344,12.391-21.573C125.015,122.934,125.313,122.449,125.574,121.963Z" transform="translate(-79.592 -84.938)" fill="#707070"/><path d="M45.8,44.155l9.518,4.628,5.113-10.451L52.742,34.6a23.264,23.264,0,0,0-3.284,2.09Z" transform="translate(-39.604 -31.726)" fill="#707070"/><path d="M82.569,26.9A25.436,25.436,0,0,0,76,27.945l4.889,2.389Z" transform="translate(-58.533 -26.9)" fill="#707070"/></g><path d="M-22.683-18.2q5.817,0,9.153,2.78a9.428,9.428,0,0,1,3.336,7.656A9.428,9.428,0,0,1-13.53-.108q-3.336,2.78-9.153,2.78h-7.4v9.067h-4.277V-18.2Zm-.128,17.151a9.652,9.652,0,0,0,6.2-1.732,6.041,6.041,0,0,0,2.138-4.983,6.041,6.041,0,0,0-2.138-4.983,9.652,9.652,0,0,0-6.2-1.732h-7.271v13.43ZM-3.907-18.2H.37V8.018H16.58v3.721H-3.907ZM40.7,4.254H24.792L21.5,11.739H17.093L30.651-18.2h4.234l13.6,29.939H44ZM39.205.833l-6.458-14.67L26.289.833ZM78.682-18.2V11.739H75.174L57.211-10.587V11.739H52.934V-18.2h3.507L74.4,4.126V-18.2Z" transform="translate(34.359 39.425)" fill="#707070"/><path d="M-38.117,12.453a17.2,17.2,0,0,1-8.276-1.989A14.842,14.842,0,0,1-52.21,4.947a15.2,15.2,0,0,1-2.117-7.977,15.2,15.2,0,0,1,2.117-7.977,14.842,14.842,0,0,1,5.817-5.517,17.286,17.286,0,0,1,8.319-1.989,17.449,17.449,0,0,1,7.036,1.369,14.092,14.092,0,0,1,5.282,3.935L-30.2-9.1a9.564,9.564,0,0,0-7.527-3.507,10,10,0,0,0-4.961,1.219,8.665,8.665,0,0,0-3.4,3.4,10,10,0,0,0-1.219,4.961,10,10,0,0,0,1.219,4.961,8.665,8.665,0,0,0,3.4,3.4,10,10,0,0,0,4.961,1.219A9.518,9.518,0,0,0-30.2,3l4.448,4.106a13.865,13.865,0,0,1-5.3,3.978A17.6,17.6,0,0,1-38.117,12.453ZM-21.095-18h6.929V11.94h-6.929ZM6.235,12.453q-6.415,0-9.987-3.55T-7.323-1.233V-18H-.394V-1.49q0,8.041,6.672,8.041a6.254,6.254,0,0,0,4.961-1.946Q12.95,2.659,12.95-1.49V-18h6.843V-1.233q0,6.587-3.571,10.136T6.235,12.453ZM26.636-18h13.6a19.115,19.115,0,0,1,8.618,1.86A13.93,13.93,0,0,1,54.672-10.9a14.737,14.737,0,0,1,2.074,7.87,14.737,14.737,0,0,1-2.074,7.87,13.93,13.93,0,0,1-5.817,5.239,19.115,19.115,0,0,1-8.618,1.86h-13.6ZM39.895,6.252a10.061,10.061,0,0,0,7.164-2.5,8.837,8.837,0,0,0,2.673-6.779,8.837,8.837,0,0,0-2.673-6.779,10.061,10.061,0,0,0-7.164-2.5h-6.33V6.252Zm41.358-.727h-13.9L64.7,11.94H57.6L70.946-18h6.843L91.176,11.94H83.9ZM79.072.264,74.325-11.2,69.577.264ZM94.3-18h13.6a19.115,19.115,0,0,1,8.618,1.86,13.93,13.93,0,0,1,5.817,5.239,14.737,14.737,0,0,1,2.074,7.87,14.737,14.737,0,0,1-2.074,7.87,13.93,13.93,0,0,1-5.817,5.239,19.115,19.115,0,0,1-8.618,1.86H94.3Zm13.259,24.25a10.061,10.061,0,0,0,7.164-2.5,8.837,8.837,0,0,0,2.673-6.779,8.837,8.837,0,0,0-2.673-6.779,10.061,10.061,0,0,0-7.164-2.5h-6.33V6.252Z" transform="translate(236.729 39.224)" fill="#707070"/></g></svg>